<svg width="220" height="288" viewBox="0 0 220 288" fill="none" xmlns="http://www.w3.org/2000/svg">
<path d="M112.842 283.325C112.842 283.325 113.822 275.332 122.809 278.396M113.986 276.983C114.678 275.945 115.758 275.213 116.995 274.944C118.232 274.675 119.527 274.891 120.604 275.545M115.021 270.88C115.557 271.607 116.199 272.253 116.927 272.798M125.178 274.479C124.92 274.937 124.806 275.459 124.85 275.98C124.893 276.502 125.092 276.999 125.423 277.41M123.545 272.799C119.188 271.174 117.663 271.068 116.928 267.231C116.683 262.808 117.173 260.889 118.997 260.063C120.722 258.863 122.725 258.103 124.825 257.852C127.37 258.317 129.761 259.377 131.796 260.943M121.421 262.409C122.069 262.032 122.8 261.812 123.553 261.765C124.306 261.719 125.059 261.848 125.751 262.142M135.415 258.492C135.415 258.492 134.571 256.494 136.532 255.987M133.948 259.583C133.948 259.583 130.326 255.666 134.084 254.627M118.125 257.586C119.519 256.206 121.325 255.295 123.283 254.984C125.24 254.673 127.248 254.977 129.017 255.854M112.162 287C112.162 287 108.703 280.978 111.399 276.342C112.644 273.944 112.916 271.175 112.162 268.589C112.72 265.597 113.047 262.569 113.142 259.53C113.142 256.652 113.142 252.202 114.966 249.671C115.538 244.982 115.947 245.248 114.177 238.028C113.774 232.816 114.206 227.575 115.457 222.494C116.437 220.043 120.195 213.275 120.658 212.316M115.563 255.692C117.29 251.844 118.552 247.811 119.321 243.676C119.011 240.828 118.381 238.022 117.442 235.309C117.64 230.445 118.482 225.627 119.948 220.975C121.119 218.737 122.889 215.646 125.204 218.763C127.518 221.881 128.88 223.533 131.658 224.092M120.712 249.06C120.773 250.137 121.218 251.158 121.969 251.947C122.72 252.735 123.73 253.241 124.824 253.377M130.786 252.577C129.427 252.737 128.049 252.522 126.808 251.957C125.567 251.392 124.511 250.5 123.761 249.38C123.107 245.01 123.488 243.198 122.889 240.827C122.29 238.455 120.847 235.258 122.181 232.833C123.516 230.409 126.511 225.853 124.36 224.014C121.8 224.467 120.302 228.49 120.22 230.835M124.824 244.741C125.897 243.595 126.473 242.085 126.431 240.531C126.431 237.627 125.232 239.252 124.96 235.469C125.123 231.659 127.084 227.129 130.57 227.049C132.298 227.714 133.781 228.873 134.826 230.375C135.87 231.877 136.427 233.652 136.425 235.469M141.433 234.298C141.333 233.879 141.338 233.443 141.447 233.026C141.557 232.61 141.768 232.226 142.062 231.906C142.357 231.587 142.726 231.342 143.138 231.192C143.55 231.043 143.993 230.993 144.429 231.047M138.823 232.673C138.823 232.673 137.108 229.582 137.816 228.303C139.286 227.397 140.348 228.143 141.846 229.076M123.98 213.223C123.98 213.223 121.502 209.094 125.151 207.362C127.357 208.854 126.867 212.024 126.812 212.691C127.409 215.041 128.463 217.258 129.917 219.218M135.661 222.815C133.33 220.55 131.52 217.825 130.351 214.821C129.746 211.827 129.418 208.787 129.371 205.735C128.935 203.604 129.18 201.153 131.059 201.392C132.938 201.632 132.802 204.377 132.884 205.815C132.891 206.894 132.973 207.971 133.129 209.039M138.167 222.817C138.167 222.817 133.892 218.367 135.989 213.997C139.121 211.706 140.509 212.026 144.431 214.53C148.352 217.035 147.998 221.032 148.897 222.524M137.868 207.362C137.868 207.362 134.464 202.592 137.16 201.127C140.128 201.606 138.984 202.912 142.143 208.054C147.726 213.836 149.115 215.515 149.959 219.831M152.33 223.639C152.33 223.639 151.921 220.362 153.5 219.456C154.153 219.197 154.861 219.096 155.562 219.16C156.264 219.225 156.939 219.455 157.531 219.829M155.733 225.401C155.758 225.028 155.863 224.664 156.041 224.333C156.219 224.002 156.467 223.711 156.767 223.48C157.068 223.249 157.415 223.082 157.786 222.991C158.156 222.9 158.543 222.886 158.919 222.95M154.043 215.408C150.525 212.853 147.991 209.21 146.854 205.07C145.056 198.249 145.519 196.944 142.143 196.384C140.373 197.503 141.19 199.582 142.742 202.113M149.631 206.082C150.307 203.333 149.98 200.439 148.706 197.902C146.69 195.903 145.982 194.704 146.609 193.425C147.087 193.019 147.672 192.751 148.297 192.653C148.923 192.554 149.564 192.628 150.149 192.866C151.347 193.159 153.063 195.344 153.498 195.53M160.061 218.152C160.061 218.152 153.171 214.128 152.6 208.933C153.226 203.444 154.887 200.326 160.061 199.341C164.097 198.498 168.31 199.234 171.798 201.392C173.385 202.395 174.847 203.575 176.155 204.909M183.425 199.34C183.425 199.34 179.586 199.34 179.994 204.829M170.82 197.904C169.235 195.948 166.925 194.684 164.393 194.387C161.609 193.591 159.152 191.96 157.367 189.724C154.644 187.299 153.146 186.207 151.512 186.207C149.878 186.207 147.591 189.138 152.601 191.189M161.804 188.952C160.769 186.647 159.269 184.572 157.392 182.85C154.669 180.692 151.946 178.667 151.592 180.346C151.389 180.897 151.377 181.499 151.56 182.058C151.742 182.617 152.107 183.101 152.6 183.436M173.951 195.876C170.732 193.894 167.745 191.571 165.046 188.949C163.576 186.791 160.58 179.144 154.698 176.985C149.687 175.014 152.193 173.095 153.173 172.749C155.035 173.456 156.772 174.445 158.32 175.68C159.777 176.669 161.503 177.207 163.276 177.225M164.282 174.084C162.622 172.604 160.624 171.535 158.455 170.966C156.058 170.807 153.771 170.407 153.39 169.261C153.286 168.955 153.248 168.632 153.278 168.311C153.308 167.99 153.405 167.679 153.564 167.396C153.722 167.113 153.938 166.866 154.199 166.669C154.459 166.472 154.759 166.329 155.078 166.25C156.603 165.984 158.782 167.13 161.287 169.155L163.438 170.727M177.681 193.826C174.188 192.831 171.048 190.902 168.613 188.258C166.734 183.222 166.598 182.023 167.388 179.732C168.177 177.44 169.267 177.067 168.667 173.923C168.419 172.421 168.643 170.88 169.309 169.505C169.975 168.13 171.053 166.986 172.398 166.223C173.215 162.919 174.005 159.562 177.681 158.496C183.448 156.79 189.67 157.374 195.001 160.121M166.38 165.45C164.917 164.026 162.99 163.15 160.934 162.972C158.074 162.546 154.807 162.812 155.106 160.041C156.522 157.377 158.265 157.67 161.288 157.803C165.311 158.249 169.385 157.905 173.27 156.791C176.619 155.325 185.742 150.423 198.977 157.883M204.75 162.171C206.072 160.406 207.999 159.165 210.179 158.676C212.359 158.187 214.647 158.481 216.623 159.506M107.94 281.352C107.668 279.367 108 277.347 108.893 275.544C110.364 273.013 108.675 269.069 108.893 267.337C109.388 264.486 109.489 261.582 109.193 258.705C109.651 255.641 110.569 252.66 111.916 249.859C112.976 246.544 112.734 242.962 111.235 239.814C110.917 234.422 111.036 229.014 111.589 223.641C112.161 222.175 113.741 215.274 114.748 212.37C115.756 209.466 118.697 202.698 115.647 202.352C114.027 202.689 112.501 203.363 111.171 204.329C109.841 205.294 108.74 206.528 107.94 207.947C106.715 210.052 104.781 217.059 102.929 220.656C101.078 224.253 98.191 230.462 92.0366 232.353M105.653 285.056C104.917 284.053 104.406 282.909 104.155 281.699C104.272 279.904 104.079 278.102 103.583 276.37C102.743 274.72 102.367 272.881 102.494 271.041C102.494 268.883 101.377 267.924 100.86 266.698C100.417 264.558 100.18 262.381 100.152 260.197C99.9613 258.119 98.981 257.532 98.6814 255.667C98.3819 253.802 98.8993 248.1 98.273 245.409C97.6466 242.718 97.2654 240.08 94.8145 238.588C92.8319 237.069 90.4909 236.061 88.0065 235.657C86.0932 235.632 84.2093 236.12 82.5601 237.07M104.889 280.634C105.582 280.101 106.237 279.522 106.849 278.902M104.508 274.986C105.214 273.921 106.142 273.013 107.231 272.322M104.508 270.483C105.024 269.291 105.827 268.239 106.85 267.418M103.581 265.819C104.5 263.757 105.72 261.837 107.203 260.117M102.492 261.501C103.46 257.797 104.642 254.15 106.032 250.577C106.794 249.591 108.292 246.074 110.062 245.248M102.139 252.817C102.139 252.817 105.243 242.746 109.056 240.401M101.267 243.651C102.4 241.956 103.724 240.392 105.216 238.988C106.469 237.955 107.52 236.71 108.321 235.311M99.4985 237.39C101.164 235.869 103.067 234.619 105.136 233.687C107.859 232.727 108.948 228.358 109.057 228.065M98.8448 232.967C101.417 231.082 103.781 228.939 105.898 226.572C107.259 223.733 108.388 220.793 109.275 217.78C110.418 214.425 111.81 211.157 113.441 208.001M76.2708 231.712C76.2708 231.712 80.3828 233.498 78.7216 236.588M78.4202 229.929C80.3153 230.929 82.4349 231.453 84.5883 231.453C86.7416 231.453 88.8613 230.929 90.7564 229.929C92.6897 228.936 94.347 227.498 95.5853 225.739C96.8236 223.98 97.6056 221.952 97.8639 219.831C98.2972 217.409 98.1408 214.921 97.4075 212.569C96.6741 210.217 95.3844 208.068 93.643 206.295C88.0059 202.272 85.8273 202.592 83.322 202.645C81.3958 202.591 79.4847 202.991 77.7499 203.812C76.0152 204.633 74.5078 205.85 73.3551 207.361M100.152 218.952C100.152 218.952 102.875 211.785 104.074 209.707C105.315 206.97 107.177 204.546 109.52 202.619C112.243 201.047 112.706 199.955 112.379 199.022C111.208 198.25 110.337 198.649 108.894 199.342C106.737 200.839 104.958 202.799 103.692 205.071C102.848 206.829 101.759 208.694 101.35 209.733M93.9718 202.911C94.4395 202.899 94.9039 202.991 95.3291 203.183C95.7542 203.374 96.1287 203.658 96.4235 204.014C96.7184 204.369 96.9257 204.786 97.0295 205.233C97.1332 205.679 97.1305 206.143 97.0217 206.588M98.8437 208.081C99.4462 206.459 100.241 204.911 101.213 203.471C102.318 201.414 103.916 199.65 105.87 198.329C108.021 197.103 110.472 194.705 109.845 193.826C109.193 193.517 108.471 193.375 107.748 193.413C107.024 193.45 106.322 193.665 105.706 194.039C103.563 195.441 101.345 196.731 99.0616 197.902C95.9831 198.949 92.7329 199.428 89.476 199.314C83.8662 199.314 82.4501 199.128 80.2443 199.847C78.6835 200.222 77.2126 200.892 75.9144 201.819M70.4137 204.109C70.4137 204.109 72.8101 202.857 72.4289 201.738C71.4345 200.568 70.0925 199.73 68.5891 199.34M89.559 196.65C90.7417 196.987 91.998 196.987 93.1808 196.65C96.4476 195.986 99.5364 194.661 102.249 192.76C103.611 191.508 105.98 190.602 105.136 189.083C103.066 188.098 101.514 188.844 98.5727 190.416C96.0248 192.039 93.2806 193.345 90.4032 194.306C87.68 194.865 87.9522 194.625 87.9522 194.625M88.3047 193.32C88.3047 193.32 88.3047 192.441 90.7828 191.002C93.4142 189.271 96.2601 187.874 99.252 186.846C102.329 186.046 102.738 185.3 103.01 184.181C103.282 183.062 103.255 182.476 102.084 181.837C100.913 181.197 96.6378 183.382 95.494 184.155C94.2418 184.971 93.0413 185.861 91.8994 186.819M67.0639 196.864C69.9361 197.718 72.9856 197.829 75.9143 197.184C80.182 196.567 84.1038 194.535 87.0249 191.429C87.9462 190.395 88.4539 189.07 88.4539 187.699C88.4539 186.327 87.9462 185.002 87.0249 183.969C85.3975 182.455 83.2514 181.591 81.0067 181.544C78.4498 181.78 75.9283 182.298 73.4906 183.089M89.2871 182.022C89.2871 182.022 92.5277 181.702 91.6018 184.42M65.8673 176.561C65.8673 176.561 69.9521 177.813 69.1079 180.105C68.2638 182.396 67.6374 182.956 65.8673 183.622M83.4864 178.984C85.4244 178.817 87.3767 178.916 89.2869 179.277C92.0133 180.159 94.9052 180.441 97.756 180.103C99.9618 179.517 102.004 178.291 101.677 176.959C101.001 176.104 100.129 175.417 99.1301 174.954C98.1318 174.491 97.0359 174.265 95.9315 174.295C93.3383 174.194 90.7495 174.583 88.3065 175.44C85.4733 176.052 82.5741 176.32 79.674 176.24C76.01 176.384 72.3434 176.025 68.7812 175.174M79.2936 173.817C81.9768 173.175 84.709 172.747 87.4632 172.538C91.2328 172.622 94.9945 172.164 98.6283 171.179C100.507 170.193 101.352 168.701 99.6904 167.849C97.6574 167.226 95.459 167.378 93.5359 168.275C91.548 168.941 88.4435 170.62 87.1908 170.78M87.0805 167.954C87.6523 167.275 88.3663 166.724 89.1743 166.338C89.9823 165.952 90.8655 165.739 91.7644 165.716C95.4407 165.209 98.6813 165.209 99.6616 164.277C100.642 163.344 101.159 162.518 100.669 161.373C100.121 160.663 99.3459 160.153 98.4669 159.926C97.5879 159.699 96.6565 159.768 95.8219 160.12C93.6454 161.346 91.3894 162.432 89.0683 163.371M194.7 138.487C194.772 138.932 194.728 139.388 194.571 139.812C194.413 140.236 194.149 140.615 193.801 140.911C192.414 141.845 191.078 142.85 189.798 143.922C188.927 144.908 188.11 146.293 190.043 147.146C191.977 147.999 193.202 146.693 196.28 149.491C197.681 151.007 199.284 152.333 201.045 153.434C203.36 154.553 204.041 155.939 207.281 155.805M194.348 136.859C192.233 138.773 189.996 140.553 187.648 142.188C183.874 144.928 179.534 146.828 174.931 147.756C168.341 149.009 166.952 149.835 164.338 150.154C161.901 150.147 159.493 150.666 157.285 151.673C155.733 152.819 155.406 154.337 157.693 154.577C160.333 154.807 162.99 154.754 165.618 154.417C167.551 154.098 171.2 152.792 174.822 152.099C179.404 150.981 184.154 150.674 188.847 151.193C193.885 152.073 194.756 151.913 200.747 156.522M220 124.604C219.809 124.604 208.617 123.992 203.252 130.573C197.888 137.154 198.051 141.231 198.596 145.707C199.14 150.183 208.508 154.713 213.383 153.887M63.6328 171.819C63.6328 171.819 74.0081 174.19 79.6179 170.62C85.2277 167.05 85.963 165.611 85.2005 160.655C84.438 155.699 78.3108 152.928 74.9613 151.489C73.0789 150.484 70.9875 149.912 68.8456 149.815C66.7036 149.718 64.5671 150.099 62.5979 150.93C58.268 153.168 52.8762 156.685 51.4329 157.218M121.393 198.595C121.393 198.595 120.168 193.959 122.074 192.307C123.98 190.655 128.664 191.668 125.124 197.902M118.208 193.614C118.208 193.614 118.97 187.859 120.713 186.74C122.456 185.621 130.435 182.184 129.182 195.533M132.423 191.827C133.894 188.874 134.543 185.592 134.302 182.315C134.053 180.625 133.205 179.074 131.906 177.934C130.606 176.794 128.938 176.138 127.194 176.08C125.712 175.957 124.224 176.232 122.89 176.875C121.556 177.518 120.426 178.506 119.624 179.731C117.978 182.892 117.05 186.364 116.9 189.909M137.896 182.555C137.896 182.555 139.476 175.84 137.896 172.75C137.312 171.484 136.412 170.382 135.28 169.544C134.148 168.707 132.819 168.16 131.415 167.954C128.369 167.235 125.159 167.613 122.374 169.019C119.243 170.778 116.438 171.178 115.512 178.425C114.981 180.984 114.779 183.597 114.913 186.205M142.554 178.904C143.998 176.051 144.484 172.824 143.943 169.685C143.593 167.836 142.868 166.075 141.811 164.506C140.754 162.936 139.386 161.589 137.788 160.546C136.108 159.256 134.175 158.317 132.11 157.786C130.045 157.254 127.89 157.142 125.779 157.455C120.55 158.547 118.317 160.626 114.886 165.661C111.455 170.697 112.98 184.312 112.98 184.312M145.958 164.197C145.901 160.556 144.487 157.059 141.982 154.366C138.088 150.982 136.862 151.701 134.057 149.037C131.253 146.372 130.762 145.973 129.319 145.919C127.746 146.02 126.222 146.496 124.88 147.305C122.974 148.131 121.749 149.623 119.978 150.582C117.449 152.117 115.337 154.229 113.824 156.737C112.018 159.843 110.749 163.218 110.066 166.729C109.553 171.809 109.81 176.936 110.829 181.943M147.127 170.778C149.229 167.334 149.883 163.227 148.951 159.32C148.08 155.009 145.545 151.192 141.871 148.663C139.492 147.2 137.345 145.405 135.499 143.334C133.843 141.294 131.44 139.966 128.799 139.63C126.554 139.98 124.442 140.898 122.672 142.295C120.466 143.867 118.016 146.318 115.646 147.624C113.486 149.124 111.637 151.014 110.2 153.192C107.855 156.467 106.635 160.385 106.714 164.383C106.192 168.44 106.582 172.559 107.858 176.453M88.7166 160.626C88.7166 160.626 90.3776 159.853 88.3897 157.775C86.4018 155.696 85.9116 155.803 85.9116 155.803M72.9484 147.413C75.9703 147.693 78.919 148.487 81.6626 149.757C84.8735 152.157 88.2492 154.338 91.7657 156.285C94.4889 157.218 99.6085 157.644 101.596 156.285C103.584 154.926 103.121 153.621 101.842 152.688C100.562 151.756 92.3648 148.079 90.9487 147.359C88.3174 146.139 85.5201 145.295 82.643 144.855C79.0177 144.576 75.3755 144.576 71.7502 144.855C68.4253 145.758 65.1753 146.907 62.0284 148.292M84.331 147.918L87.0542 149.143C88.7681 150.118 90.5314 151.007 92.3372 151.808C93.9983 152.34 96.2041 153.699 96.6126 153.486M216.571 111.308C216.571 111.308 213.848 116.93 219.294 116.637M214.008 110.428C211.227 113.653 207.979 116.463 204.367 118.768C198.921 122.392 192.276 126.948 190.397 128.413C188.518 129.879 178.225 137.552 178.034 139.284C177.843 141.016 178.334 141.949 179.94 141.576C184.287 139.345 188.456 136.797 192.413 133.955C194.455 132.224 202.706 125.109 205.266 124.15C207.826 123.191 216.867 119.754 218.174 119.434M203.769 97.5864C202.3 99.5402 200.98 101.597 199.82 103.741C198.611 105.799 198.079 108.171 198.295 110.536C198.423 111.37 198.783 112.155 199.335 112.803C199.887 113.451 200.611 113.939 201.427 114.212C203.54 114.421 205.669 113.994 207.527 112.987C208.811 112.465 209.991 111.726 211.013 110.802M188.41 93.5086C188.41 93.5086 189.853 98.4645 193.203 98.8375C196.552 99.2106 199.33 95.2405 200.446 93.5086M202.026 95.8267C198.618 98.2624 195.992 101.599 194.456 105.445C192.869 108.861 191.664 112.434 190.861 116.103C190.112 118.974 188.696 121.636 186.722 123.883M196.198 115.917C195.725 118.728 194.237 121.281 192.004 123.11C188.137 126.388 185.932 127.933 184.352 129.079C182.773 130.225 174.794 136.14 172.07 138.484C168.798 141.356 165.281 143.95 161.559 146.238C159.353 147.25 156.112 149.435 154.778 148.396C153.444 147.357 154.424 144.586 156.249 143.76C158.073 142.934 165.017 139.044 166.624 138.085C168.231 137.126 175.365 131.983 177.163 130.464C180.415 127.83 183.179 124.666 185.332 121.112C186.562 118.354 187.644 115.535 188.573 112.666C189.06 110.711 189.325 108.709 189.363 106.698M186.805 106.352C185.498 111.681 183.51 120.234 177.628 125.003C171.746 129.773 168.587 131.291 164.366 131.238C162.422 131.253 160.501 130.827 158.753 129.995C157.006 129.163 155.478 127.947 154.29 126.442C153.646 125.329 153.307 124.071 153.307 122.792C153.307 121.512 153.646 120.255 154.29 119.141C155.299 117.865 155.938 116.346 156.142 114.745C156.142 113.413 154.726 110.349 157.34 108.484C159.829 106.613 162.063 104.437 163.985 102.009C164.995 100.293 166.404 98.8325 168.097 97.7459C169.971 96.7948 171.968 96.0957 174.033 95.6677M162.294 134.41C161.559 135.662 160.388 137.341 161.532 137.634C162.676 137.927 162.921 137.5 164.963 136.221C167.005 134.943 167.959 134.463 168.53 134.037M160.39 134.036C159.594 135.789 158.589 137.444 157.394 138.965C156.06 140.351 153.228 145.227 150.832 145.626C148.435 146.026 146.393 144.427 147.645 142.802C149.307 141.314 151.102 139.976 153.01 138.805C155.048 137.216 156.477 135 157.068 132.517M154.534 131.37C154.557 132.665 154.316 133.951 153.826 135.153C153.081 136.446 152.166 137.638 151.103 138.697C150.422 139.23 148.162 140.616 147.917 139.656C147.672 138.697 149.006 136.992 149.469 136.352C150.58 134.804 151.341 133.042 151.702 131.183C151.746 130.363 151.691 129.54 151.539 128.732M148.379 132.009C148.379 132.009 146.69 133.315 145.329 134.674C143.967 136.033 142.279 137.152 141.952 138.617C141.625 140.083 141.407 142.507 143.722 142.294C144.698 142.102 145.611 141.679 146.38 141.061C147.149 140.443 147.751 139.65 148.134 138.751M146.99 130.439C145.838 130.934 144.794 131.64 143.913 132.518C142.742 133.823 140.509 136.221 140.019 136.861C139.528 137.5 136.805 139.525 136.642 136.861C137.786 134.356 138.657 134.037 140.999 132.518M137.975 132.224C136.804 133.236 135.606 133.902 135.252 132.783C135.186 132.388 135.207 131.984 135.311 131.597C135.416 131.21 135.603 130.849 135.86 130.537C136.117 130.225 136.438 129.97 136.803 129.788C137.167 129.606 137.567 129.501 137.975 129.48C140.181 129.107 141.897 130.119 143.612 129.48C146.219 127.979 148.401 125.863 149.957 123.325M173.895 92.7635C170.853 93.0565 167.872 93.7836 165.045 94.9217C163.434 95.8033 162.134 97.1408 161.314 98.7585C160.606 100.447 159.495 101.946 158.073 103.128C156.377 103.967 154.911 105.192 153.798 106.699C152.921 108.429 152.359 110.295 152.137 112.214C150.598 115.976 148.269 119.38 145.302 122.206C142.878 124.097 141.299 123.911 137.895 125.376C135.389 126.279 133.236 127.928 131.74 130.092C131.168 131.345 129.725 130.092 129.643 128.547C129.877 126.643 130.4 124.784 131.196 123.032C131.766 120.082 131.766 117.055 131.196 114.106C130.733 110.722 131.196 104.38 131.196 102.649C131.196 100.917 131.196 95.0017 134.354 93.1632C137.343 91.3713 140.556 89.9652 143.913 88.98C147.914 87.5948 151.473 85.206 154.234 82.0525C156.957 78.2957 157.393 77.0433 157.229 74.9917C157.319 73.084 157.004 71.1789 156.303 69.3964M166.624 91.2714C164.623 91.7929 162.68 92.5068 160.823 93.4029C157.889 94.9167 155.658 97.4716 154.587 100.544C151.864 103.475 151.047 104.514 149.658 106.166C149.005 108.59 147.452 111.868 146.935 113.013C146.433 115.249 145.141 117.24 143.286 118.635C140.944 119.834 136.424 122.872 135.28 122.419C135.007 120.58 135.743 119.195 138.738 117.09C141.067 115.345 142.657 112.822 143.204 110.002C143.803 107.764 145.383 104.221 146.173 101.849C147.876 97.4189 151.037 93.6692 155.159 91.1914C159.113 88.1494 162.543 84.506 165.317 80.4004C168.557 75.8708 175.501 69.7427 176.645 67.6644C178.152 64.7951 179.392 61.7988 180.349 58.7119C181.018 56.4925 182.18 54.4452 183.753 52.7169M188.411 51.2517C187.298 52.409 186.379 53.7308 185.688 55.1684C185.138 56.1098 184.85 57.1751 184.85 58.2591C184.85 59.3432 185.138 60.4084 185.688 61.3499C186.482 62.0108 187.453 62.435 188.486 62.572C189.519 62.7089 190.57 62.553 191.515 62.1226C193.913 60.8789 196.137 59.3386 198.133 57.5397M200.528 60.5526C200.528 60.5526 195.68 64.1229 198.131 66.0146M181.602 62.1497C181.602 62.1497 181.466 65.2938 186.286 65.427M193.395 68.5978C189.99 69.6377 186.668 70.92 183.455 72.4346C179.86 74.2997 176.048 76.0582 174.359 79.149C172.671 82.2397 169.349 84.3447 176.729 90.1265M170.057 89.1652C170.057 89.1652 167.334 86.3409 167.633 84.8222C168.041 81.54 169.646 78.5124 172.154 76.296C174.479 74.0049 177.119 72.041 179.997 70.4609C182.96 69.1414 185.997 67.985 189.092 66.9971M178.554 53.0349C177.417 55.7165 176.088 58.3163 174.578 60.815C173.121 62.9103 171.273 64.7182 169.131 66.1439C167.768 67.1516 166.166 67.8028 164.474 68.0359C162.783 68.269 161.058 68.0764 159.464 67.4761C155.27 65.5045 155.706 65.611 154.862 64.8117M168.941 70.8887C168.941 70.8887 163.168 76.0844 162.787 78.882M164.882 70.5671C164.234 70.8059 163.667 71.2164 163.243 71.7529C162.82 72.2894 162.558 72.9305 162.486 73.6045M160.198 74.0848C160.546 76.1634 160.33 78.2951 159.571 80.2663C157.889 82.8593 155.876 85.232 153.58 87.3271C150.995 89.6477 148.019 91.5136 144.784 92.8425C142.213 93.8493 139.809 95.223 137.65 96.9191C136.304 98.1219 135.42 99.7392 135.144 101.502M141.381 98.4644C141.381 98.4644 138.059 101.262 137.65 102.834C137.185 104.41 136.866 106.024 136.697 107.657M135.853 115.758C135.853 115.758 137.487 112.215 138.168 110.43C138.943 108.246 139.852 106.111 140.891 104.035C141.758 102.321 142.798 100.697 143.996 99.1856C145.059 97.9235 146.205 96.7309 147.427 95.6153M50.1254 154.924C52.1591 152.422 54.3899 150.079 56.7973 147.917C59.6058 144.926 63.4275 143.033 67.5539 142.588C72.4202 141.261 77.5283 141.015 82.5042 141.869C88.9854 142.588 94.3774 145.919 97.4818 147.038C100.586 148.157 104.072 149.196 105.216 147.197C106.36 145.199 105.542 143.947 102.928 142.215C99.6179 139.708 95.7745 137.959 91.6815 137.099C85.8422 135.737 79.9073 134.802 73.9262 134.302C68.0024 133.542 62.0363 133.142 56.062 133.103C51.0388 133.631 46.1955 135.231 41.8741 137.792C39.4303 138.782 37.2369 140.282 35.4473 142.188M38.2541 142.483C39.5514 141.491 40.9263 140.6 42.3661 139.818C44.2162 138.615 46.3811 137.958 48.6023 137.926C50.8625 138.166 52.0063 138.086 53.2589 140.191C53.7474 140.826 54.078 141.564 54.2245 142.345C54.3711 143.127 54.3295 143.931 54.1031 144.694M57.3428 143.841C57.7422 143.535 58.0738 143.153 58.3173 142.718C58.5607 142.283 58.7111 141.804 58.7589 141.31C58.9223 139.631 58.3504 137.713 54.7013 136.727M26.4336 147.596C26.4336 147.596 29.647 144.932 28.9117 142.267C28.1765 139.603 24.1462 138.963 22.2944 138.963M49.5272 130.812C51.9721 130.363 54.3902 129.785 56.771 129.08C59.5677 128.088 62.4909 127.478 65.458 127.268C69.584 127.439 73.6439 128.342 77.44 129.933C80.9029 131.063 84.4684 131.866 88.0878 132.331C92.774 133.777 97.3285 135.604 101.704 137.793C103.746 138.805 108.212 142.269 109.873 140.457C110.174 140.171 110.404 139.821 110.544 139.434C110.684 139.048 110.731 138.634 110.681 138.227C110.631 137.819 110.485 137.429 110.255 137.085C110.025 136.742 109.718 136.455 109.356 136.247C106.102 134.275 102.675 132.59 99.1167 131.211C94.106 129.346 88.9592 126.842 83.5672 124.87C79.4678 123.171 75.0567 122.31 70.6048 122.339C65.7193 122.527 60.8986 123.499 56.3352 125.216M57.8884 122.154C57.8884 122.154 60.1214 121.195 60.3937 119.809C60.666 118.424 60.5299 118.264 58.9232 116.772M51.4315 125.484C52.4895 124.444 53.3473 123.225 53.9641 121.887C54.8143 120.127 54.9411 118.114 54.3181 116.265C53.77 115.365 53.0189 114.6 52.1221 114.027C51.2254 113.454 50.2067 113.09 49.144 112.961C47.0842 112.813 45.0143 113.048 43.044 113.654M28.1516 136.727L35.123 134.062C37.9532 133.16 40.6256 131.839 43.0475 130.145C45.3838 128.752 47.434 126.945 49.093 124.817C49.6508 124.049 49.9837 123.147 50.0557 122.208C50.1277 121.269 49.936 120.328 49.5015 119.488C49.0132 118.628 48.3249 117.893 47.4923 117.342C46.6596 116.791 45.706 116.44 44.7087 116.317C42.2662 116.052 39.7949 116.215 37.4105 116.797C36.4759 116.925 35.5612 117.167 34.6873 117.516M20.1173 122.018C20.1173 122.018 21.2337 122.018 21.152 120.153C21.0703 118.288 20.1717 115.57 14.2896 113.892M25.0195 120.153C25.1489 119.185 25.0491 118.202 24.728 117.278C24.4069 116.354 23.8732 115.514 23.1678 114.824C26.0453 115.033 28.9384 114.871 31.7731 114.345C33.8037 113.929 35.791 113.331 37.7097 112.559C40.3125 111.285 42.8156 109.825 45.1985 108.19C46.7755 106.803 48.2582 105.316 49.6373 103.74M25.0186 111.948C29.9623 111.517 34.7678 110.122 39.152 107.845C44.2171 104.568 46.0961 102.889 47.3216 99.8519C48.1993 98.2752 48.4595 96.4395 48.0535 94.6886C47.6475 92.9376 46.6031 91.3915 45.1158 90.3398C41.603 87.5 37.1421 86.0293 32.5891 86.21C26.2511 86.961 20.0902 88.7631 14.3708 91.5389M22.4864 85.1177C25.2378 83.8061 28.1755 82.9078 31.2006 82.4533C34.6464 82.1543 38.1187 82.379 41.4943 83.1194C43.9833 83.9785 46.6578 84.1897 49.2554 83.7322C51.9786 83.1194 51.2434 81.4408 50.5626 81.0677C49.0704 80.3636 47.4254 80.0253 45.7697 80.0819M50.3702 90.8457C50.3166 90.0101 50.0031 89.2106 49.4716 88.5543C48.2835 86.6588 46.6959 85.0328 44.8149 83.785M54.7567 110.775C57.1144 112.802 59.6785 114.588 62.4088 116.104C64.778 117.036 65.132 118.395 70.1699 118.395C74.3605 118.773 78.4967 119.595 82.506 120.846C89.0948 122.892 95.5593 125.302 101.868 128.067C107.042 130.731 112.107 135.074 114.095 135.554C116.083 136.034 118.507 136.7 118.752 135.74C117.711 133.511 116.176 131.536 114.259 129.959C111.722 128.103 108.982 126.53 106.089 125.269C99.7747 122.346 93.281 119.81 86.6453 117.676C80.2186 116.024 71.4771 114.345 68.5905 112.826C65.7039 111.308 58.8142 105.979 57.3437 102.009C55.8731 98.0386 52.6325 90.1785 57.3437 83.4907C62.0548 76.803 63.6887 72.833 68.7266 70.0087C74.5749 66.1705 81.0092 63.2656 87.789 61.4025C97.3202 60.6299 121.203 60.0437 128.637 62.0687C136.071 64.0936 142.743 67.7173 145.494 70.8347C148.244 73.952 148.653 76.6698 146.801 77.5757C143.553 79.0607 140.182 80.273 136.725 81.1994C133.772 81.7842 131.023 83.1059 128.746 85.0362M151.756 66.4117C151.756 66.4117 154.698 70.7547 154.289 73.0994C153.881 75.4442 153.962 77.0428 151.566 78.9346C149.453 80.841 147.144 82.5287 144.676 83.9704C140.543 85.7909 136.186 87.0805 131.714 87.8071C127.111 89.539 126.403 90.2584 126.022 91.1644C125.641 92.0703 124.443 93.2426 126.458 97.7455C126.757 99.9037 125.287 101.289 125.178 102.222C125.385 103.779 125.855 105.291 126.567 106.698C126.11 108.751 125.387 110.739 124.416 112.613C125.096 114.745 127.139 117.089 126.54 118.875C125.129 120.906 123.838 123.014 122.673 125.189C122.673 127.854 123.816 132.143 125.913 130.811C126.208 127.723 127.134 124.724 128.636 121.992M133.648 76.2438C131.696 76.425 129.823 77.0848 128.201 78.1622C124.579 80.1605 122.292 81.999 122.482 88.6068M121.72 97.1862C120.856 94.3903 119.561 91.7397 117.88 89.3261C117.363 88.1005 115.157 82.4785 116.873 80.1072C118.455 77.0321 121.155 74.6467 124.443 73.4194C126.3 72.6507 128.295 72.2546 130.312 72.2546C132.328 72.2546 134.323 72.6507 136.18 73.4194M121.228 103.315C120.25 101.254 118.883 99.3915 117.198 97.8267C114.735 95.8518 112.531 93.5878 110.635 91.0857C109.137 88.9275 107.34 83.8651 108.565 81.0408C109.884 77.444 112.239 74.2978 115.346 71.9817C118.031 69.8507 121.299 68.5437 124.741 68.2248C128.035 67.6912 131.416 68.2146 134.381 69.7169M121.829 65.6131C119.338 66.2354 116.905 67.0644 114.558 68.0911C111.141 70.1783 107.948 72.5975 105.027 75.3118C103.358 77.3517 101.975 79.6008 100.915 81.9994C100.397 83.8646 98.1916 88.2076 101.16 91.9112C103.124 94.5587 105.651 96.7585 108.567 98.3592C110.664 99.4249 115.974 101.69 117.662 103.688C118.881 104.905 119.811 106.369 120.386 107.978M120.848 116.37C120.298 114.217 119.377 112.171 118.124 110.322C115.867 107.696 112.891 105.755 109.546 104.726C105.085 103.3 100.951 101.037 97.3735 98.0651C95.9302 96.3332 92.4445 94.2016 92.2812 90.3116C91.8886 86.7867 92.9142 83.2509 95.1405 80.4532C97.2101 78.5614 99.8788 74.2716 101.921 72.8595C105.663 69.6932 109.914 67.1543 114.502 65.3457M119.813 120.686C118.866 118.62 117.578 116.721 116 115.064C113.742 113.242 111.218 111.76 108.512 110.668C106.306 109.522 99.5794 106.831 94.7321 103.927C91.7865 102.346 89.3311 100.017 87.6245 97.1858C86.4107 95.5511 85.6038 93.6617 85.2681 91.6679C84.9324 89.6742 85.0773 87.6313 85.6911 85.7021C87.0286 82.3185 89.0686 79.2429 91.6822 76.6696C94.0987 74.1813 96.7522 71.924 99.6067 69.9285C102.718 68.027 105.988 66.387 109.383 65.026M105.435 64.2021C97.8137 66.4699 90.7886 70.334 84.8475 75.526C82.2333 78.707 80.2143 82.3151 78.8837 86.1838C78.7337 89.3113 79.2357 92.436 80.3593 95.3676C81.4829 98.2992 83.2045 100.976 85.4194 103.236C89.2001 106.866 93.6188 109.8 98.4635 111.896C101.895 113.148 105.898 115.146 109.193 116.292C111.458 117.083 113.518 118.35 115.231 120.002C116.943 121.654 118.265 123.653 119.105 125.857M114.886 125.242C112.173 123.113 109.2 121.323 106.035 119.913C102.631 118.794 99.5542 116.849 94.9248 115.251C91.391 113.936 88.0635 112.142 85.0396 109.922C81.1278 107.751 77.7746 104.734 75.236 101.102C71.8593 95.7735 71.1513 92.0433 71.6959 89.4321C72.0181 85.4125 73.4693 81.5581 75.8896 78.2948C78.3863 75.1769 81.2883 72.3911 84.5222 70.0083C87.984 67.9159 91.5564 66.0037 95.2243 64.2798M82.8872 66.2256C82.8872 66.2256 78.1216 69.2098 76.2154 70.5953C73.1234 72.8727 70.3734 75.5634 68.0458 78.5886C65.7677 81.7252 64.1056 85.2488 63.144 88.9799C62.8445 92.2572 63.3891 99.2114 67.5283 103.075C71.7141 107.648 77.0875 111.027 83.0779 112.853M4.37682 91.6984C5.15424 91.065 5.77753 90.2699 6.20149 89.3712C6.62545 88.4724 6.83939 87.4925 6.82769 86.5027C6.5009 83.5718 3.75043 82.3196 1 81.467M4.26839 95.6937C6.01931 93.435 7.97921 91.339 10.1233 89.4322C13.4147 86.8071 16.8511 84.361 20.4169 82.105C24.9801 78.9616 30.4714 77.3703 36.0481 77.5754C40.2868 77.731 44.5277 77.3278 48.6565 76.3765C56.1026 73.9232 62.9856 70.0671 68.9171 65.0259C78.2305 59.5372 82.2336 56.6596 92.2277 56.5264C102.222 56.3931 109.411 55.2741 112.706 55.4073C117.934 55.221 123.152 55.989 128.092 57.6721C132.712 59.2913 137.083 61.5236 141.082 64.3065M2.22611 78.3228C4.4044 79.4018 6.81037 79.9676 9.25193 79.9748C12.8411 80.1174 16.4165 79.4615 19.709 78.0564C23.2514 76.0851 27.1567 74.8174 31.2009 74.3261C35.3674 74.1662 37.4643 74.3262 41.7125 74.1397C45.9607 73.9531 47.5674 74.1397 49.6915 72.8074M1.57058 74.4332C1.57058 74.4332 2.82322 76.4582 9.19551 76.5115C15.5678 76.5648 16.1669 76.1385 18.2637 74.6198C20.4586 72.9815 21.961 70.6106 22.4847 67.9587C22.6732 66.4868 22.497 64.9921 21.9709 63.6009C21.4448 62.2097 20.5842 60.9627 19.4619 59.9653C16.8592 57.5675 13.8448 55.6373 10.5571 54.2634M38.6352 71.0224C37.3528 70.933 36.1024 70.5893 34.9601 70.0121C33.8178 69.435 32.8075 68.6365 31.9906 67.6652C30.3241 64.7982 28.3426 62.1179 26.0813 59.6719C22.0525 56.4242 17.5325 53.8085 12.6831 51.9183M12.792 48.9333C15.21 50.4629 18.1109 51.0873 20.9616 50.6918C24.3968 50.2291 27.6217 48.8041 30.2478 46.5886M33.487 48.6934C32.223 50.5673 31.3529 52.6686 30.9273 54.8749C30.8666 58.5288 32.0872 62.0927 34.3857 64.9731M35.3929 51.8388C34.5177 53.6095 34.1686 55.5852 34.3853 57.5407C34.6497 59.8289 35.6159 61.9851 37.1567 63.7258C38.6976 65.4664 40.7408 66.7099 43.0178 67.2925C50.1798 69.2109 58.9214 69.0244 64.4495 63.6156C66.324 62.0999 67.615 60.0048 68.11 57.6753C68.605 55.3458 68.2744 52.9208 67.1727 50.7996C66.0277 48.9355 64.4745 47.343 62.6249 46.1369M143.125 61.5381C143.125 61.5381 141.001 57.3017 142.063 55.4632C143.289 53.3331 145.205 51.664 147.51 50.7205M136.178 57.2986C136.178 57.2986 139.528 55.4335 140.018 54.4476C140.481 52.4548 140.231 50.3668 139.31 48.5326M131.715 56.0471C131.715 56.0471 134.629 56.0471 135.691 54.3685C136.345 53.4397 136.694 52.3387 136.694 51.2111C136.694 50.0836 136.345 48.9826 135.691 48.0538M131.224 46.7494C131.882 47.7096 132.31 48.8024 132.477 49.9467C132.477 51.2522 131.96 54.1565 127.575 54.8759M122.047 53.7282C122.047 53.7282 129.508 52.0762 124.579 45.575M119.104 45.1486C119.104 45.1486 124.551 49.5449 117.879 53.5682M113.277 53.5426C113.277 53.5426 117.226 51.0913 114.476 45.8424M111.236 46.3501C111.63 48.5515 111.452 50.8147 110.718 52.9312M107.833 46.7494C107.833 46.7494 104.565 50.4796 107.424 53.2506M102.957 53.9689C102.459 53.6977 102.032 53.3178 101.709 52.8588C101.386 52.3998 101.175 51.874 101.093 51.3223C101.012 50.7706 101.061 50.2079 101.238 49.678C101.415 49.148 101.714 48.6652 102.113 48.267M97.8903 48.8253C97.8903 48.8253 93.9961 52.5022 98.326 55.0867M92.4994 50.1857C92.4994 50.1857 88.7686 53.3297 93.1529 54.8485M87.6537 51.7557C87.6537 51.7557 84.9304 53.9939 88.8246 55.3794M83.4306 52.2905C83.4306 52.2905 81.1976 54.2888 84.6016 56.527M26.3265 65.586C26.1801 66.8229 26.5046 68.0691 27.238 69.0866C27.9715 70.1041 29.0625 70.8214 30.3024 71.1014M70.5489 59.2195C70.5489 59.2195 72.8636 53.3844 70.4127 49.4676C69.4934 47.5287 67.9995 45.9051 66.125 44.8075C64.2505 43.7099 62.082 43.1891 59.9011 43.3128M74.935 57.2705C75.3275 56.229 75.4208 55.1021 75.2048 54.0123C74.9887 52.9225 74.4716 51.9115 73.7096 51.0891M78.121 54.3975C78.0721 53.1027 77.6669 51.8449 76.9479 50.7568C76.2289 49.6688 75.2229 48.7909 74.0362 48.216C71.6578 46.9789 69.6637 45.1382 68.263 42.8871C66.7472 40.5006 66.0861 37.6884 66.384 34.8938M56.1711 41.1788C56.1711 41.1788 61.3452 38.7275 62.026 36.6226C62.439 35.3953 62.6054 34.1015 62.5161 32.8124M69.3518 34.8938C69.3847 37.602 70.3903 40.2126 72.1926 42.2683C73.995 44.324 76.479 45.6938 79.2097 46.1377C89.2311 48.136 90.1025 44.8588 91.0284 42.3275C91.6695 40.6066 91.6695 38.7196 91.0284 36.9987M92.4171 45.1505C93.3272 44.0303 93.9275 42.6998 94.16 41.287C94.4419 40.018 94.3337 38.6957 93.8491 37.4867C93.3646 36.2777 92.5252 35.236 91.4368 34.4927C90.3812 33.6187 89.2717 32.809 88.1145 32.0681M94.3232 34.2803C94.3232 34.2803 91.5999 30.923 89.1763 30.6299M79.8919 48.8282C83.4948 49.4519 87.1817 49.4519 90.7847 48.8282C95.8498 47.7358 100.316 45.3112 105.272 44.6451C112.543 43.4827 119.914 43.0364 127.276 43.3128C134.002 43.979 136.398 45.6575 139.666 45.5776C142.934 45.4977 142.553 45.7375 144.268 45.5776M144.05 49.8373C145.923 47.8187 148.515 46.5792 151.294 46.3736M150.286 43.125C147.13 43.9615 143.803 43.9615 140.646 43.125C139.517 42.7479 138.476 42.1553 137.583 41.3816C136.689 40.6078 135.962 39.6683 135.443 38.6174C134.923 37.5665 134.623 36.4253 134.558 35.2598C134.492 34.0943 134.664 32.9278 135.064 31.8278M138.983 38.8613C140.731 39.3263 142.428 39.96 144.048 40.753M125.586 40.4608C125.586 40.4608 129.889 37.3967 130.325 36.0112C130.74 34.0454 131.332 32.1195 132.095 30.256C133.409 28.1179 135.292 26.3683 137.541 25.1936M121.639 39.822C121.639 39.822 127.602 35.6388 127.085 31.8287C127.142 30.6566 126.801 29.499 126.117 28.5355C125.433 27.5719 124.442 26.8564 123.3 26.4998M117.063 40.4592C118.215 39.5672 119.174 38.46 119.884 37.2022C120.595 35.9443 121.043 34.5607 121.202 33.1319C121.395 31.7788 121.184 30.4 120.594 29.1615C120.005 27.923 119.062 26.8776 117.88 26.1511M113.986 40.2222C115.603 37.9905 116.547 35.3594 116.71 32.6285C116.847 31.5944 116.737 30.5432 116.387 29.5581C116.037 28.573 115.458 27.6812 114.694 26.9533M112.352 28.5233C112.524 32.2924 112.405 36.0688 111.998 39.8206M109.901 28.2848C108.52 30.0197 107.544 32.0296 107.041 34.1732C107.041 36.3847 106.306 38.6495 110.718 42.1666M105.788 42.4056C105.788 42.4056 101.186 39.9276 101.295 36.1441C101.33 34.7 101.719 33.2853 102.43 32.0193C103.141 30.7533 104.153 29.6733 105.38 28.8702M98.8455 31.8278C98.8455 31.8278 95.033 38.1425 99.9892 41.3931M100.804 28.5223C100.804 28.5223 104.644 26.8437 105.951 26.151C107.926 24.9 110.111 23.9981 112.405 23.4865C114.871 23.3265 117.346 23.3265 119.812 23.4865C123.683 24.0049 127.601 24.1032 131.495 23.7796C133.273 23.72 135.015 23.2644 136.587 22.4474M136.672 20.1831C135.247 21.0046 133.613 21.4113 131.96 21.3554C129.237 21.3554 126.514 20.7959 125.234 17.7851C124.779 16.8368 124.581 15.7902 124.657 14.7454C124.733 13.7005 125.082 12.6922 125.67 11.8167M125.151 21.5698C125.151 21.5698 119.16 16.241 123.354 11.2585M118.018 11.3651C118.018 11.3651 123.192 14.2427 118.698 20.4242M116.546 19.437C117.4 18.3304 117.935 17.0192 118.093 15.6409C118.251 14.2626 118.027 12.868 117.444 11.6035M114.339 19.7844C115.267 18.5596 115.686 17.0361 115.51 15.5212C115.238 12.8568 115.02 12.8568 114.339 11.9775M113.195 13.5765C112.888 15.5609 112.842 17.5756 113.059 19.5715M112.163 21.0643C112.163 21.0643 107.615 16.4814 111.945 12.3515M108.703 14.6406C107.938 15.7428 107.588 17.0704 107.712 18.3968C107.837 19.7232 108.427 20.9665 109.383 21.9146M100.152 25.8859C101.239 24.7872 101.937 23.3763 102.143 21.8606C102.349 20.3449 102.052 18.8046 101.296 17.4663M103.12 25.46C104.184 23.6235 104.747 21.5496 104.754 19.4383C104.454 16.7739 102.03 15.2552 101.295 14.1094M105.954 14.6406C105.271 15.9963 105.046 17.5291 105.31 19.0181C105.574 20.5072 106.315 21.8758 107.425 22.927M103.502 11.8172C103.502 11.8172 108.785 9.15279 109.847 6.67486M108.511 11.3642C109.563 9.99855 110.975 8.93922 112.596 8.30014C114.503 7.95376 116.218 8.64651 118.342 8.46C120.466 8.27349 123.489 7.79389 124.469 6.46166M115.322 1C116.166 1.4796 116.656 1.69276 116.765 1.9592M114.339 3.45138C114.339 3.45138 116.191 3.29151 116.763 3.98426M115.322 5.34332C115.726 5.36953 116.119 5.4836 116.472 5.67718C116.825 5.87077 117.13 6.139 117.364 6.46238M118.588 2.91872C118.759 3.55937 119.102 4.14383 119.581 4.61209C120.059 5.08035 120.657 5.41552 121.311 5.58316C123.463 6.0894 124.334 5.84961 124.661 5.58316" stroke="black" stroke-width="1.3" stroke-miterlimit="10"/>
</svg>
