<svg width="33" height="33" viewBox="0 0 33 33" fill="none" xmlns="http://www.w3.org/2000/svg">
<rect width="33" height="33" rx="5.70302" fill="#333333"/>
<path fill-rule="evenodd" clip-rule="evenodd" d="M26.1287 11.748C26.2681 11.3118 26.1287 10.9912 25.465 10.9912H23.2702C22.7122 10.9912 22.4549 11.2681 22.3154 11.5735C22.3154 11.5735 21.1992 14.1255 19.6181 15.7832C19.1066 16.263 18.8741 16.4157 18.595 16.4157C18.4555 16.4157 18.2536 16.263 18.2536 15.8268V11.748C18.2536 11.2245 18.0916 10.9912 17.6265 10.9912H14.1776C13.8289 10.9912 13.6192 11.2342 13.6192 11.4644C13.6192 11.9607 14.4097 12.0751 14.4912 13.4711V16.503C14.4912 17.1677 14.3632 17.2882 14.0842 17.2882C13.3402 17.2882 11.5303 14.7248 10.4569 11.7916C10.2465 11.2215 10.0355 10.9912 9.4746 10.9912H7.27984C6.65276 10.9912 6.52734 11.2681 6.52734 11.5735C6.52734 12.1188 7.27141 14.8235 9.99186 18.4006C11.8055 20.8435 14.3608 22.1677 16.6859 22.1677C18.081 22.1677 18.2536 21.8736 18.2536 21.367V19.5206C18.2536 18.9324 18.3858 18.815 18.8276 18.815C19.1531 18.815 19.7111 18.9677 21.0133 20.1455C22.5014 21.5415 22.7467 22.1677 23.5837 22.1677H25.7785C26.4056 22.1677 26.7191 21.8736 26.5382 21.2932C26.3403 20.7147 25.6298 19.8754 24.6871 18.8804C24.1755 18.3133 23.4082 17.7026 23.1757 17.3972C22.8501 17.0046 22.9432 16.8301 23.1757 16.4811C23.1757 16.4811 25.8497 12.9476 26.1287 11.748Z" fill="white"/>
</svg>
