<svg width="26" height="34" viewBox="0 0 26 34" fill="none" xmlns="http://www.w3.org/2000/svg">
<path d="M13.7673 33.2335C13.7673 33.2335 13.8792 32.3209 14.9051 32.6708M13.898 32.5095C13.977 32.3909 14.1003 32.3073 14.2415 32.2766C14.3827 32.2459 14.5305 32.2705 14.6534 32.3452M14.016 31.8126C14.0773 31.8956 14.1506 31.9694 14.2337 32.0316M15.1755 32.2235C15.1461 32.2758 15.1331 32.3354 15.1381 32.3949C15.1431 32.4544 15.1658 32.5112 15.2035 32.5581M14.9892 32.0318C14.4918 31.8462 14.3177 31.834 14.2338 31.396C14.2058 30.891 14.2617 30.672 14.47 30.5777C14.6669 30.4407 14.8955 30.3539 15.1353 30.3252C15.4258 30.3782 15.6988 30.4993 15.9311 30.678M14.7467 30.8454C14.8207 30.8024 14.9041 30.7773 14.9901 30.772C15.076 30.7667 15.162 30.7814 15.2409 30.815M16.3442 30.3982C16.3442 30.3982 16.2479 30.1701 16.4717 30.1123M16.1767 30.5228C16.1767 30.5228 15.7633 30.0756 16.1923 29.957M14.3704 30.2948C14.5296 30.1373 14.7358 30.0333 14.9592 29.9978C15.1827 29.9622 15.4119 29.997 15.6139 30.0971M13.6897 33.6531C13.6897 33.6531 13.2949 32.9656 13.6026 32.4362C13.7447 32.1625 13.7758 31.8463 13.6897 31.551C13.7534 31.2095 13.7908 30.8637 13.8016 30.5167C13.8016 30.1882 13.8016 29.6802 14.0099 29.3912C14.0752 28.8558 14.1218 28.8862 13.9197 28.0618C13.8737 27.4668 13.923 26.8684 14.0658 26.2883C14.1777 26.0084 14.6067 25.2358 14.6596 25.1262M14.078 30.0786C14.2752 29.6392 14.4191 29.1788 14.507 28.7067C14.4716 28.3815 14.3997 28.0612 14.2925 27.7515C14.3151 27.1961 14.4112 26.646 14.5785 26.1149C14.7122 25.8593 14.9143 25.5065 15.1785 25.8624C15.4427 26.2183 15.5982 26.4069 15.9152 26.4708M14.6657 29.3214C14.6727 29.4443 14.7235 29.5609 14.8093 29.651C14.895 29.741 15.0103 29.7988 15.1351 29.8142M15.8158 29.7229C15.6606 29.7412 15.5034 29.7167 15.3617 29.6522C15.22 29.5877 15.0995 29.4858 15.0138 29.3579C14.9392 28.859 14.9827 28.6521 14.9143 28.3814C14.8459 28.1106 14.6811 27.7456 14.8335 27.4688C14.9858 27.192 15.3277 26.6718 15.0822 26.4619C14.7899 26.5136 14.619 26.9729 14.6096 27.2406M15.1351 28.8283C15.2577 28.6974 15.3234 28.5251 15.3186 28.3477C15.3186 28.0161 15.1818 28.2017 15.1507 27.7697C15.1693 27.3347 15.3932 26.8175 15.7911 26.8084C15.9884 26.8843 16.1577 27.0166 16.2769 27.1881C16.3961 27.3596 16.4598 27.5623 16.4594 27.7697M17.0312 27.636C17.0198 27.5882 17.0203 27.5384 17.0328 27.4908C17.0453 27.4433 17.0694 27.3994 17.103 27.3629C17.1366 27.3264 17.1787 27.2985 17.2258 27.2814C17.2728 27.2643 17.3234 27.2586 17.3732 27.2649M16.7333 27.4505C16.7333 27.4505 16.5374 27.0976 16.6182 26.9516C16.7861 26.8481 16.9073 26.9333 17.0783 27.0398M15.0388 25.2299C15.0388 25.2299 14.756 24.7584 15.1725 24.5606C15.4243 24.731 15.3684 25.093 15.3622 25.169C15.4303 25.4374 15.5506 25.6905 15.7165 25.9143M16.3723 26.3249C16.1062 26.0664 15.8995 25.7552 15.7661 25.4123C15.6971 25.0705 15.6596 24.7233 15.6542 24.375C15.6044 24.1316 15.6324 23.8517 15.8469 23.8791C16.0614 23.9065 16.0459 24.2198 16.0552 24.3841C16.0561 24.5073 16.0654 24.6302 16.0832 24.7522M16.6584 26.3252C16.6584 26.3252 16.1703 25.8171 16.4097 25.3182C16.7672 25.0566 16.9257 25.0931 17.3734 25.3791C17.821 25.665 17.7806 26.1213 17.8832 26.2917M16.6242 24.5606C16.6242 24.5606 16.2356 24.0161 16.5433 23.8488C16.8822 23.9035 16.7516 24.0526 17.1122 24.6397C17.7495 25.2998 17.9081 25.4915 18.0044 25.9843M18.2751 26.4191C18.2751 26.4191 18.2284 26.0449 18.4087 25.9415C18.4833 25.9119 18.564 25.9003 18.6441 25.9077C18.7242 25.9151 18.8013 25.9413 18.8688 25.9841M18.6636 26.6202C18.6664 26.5776 18.6784 26.5361 18.6988 26.4983C18.7191 26.4605 18.7474 26.4273 18.7817 26.4009C18.816 26.3745 18.8556 26.3555 18.8979 26.345C18.9402 26.3346 18.9843 26.333 19.0273 26.3404M18.4707 25.4793C18.069 25.1876 17.7798 24.7717 17.65 24.299C17.4448 23.5203 17.4976 23.3712 17.1122 23.3073C16.9101 23.4351 17.0034 23.6724 17.1806 23.9614M17.9671 24.4145C18.0442 24.1006 18.0068 23.7703 17.8614 23.4806C17.6313 23.2524 17.5505 23.1155 17.622 22.9695C17.6766 22.9231 17.7434 22.8926 17.8148 22.8813C17.8862 22.87 17.9594 22.8784 18.0261 22.9056C18.1629 22.9391 18.3588 23.1885 18.4085 23.2098M19.1577 25.7925C19.1577 25.7925 18.3712 25.3332 18.3059 24.74C18.3774 24.1133 18.567 23.7574 19.1577 23.6449C19.6184 23.5486 20.0993 23.6327 20.4975 23.8791C20.6787 23.9936 20.8456 24.1283 20.9949 24.2806M21.8248 23.6448C21.8248 23.6448 21.3865 23.6448 21.4331 24.2714M20.3858 23.4808C20.205 23.2575 19.9413 23.1132 19.6521 23.0793C19.3344 22.9885 19.0538 22.8022 18.8501 22.5469C18.5392 22.2701 18.3683 22.1454 18.1817 22.1454C17.9952 22.1454 17.7341 22.48 18.3061 22.7142M19.3566 22.4587C19.2385 22.1957 19.0672 21.9587 18.853 21.7621C18.5421 21.5157 18.2313 21.2845 18.1909 21.4762C18.1677 21.5392 18.1664 21.6079 18.1872 21.6717C18.208 21.7355 18.2497 21.7908 18.3059 21.829M20.7433 23.2493C20.3758 23.023 20.0349 22.7578 19.7267 22.4584C19.5589 22.212 19.2169 21.3389 18.5454 21.0925C17.9734 20.8674 18.2594 20.6484 18.3714 20.6088C18.5839 20.6896 18.7822 20.8025 18.9589 20.9435C19.1252 21.0564 19.3223 21.1179 19.5247 21.1199M19.6395 20.7612C19.45 20.5923 19.2219 20.4703 18.9743 20.4053C18.7007 20.3871 18.4396 20.3414 18.3961 20.2106C18.3843 20.1757 18.3799 20.1388 18.3833 20.1021C18.3867 20.0655 18.3978 20.0299 18.4159 19.9977C18.434 19.9654 18.4587 19.9372 18.4884 19.9147C18.5182 19.8922 18.5524 19.8759 18.5888 19.8669C18.7629 19.8365 19.0116 19.9673 19.2976 20.1985L19.5432 20.378M21.1691 23.0153C20.7704 22.9016 20.4119 22.6814 20.1339 22.3795C19.9194 21.8046 19.9039 21.6677 19.994 21.4061C20.0842 21.1444 20.2085 21.1019 20.1401 20.7429C20.1118 20.5714 20.1373 20.3955 20.2134 20.2385C20.2894 20.0815 20.4124 19.9509 20.566 19.8638C20.6593 19.4865 20.7494 19.1032 21.1691 18.9816C21.8274 18.7868 22.5377 18.8535 23.1462 19.1671M19.879 19.7755C19.712 19.613 19.492 19.5129 19.2573 19.4926C18.9309 19.444 18.5578 19.4744 18.592 19.158C18.7537 18.8538 18.9526 18.8873 19.2977 18.9025C19.757 18.9534 20.222 18.9141 20.6655 18.7869C21.0479 18.6196 22.0893 18.0598 23.6001 18.9116M24.2591 19.4011C24.41 19.1996 24.6301 19.058 24.8789 19.0021C25.1278 18.9462 25.3889 18.9799 25.6145 19.0969M13.2078 33.0083C13.1767 32.7816 13.2146 32.5509 13.3166 32.3451C13.4844 32.0561 13.2917 31.6059 13.3166 31.4082C13.373 31.0826 13.3845 30.7511 13.3508 30.4225C13.4031 30.0728 13.5079 29.7324 13.6616 29.4126C13.7827 29.0342 13.755 28.6252 13.5839 28.2657C13.5477 27.6502 13.5612 27.0327 13.6243 26.4192C13.6896 26.2519 13.8699 25.464 13.9849 25.1324C14.1 24.8009 14.4357 24.0282 14.0875 23.9886C13.9027 24.0272 13.7284 24.1042 13.5766 24.2144C13.4248 24.3246 13.299 24.4655 13.2078 24.6275C13.0679 24.8678 12.8472 25.6678 12.6358 26.0785C12.4244 26.4892 12.0949 27.198 11.3923 27.414M12.9467 33.4311C12.8626 33.3166 12.8044 33.186 12.7757 33.0478C12.7891 32.8429 12.767 32.6372 12.7104 32.4394C12.6145 32.251 12.5716 32.041 12.5861 31.831C12.5861 31.5846 12.4586 31.4751 12.3995 31.3352C12.3489 31.0908 12.3219 30.8423 12.3187 30.5929C12.297 30.3556 12.185 30.2887 12.1508 30.0758C12.1167 29.8628 12.1757 29.2118 12.1042 28.9046C12.0327 28.5973 11.9892 28.2962 11.7094 28.1258C11.4831 27.9523 11.2159 27.8373 10.9323 27.7912C10.7138 27.7883 10.4988 27.844 10.3105 27.9524M12.8594 32.9262C12.9386 32.8654 13.0134 32.7993 13.0832 32.7285M12.816 32.2814C12.8966 32.1598 13.0025 32.0561 13.1269 31.9772M12.816 31.7672C12.8749 31.6312 12.9666 31.5111 13.0833 31.4174M12.7102 31.2348C12.8151 30.9994 12.9544 30.7801 13.1236 30.5838M12.5858 30.7418C12.6964 30.319 12.8313 29.9026 12.9899 29.4946C13.077 29.3821 13.248 28.9805 13.45 28.8862M12.5456 29.7504C12.5456 29.7504 12.8999 28.6005 13.3351 28.3328M12.4461 28.7039C12.5753 28.5103 12.7265 28.3318 12.8968 28.1715C13.0398 28.0536 13.1598 27.9113 13.2512 27.7517M12.2441 27.989C12.4342 27.8154 12.6514 27.6726 12.8876 27.5662C13.1985 27.4567 13.3228 26.9578 13.3353 26.9243M12.1695 27.484C12.4632 27.2688 12.733 27.0241 12.9747 26.754C13.13 26.4298 13.2589 26.0941 13.3601 25.7501C13.4906 25.3671 13.6496 24.9939 13.8358 24.6337M9.59255 27.3408C9.59255 27.3408 10.062 27.5446 9.87233 27.8975M9.83792 27.1372C10.0543 27.2514 10.2962 27.3112 10.542 27.3112C10.7879 27.3112 11.0298 27.2514 11.2462 27.1372C11.4669 27.0239 11.656 26.8597 11.7974 26.6588C11.9388 26.4579 12.028 26.2264 12.0575 25.9842C12.107 25.7077 12.0891 25.4237 12.0054 25.1552C11.9217 24.8867 11.7745 24.6413 11.5757 24.4389C10.9322 23.9795 10.6835 24.016 10.3975 24.0221C10.1776 24.016 9.95944 24.0617 9.76141 24.1554C9.56338 24.2491 9.39131 24.3881 9.25971 24.5606M12.3187 25.8839C12.3187 25.8839 12.6296 25.0656 12.7664 24.8284C12.9081 24.5159 13.1207 24.2392 13.3881 24.0192C13.699 23.8397 13.7518 23.715 13.7145 23.6085C13.5809 23.5203 13.4814 23.5659 13.3166 23.645C13.0704 23.816 12.8673 24.0397 12.7229 24.2991C12.6265 24.4998 12.5022 24.7128 12.4555 24.8314M11.6132 24.0525C11.6666 24.0511 11.7196 24.0617 11.7682 24.0835C11.8167 24.1053 11.8594 24.1378 11.8931 24.1784C11.9268 24.219 11.9504 24.2666 11.9623 24.3175C11.9741 24.3685 11.9738 24.4215 11.9614 24.4723M12.1694 24.6427C12.2382 24.4575 12.3289 24.2809 12.4398 24.1164C12.566 23.8816 12.7484 23.6801 12.9714 23.5293C13.217 23.3894 13.4968 23.1156 13.4253 23.0152C13.3508 22.98 13.2684 22.9638 13.1858 22.968C13.1032 22.9723 13.0231 22.9969 12.9528 23.0396C12.7081 23.1996 12.4549 23.3469 12.1942 23.4806C11.8428 23.6001 11.4718 23.6548 11.1 23.6419C10.4596 23.6419 10.298 23.6206 10.0461 23.7027C9.86798 23.7455 9.70007 23.822 9.55187 23.9278M8.92394 24.1893C8.92394 24.1893 9.1975 24.0463 9.15398 23.9186C9.04047 23.785 8.88727 23.6893 8.71566 23.6448M11.1095 23.3377C11.2445 23.3762 11.3879 23.3762 11.5229 23.3377C11.8958 23.2619 12.2484 23.1106 12.5581 22.8936C12.7135 22.7506 12.984 22.6472 12.8876 22.4738C12.6514 22.3612 12.4742 22.4464 12.1384 22.6259C11.8476 22.8112 11.5343 22.9603 11.2058 23.07C10.895 23.1339 10.9261 23.1065 10.9261 23.1065M10.9663 22.9575C10.9663 22.9575 10.9663 22.8571 11.2492 22.6929C11.5496 22.4952 11.8744 22.3357 12.216 22.2183C12.5673 22.127 12.6139 22.0419 12.645 21.9141C12.6761 21.7863 12.673 21.7194 12.5393 21.6464C12.4056 21.5734 11.9176 21.8228 11.787 21.9111C11.644 22.0042 11.507 22.1058 11.3766 22.2153M8.54154 23.3621C8.86941 23.4597 9.21753 23.4722 9.55186 23.3986C10.039 23.3281 10.4867 23.0962 10.8202 22.7416C10.9254 22.6236 10.9833 22.4723 10.9833 22.3157C10.9833 22.1591 10.9254 22.0078 10.8202 21.8898C10.6344 21.717 10.3894 21.6183 10.1332 21.613C9.8413 21.6399 9.55346 21.6991 9.27518 21.7894M11.0784 21.6675C11.0784 21.6675 11.4484 21.631 11.3427 21.9413M8.40495 21.0441C8.40495 21.0441 8.87125 21.187 8.77488 21.4487C8.67851 21.7103 8.60701 21.7742 8.40495 21.8502M10.4163 21.3207C10.6375 21.3017 10.8604 21.313 11.0784 21.3542C11.3896 21.4549 11.7198 21.4871 12.0452 21.4485C12.297 21.3815 12.5302 21.2416 12.4929 21.0895C12.4157 20.9919 12.316 20.9135 12.2021 20.8606C12.0881 20.8078 11.963 20.782 11.8369 20.7853C11.5409 20.7739 11.2454 20.8183 10.9665 20.9161C10.6431 20.9859 10.3121 21.0166 9.98105 21.0074C9.56278 21.0239 9.14422 20.9829 8.73758 20.8857M9.93762 20.7308C10.2439 20.6574 10.5558 20.6086 10.8702 20.5848C11.3005 20.5943 11.73 20.5421 12.1448 20.4296C12.3593 20.3171 12.4557 20.1467 12.266 20.0494C12.034 19.9783 11.783 19.9957 11.5635 20.0981C11.3365 20.1741 10.9821 20.3658 10.8391 20.384M10.8265 20.0614C10.8918 19.9839 10.9733 19.9209 11.0656 19.8769C11.1578 19.8328 11.2586 19.8086 11.3612 19.8058C11.7809 19.748 12.1508 19.748 12.2627 19.6416C12.3747 19.5351 12.4337 19.4408 12.3778 19.31C12.3152 19.2289 12.2267 19.1708 12.1264 19.1449C12.026 19.1189 11.9197 19.1267 11.8244 19.167C11.576 19.307 11.3184 19.431 11.0535 19.5381M23.1119 16.6971C23.1201 16.7479 23.115 16.8 23.0971 16.8484C23.0792 16.8968 23.0489 16.94 23.0093 16.9739C22.8509 17.0805 22.6983 17.1952 22.5523 17.3176C22.4528 17.4302 22.3596 17.5884 22.5803 17.6857C22.801 17.7831 22.9409 17.634 23.2922 17.9534C23.4522 18.1265 23.6352 18.2779 23.8362 18.4036C24.1004 18.5314 24.1781 18.6896 24.5481 18.6744M23.0716 16.5112C22.8303 16.7298 22.5749 16.933 22.3069 17.1196C21.8761 17.4325 21.3806 17.6494 20.8551 17.7554C20.1028 17.8984 19.9443 17.9927 19.6459 18.0292C19.3677 18.0284 19.0928 18.0876 18.8407 18.2026C18.6635 18.3334 18.6262 18.5068 18.8874 18.5342C19.1887 18.5604 19.492 18.5543 19.792 18.5159C20.0127 18.4794 20.4293 18.3303 20.8427 18.2512C21.3658 18.1236 21.908 18.0885 22.4437 18.1478C23.0188 18.2482 23.1183 18.2299 23.8022 18.7562M26 15.1121C25.9782 15.1121 24.7006 15.0421 24.0882 15.7935C23.4758 16.5449 23.4944 17.0103 23.5566 17.5214C23.6187 18.0325 24.6881 18.5496 25.2446 18.4553M8.14986 20.5027C8.14986 20.5027 9.33426 20.7734 9.97465 20.3658C10.615 19.9581 10.699 19.7939 10.6119 19.228C10.5249 18.6622 9.82544 18.3459 9.44307 18.1816C9.22819 18.0669 8.98945 18.0015 8.74493 17.9904C8.50041 17.9794 8.25651 18.0229 8.03173 18.1177C7.53745 18.3732 6.92194 18.7748 6.75718 18.8356M14.7435 23.5597C14.7435 23.5597 14.6036 23.0304 14.8212 22.8418C15.0388 22.6532 15.5735 22.7688 15.1694 23.4806M14.3799 22.9911C14.3799 22.9911 14.4669 22.334 14.6659 22.2062C14.8648 22.0784 15.7757 21.686 15.6327 23.2101M16.0026 22.787C16.1706 22.4498 16.2446 22.0752 16.2171 21.701C16.1887 21.5081 16.0919 21.331 15.9436 21.2008C15.7952 21.0707 15.6048 20.9958 15.4057 20.9892C15.2365 20.9751 15.0666 21.0065 14.9144 21.0799C14.7621 21.1534 14.6331 21.2661 14.5415 21.406C14.3537 21.7669 14.2477 22.1633 14.2306 22.568M16.6275 21.7284C16.6275 21.7284 16.8078 20.9618 16.6275 20.6089C16.5607 20.4644 16.458 20.3386 16.3287 20.243C16.1995 20.1473 16.0478 20.0849 15.8876 20.0614C15.5398 19.9793 15.1734 20.0225 14.8555 20.183C14.498 20.3838 14.1778 20.4294 14.0721 21.2569C14.0115 21.549 13.9885 21.8474 14.0037 22.1452M17.1591 21.3115C17.324 20.9858 17.3795 20.6174 17.3177 20.259C17.2777 20.048 17.195 19.8469 17.0743 19.6677C16.9536 19.4885 16.7975 19.3347 16.6151 19.2156C16.4233 19.0684 16.2027 18.9611 15.9669 18.9005C15.7312 18.8398 15.4852 18.8269 15.2442 18.8627C14.6473 18.9874 14.3924 19.2247 14.0007 19.7996C13.609 20.3746 13.7831 21.9291 13.7831 21.9291M17.5477 19.6325C17.5412 19.2167 17.3798 18.8175 17.0938 18.51C16.6493 18.1236 16.5094 18.2058 16.1892 17.9016C15.869 17.5974 15.8131 17.5517 15.6483 17.5457C15.4687 17.5572 15.2948 17.6115 15.1416 17.7038C14.924 17.7981 14.7841 17.9685 14.582 18.078C14.2932 18.2532 14.0521 18.4944 13.8795 18.7807C13.6733 19.1353 13.5284 19.5207 13.4505 19.9215C13.3919 20.5015 13.4213 21.0868 13.5375 21.6585M17.6811 20.3838C17.9211 19.9906 17.9958 19.5217 17.8894 19.0757C17.79 18.5834 17.5005 18.1476 17.0811 17.8589C16.8096 17.6919 16.5645 17.487 16.3537 17.2505C16.1647 17.0176 15.8904 16.8659 15.589 16.8276C15.3327 16.8675 15.0915 16.9724 14.8895 17.1318C14.6377 17.3113 14.3579 17.5912 14.0875 17.7402C13.8409 17.9116 13.6298 18.1274 13.4657 18.376C13.1981 18.7499 13.0588 19.1973 13.0678 19.6537C13.0082 20.1168 13.0528 20.5872 13.1984 21.0317M11.0133 19.2247C11.0133 19.2247 11.2029 19.1365 10.976 18.8992C10.7491 18.6619 10.6931 18.6741 10.6931 18.6741M9.21329 17.7162C9.55825 17.7482 9.89487 17.8388 10.2081 17.9838C10.5746 18.2578 10.96 18.5069 11.3614 18.7292C11.6723 18.8356 12.2567 18.8843 12.4836 18.7292C12.7105 18.574 12.6577 18.4249 12.5116 18.3185C12.3655 18.212 11.4298 17.7922 11.2681 17.7101C10.9677 17.5707 10.6484 17.4744 10.32 17.4241C9.90613 17.3923 9.49036 17.3923 9.07651 17.4241C8.69695 17.5272 8.32594 17.6584 7.96671 17.8165M10.5127 17.7738L10.8235 17.9137C11.0192 18.025 11.2205 18.1265 11.4266 18.2179C11.6162 18.2788 11.8681 18.4339 11.9147 18.4096M25.6085 13.5941C25.6085 13.5941 25.2977 14.2359 25.9194 14.2025M25.3159 13.4936C24.9985 13.8618 24.6278 14.1826 24.2155 14.4458C23.5937 14.8595 22.8352 15.3797 22.6207 15.547C22.4062 15.7143 21.2311 16.5904 21.2094 16.7881C21.1876 16.9859 21.2436 17.0923 21.427 17.0498C21.9232 16.795 22.3991 16.5042 22.8507 16.1797C23.0839 15.982 24.0258 15.1698 24.318 15.0603C24.6103 14.9507 25.6423 14.5583 25.7916 14.5218M24.1471 12.0274C23.9794 12.2505 23.8288 12.4854 23.6964 12.7301C23.5584 12.9651 23.4976 13.2359 23.5223 13.5058C23.5369 13.6011 23.5779 13.6907 23.641 13.7647C23.704 13.8387 23.7866 13.8944 23.8798 13.9256C24.121 13.9495 24.364 13.9007 24.5761 13.7857C24.7228 13.7262 24.8575 13.6417 24.974 13.5363M22.3938 11.5619C22.3938 11.5619 22.5586 12.1277 22.9409 12.1703C23.3233 12.2129 23.6404 11.7596 23.7678 11.5619M23.9482 11.8265C23.5592 12.1046 23.2594 12.4856 23.084 12.9247C22.9029 13.3147 22.7653 13.7226 22.6737 14.1415C22.5881 14.4692 22.4264 14.7732 22.2011 15.0298M23.2829 14.1202C23.2288 14.4412 23.059 14.7326 22.8041 14.9415C22.3627 15.3157 22.1109 15.4922 21.9306 15.623C21.7503 15.7538 20.8395 16.4291 20.5286 16.6968C20.155 17.0246 19.7535 17.3208 19.3286 17.582C19.0768 17.6976 18.7069 17.9471 18.5546 17.8284C18.4022 17.7098 18.5142 17.3934 18.7224 17.2991C18.9307 17.2048 19.7234 16.7607 19.9068 16.6512C20.0903 16.5417 20.9047 15.9545 21.1099 15.7811C21.4812 15.4803 21.7967 15.1191 22.0425 14.7134C22.1829 14.3985 22.3063 14.0766 22.4124 13.7491C22.468 13.5259 22.4982 13.2973 22.5026 13.0677M22.2106 13.0282C22.0614 13.6366 21.8345 14.6131 21.163 15.1576C20.4915 15.7022 20.1309 15.8756 19.6491 15.8695C19.4272 15.8711 19.2079 15.8226 19.0084 15.7276C18.8089 15.6326 18.6345 15.4938 18.4989 15.3219C18.4253 15.1948 18.3866 15.0512 18.3866 14.9051C18.3866 14.7591 18.4253 14.6155 18.4989 14.4884C18.614 14.3426 18.687 14.1693 18.7102 13.9865C18.7102 13.8343 18.5486 13.4845 18.847 13.2716C19.1312 13.058 19.3861 12.8096 19.6055 12.5324C19.7209 12.3364 19.8817 12.1697 20.075 12.0456C20.2889 11.937 20.5169 11.8572 20.7526 11.8084M19.4126 16.2316C19.3287 16.3746 19.195 16.5662 19.3255 16.5997C19.4561 16.6331 19.4841 16.5845 19.7172 16.4384C19.9504 16.2924 20.0592 16.2377 20.1245 16.189M19.1952 16.1889C19.1044 16.3891 18.9896 16.578 18.8532 16.7517C18.7009 16.9099 18.3776 17.4666 18.1041 17.5122C17.8305 17.5578 17.5973 17.3753 17.7403 17.1897C17.93 17.0199 18.135 16.8672 18.3528 16.7334C18.5853 16.552 18.7485 16.299 18.8159 16.0155M18.5268 15.8845C18.5293 16.0323 18.5018 16.1792 18.4459 16.3165C18.3609 16.4641 18.2563 16.6001 18.1351 16.7211C18.0573 16.7819 17.7993 16.9401 17.7713 16.8306C17.7434 16.7211 17.8957 16.5264 17.9485 16.4534C18.0754 16.2766 18.1623 16.0754 18.2034 15.8632C18.2085 15.7696 18.2022 15.6756 18.1848 15.5834M17.8241 15.9576C17.8241 15.9576 17.6313 16.1066 17.4759 16.2618C17.3205 16.4169 17.1277 16.5447 17.0904 16.712C17.0531 16.8793 17.0282 17.1561 17.2925 17.1318C17.4039 17.1099 17.5081 17.0615 17.5959 16.991C17.6837 16.9204 17.7525 16.8299 17.7961 16.7272M17.6655 15.7783C17.5341 15.8348 17.4148 15.9154 17.3142 16.0156C17.1806 16.1647 16.9257 16.4384 16.8697 16.5114C16.8137 16.5844 16.5029 16.8156 16.4842 16.5114C16.6148 16.2255 16.7143 16.189 16.9816 16.0156M16.6364 15.982C16.5028 16.0976 16.366 16.1737 16.3256 16.0459C16.3181 16.0008 16.3204 15.9546 16.3324 15.9104C16.3443 15.8662 16.3657 15.825 16.395 15.7894C16.4243 15.7538 16.461 15.7247 16.5026 15.7039C16.5442 15.6831 16.5898 15.6711 16.6364 15.6687C16.8882 15.6261 17.0841 15.7417 17.2799 15.6687C17.5776 15.4973 17.8266 15.2558 18.0043 14.966M20.7369 11.4768C20.3897 11.5102 20.0493 11.5932 19.7266 11.7232C19.5427 11.8238 19.3943 11.9765 19.3007 12.1612C19.2199 12.3541 19.093 12.5251 18.9308 12.6601C18.7371 12.7559 18.5698 12.8957 18.4427 13.0678C18.3425 13.2653 18.2784 13.4784 18.2531 13.6975C18.0774 14.1269 17.8116 14.5156 17.4728 14.8382C17.1961 15.0542 17.0158 15.0329 16.6272 15.2002C16.3412 15.3033 16.0954 15.4916 15.9247 15.7387C15.8594 15.8817 15.6946 15.7387 15.6853 15.5622C15.712 15.3449 15.7717 15.1326 15.8625 14.9325C15.9277 14.5958 15.9277 14.2502 15.8625 13.9135C15.8097 13.5271 15.8625 12.8031 15.8625 12.6054C15.8625 12.4076 15.8625 11.7323 16.2231 11.5224C16.5643 11.3178 16.931 11.1573 17.3143 11.0448C17.771 10.8867 18.1773 10.6139 18.4924 10.2539C18.8033 9.82497 18.853 9.68198 18.8344 9.44775C18.8446 9.22995 18.8086 9.01244 18.7287 8.80892M19.9068 11.3064C19.6784 11.366 19.4566 11.4475 19.2447 11.5498C18.9097 11.7226 18.655 12.0143 18.5328 12.3651C18.2219 12.6997 18.1287 12.8183 17.9701 13.0069C17.8955 13.2837 17.7183 13.6579 17.6593 13.7887C17.6019 14.044 17.4544 14.2713 17.2427 14.4306C16.9753 14.5675 16.4593 14.9143 16.3287 14.8626C16.2977 14.6527 16.3816 14.4945 16.7235 14.2542C16.9894 14.0549 17.1709 13.7669 17.2334 13.445C17.3018 13.1894 17.4821 12.7849 17.5722 12.5141C17.7666 12.0083 18.1275 11.5802 18.5981 11.2973C19.0495 10.95 19.441 10.534 19.7576 10.0653C20.1275 9.54812 20.9203 8.84846 21.0508 8.61118C21.2228 8.28359 21.3643 7.9415 21.4736 7.58906C21.55 7.33566 21.6827 7.10193 21.8622 6.9046M22.3939 6.73731C22.2669 6.86944 22.162 7.02036 22.0831 7.18449C22.0204 7.29198 21.9874 7.4136 21.9874 7.53737C21.9874 7.66113 22.0204 7.78275 22.0831 7.89024C22.1737 7.9657 22.2846 8.01413 22.4025 8.02977C22.5204 8.0454 22.6404 8.0276 22.7483 7.97846C23.022 7.83647 23.2759 7.66061 23.5037 7.45523M23.7771 7.79921C23.7771 7.79921 23.2238 8.20684 23.5036 8.42282M21.6167 7.98155C21.6167 7.98155 21.6011 8.34052 22.1513 8.35573M22.9628 8.71775C22.5742 8.83647 22.195 8.98288 21.8282 9.1558C21.4178 9.36874 20.9826 9.56951 20.7899 9.92239C20.5972 10.2753 20.2179 10.5156 21.0603 11.1757M20.2987 11.066C20.2987 11.066 19.9879 10.7435 20.0221 10.5701C20.0686 10.1954 20.2519 9.84971 20.5381 9.59666C20.8036 9.33508 21.1049 9.11087 21.4334 8.93045C21.7717 8.77981 22.1183 8.64778 22.4717 8.53499M21.2687 6.9409C21.1389 7.24706 20.9872 7.54389 20.8148 7.82918C20.6485 8.0684 20.4375 8.2748 20.1931 8.43758C20.0375 8.55264 19.8545 8.62698 19.6614 8.6536C19.4683 8.68021 19.2715 8.65821 19.0895 8.58968C18.6107 8.36457 18.6605 8.37674 18.5641 8.28548M20.1714 8.9793C20.1714 8.9793 19.5124 9.5725 19.4688 9.89191M19.708 8.94259C19.634 8.96984 19.5692 9.01672 19.5209 9.07797C19.4726 9.13922 19.4427 9.21242 19.4345 9.28937M19.1733 9.3442C19.213 9.58152 19.1884 9.8249 19.1017 10.05C18.9097 10.346 18.6799 10.6169 18.4178 10.8561C18.1227 11.121 17.783 11.3341 17.4137 11.4858C17.1203 11.6007 16.8458 11.7576 16.5993 11.9512C16.4457 12.0886 16.3447 12.2732 16.3133 12.4745M17.0252 12.1277C17.0252 12.1277 16.646 12.4471 16.5993 12.6266C16.5462 12.8065 16.5098 12.9908 16.4905 13.1772M16.3942 14.1021C16.3942 14.1021 16.5807 13.6976 16.6584 13.4937C16.7469 13.2444 16.8507 13.0006 16.9693 12.7637C17.0683 12.568 17.187 12.3825 17.3237 12.21C17.445 12.0659 17.5759 11.9297 17.7154 11.8024M6.60792 18.5738C6.84008 18.2881 7.09474 18.0206 7.36955 17.7737C7.69016 17.4322 8.12642 17.2161 8.59747 17.1653C9.15299 17.0138 9.73611 16.9857 10.3041 17.0832C11.044 17.1653 11.6595 17.5456 12.0139 17.6733C12.3683 17.8011 12.7662 17.9197 12.8968 17.6916C13.0273 17.4634 12.9341 17.3205 12.6356 17.1227C12.2577 16.8365 11.819 16.6369 11.3518 16.5387C10.6852 16.3831 10.0077 16.2763 9.3249 16.2192C8.64867 16.1326 7.96761 16.0868 7.28561 16.0824C6.71219 16.1426 6.1593 16.3254 5.666 16.6178C5.38702 16.7308 5.13663 16.9021 4.93234 17.1197M5.25275 17.1533C5.40085 17.04 5.5578 16.9383 5.72216 16.8491C5.93336 16.7117 6.18049 16.6368 6.43405 16.6331C6.69207 16.6605 6.82263 16.6514 6.96563 16.8917C7.02139 16.9642 7.05913 17.0484 7.07586 17.1376C7.09259 17.2268 7.08784 17.3186 7.062 17.4058M7.43182 17.3084C7.47742 17.2735 7.51527 17.2298 7.54307 17.1802C7.57086 17.1305 7.58802 17.0758 7.59348 17.0194C7.61213 16.8277 7.54684 16.6087 7.13028 16.4961M3.90338 17.7371C3.90338 17.7371 4.2702 17.4329 4.18627 17.1287C4.10234 16.8245 3.64225 16.7515 3.43086 16.7515M6.53964 15.8208C6.81873 15.7696 7.09477 15.7036 7.36655 15.6231C7.68581 15.5098 8.01951 15.4402 8.35822 15.4162C8.82922 15.4357 9.29268 15.5388 9.72603 15.7204C10.1213 15.8494 10.5284 15.9411 10.9415 15.9942C11.4765 16.1594 11.9964 16.368 12.4959 16.6178C12.729 16.7334 13.2388 17.1289 13.4285 16.922C13.4628 16.8894 13.489 16.8494 13.505 16.8053C13.521 16.7611 13.5263 16.7139 13.5206 16.6674C13.5149 16.6209 13.4983 16.5763 13.4721 16.5371C13.4458 16.4979 13.4107 16.4651 13.3694 16.4414C12.9979 16.2163 12.6068 16.0238 12.2005 15.8664C11.6285 15.6535 11.041 15.3676 10.4255 15.1424C9.95751 14.9485 9.45396 14.8501 8.94575 14.8535C8.38805 14.8749 7.83774 14.9859 7.31681 15.182M7.49411 14.8323C7.49411 14.8323 7.74902 14.7228 7.7801 14.5646C7.81119 14.4064 7.79565 14.3882 7.61224 14.2178M6.75702 15.2125C6.87779 15.0937 6.97572 14.9546 7.04613 14.8019C7.14319 14.6009 7.15766 14.3711 7.08654 14.16C7.02398 14.0572 6.93823 13.9698 6.83586 13.9045C6.73349 13.8391 6.6172 13.7975 6.49589 13.7828C6.26075 13.7658 6.02446 13.7927 5.79955 13.8619M4.0995 16.4961L4.89532 16.1919C5.2184 16.0889 5.52347 15.9381 5.79995 15.7447C6.06664 15.5857 6.30068 15.3793 6.49007 15.1363C6.55375 15.0487 6.59175 14.9457 6.59997 14.8385C6.60819 14.7312 6.58631 14.6239 6.5367 14.5279C6.48096 14.4298 6.40239 14.3459 6.30734 14.283C6.21228 14.2201 6.10342 14.18 5.98958 14.1659C5.71075 14.1357 5.42864 14.1542 5.15645 14.2207C5.04976 14.2354 4.94534 14.263 4.84558 14.3028M3.18234 14.8169C3.18234 14.8169 3.30979 14.8169 3.30046 14.6039C3.29113 14.391 3.18855 14.0807 2.51708 13.889M3.74196 14.6039C3.75672 14.4934 3.74533 14.3811 3.70868 14.2756C3.67202 14.1701 3.61109 14.0743 3.53057 13.9955C3.85906 14.0193 4.18931 14.0009 4.51291 13.9407C4.74472 13.8933 4.97157 13.825 5.1906 13.7369C5.48773 13.5914 5.77347 13.4247 6.04549 13.238C6.22551 13.0796 6.39478 12.9099 6.5522 12.73M3.74185 13.6672C4.3062 13.6179 4.85477 13.4586 5.35525 13.1987C5.93346 12.8245 6.14796 12.6329 6.28785 12.2861C6.38805 12.1061 6.41775 11.8965 6.3714 11.6966C6.32505 11.4967 6.20583 11.3201 6.03605 11.2001C5.63504 10.8758 5.12581 10.7079 4.60606 10.7286C3.88254 10.8143 3.17925 11.0201 2.52635 11.337M3.45279 10.6039C3.76687 10.4541 4.10223 10.3515 4.44756 10.2996C4.84091 10.2655 5.2373 10.2912 5.62264 10.3757C5.90677 10.4738 6.21208 10.4979 6.50861 10.4457C6.81948 10.3757 6.73555 10.184 6.65783 10.1415C6.48749 10.0611 6.29971 10.0224 6.1107 10.0289M6.63587 11.2578C6.62975 11.1624 6.59396 11.0711 6.53329 10.9962C6.39766 10.7798 6.21643 10.5942 6.0017 10.4517M7.13661 13.5331C7.40575 13.7647 7.69846 13.9685 8.01014 14.1416C8.2806 14.248 8.321 14.4032 8.89611 14.4032C9.37448 14.4463 9.84666 14.5402 10.3043 14.683C11.0565 14.9166 11.7944 15.1918 12.5146 15.5074C13.1053 15.8116 13.6835 16.3075 13.9104 16.3622C14.1373 16.417 14.414 16.493 14.442 16.3835C14.3232 16.129 14.148 15.9035 13.9291 15.7234C13.6395 15.5115 13.3267 15.332 12.9965 15.188C12.2757 14.8543 11.5344 14.5648 10.7769 14.321C10.0432 14.1324 9.04533 13.9408 8.71581 13.7674C8.38629 13.594 7.59979 12.9856 7.43192 12.5323C7.26406 12.0791 6.89412 11.1816 7.43192 10.4181C7.96972 9.65455 8.15624 9.20128 8.73135 8.87883C9.39897 8.44062 10.1335 8.10896 10.9074 7.89625C11.9955 7.80803 14.7218 7.74111 15.5704 7.9723C16.4191 8.2035 17.1807 8.61721 17.4947 8.97313C17.8087 9.32905 17.8553 9.63934 17.6439 9.74276C17.2732 9.91231 16.8884 10.0507 16.4937 10.1565C16.1566 10.2233 15.8428 10.3742 15.5829 10.5945M18.2096 8.46816C18.2096 8.46816 18.5454 8.96401 18.4987 9.23171C18.4521 9.4994 18.4614 9.68193 18.1879 9.89791C17.9467 10.1156 17.6831 10.3083 17.4014 10.4729C16.9295 10.6807 16.4321 10.8279 15.9217 10.9109C15.3963 11.1086 15.3155 11.1908 15.2719 11.2942C15.2284 11.3976 15.0916 11.5315 15.3217 12.0456C15.3559 12.292 15.188 12.4502 15.1756 12.5566C15.1992 12.7344 15.2528 12.9071 15.3341 13.0677C15.2819 13.3021 15.1994 13.5291 15.0885 13.743C15.1662 13.9864 15.3994 14.2541 15.331 14.4579C15.17 14.6898 15.0226 14.9306 14.8896 15.1789C14.8896 15.4831 15.0201 15.9729 15.2595 15.8208C15.2932 15.4681 15.3989 15.1257 15.5704 14.8138M16.1424 9.5907C15.9196 9.61139 15.7058 9.68672 15.5207 9.80973C15.1072 10.0379 14.8461 10.2478 14.8679 11.0022M14.7808 11.9817C14.6822 11.6625 14.5344 11.3599 14.3425 11.0843C14.2834 10.9444 14.0316 10.3025 14.2275 10.0318C14.4081 9.6807 14.7164 9.40836 15.0917 9.26823C15.3036 9.18047 15.5314 9.13525 15.7616 9.13525C15.9917 9.13525 16.2195 9.18047 16.4315 9.26823M14.7247 12.6815C14.613 12.4461 14.4569 12.2335 14.2646 12.0549C13.9835 11.8294 13.7319 11.5709 13.5154 11.2852C13.3444 11.0388 13.1392 10.4608 13.2791 10.1384C13.4297 9.72773 13.6986 9.36852 14.0532 9.10409C14.3597 8.8608 14.7328 8.71156 15.1257 8.67516C15.5017 8.61424 15.8877 8.674 16.2261 8.84551M14.7933 8.37698C14.5089 8.44803 14.2312 8.54268 13.9632 8.65989C13.5732 8.8982 13.2086 9.17439 12.8752 9.48429C12.6847 9.71719 12.5268 9.97398 12.4058 10.2478C12.3467 10.4608 12.0949 10.9566 12.4338 11.3795C12.658 11.6817 12.9465 11.9329 13.2793 12.1156C13.5187 12.2373 14.1249 12.4959 14.3176 12.7241C14.4568 12.863 14.5629 13.0302 14.6285 13.2138M14.6812 14.1719C14.6185 13.9261 14.5134 13.6926 14.3704 13.4814C14.1127 13.1817 13.773 12.9601 13.3911 12.8426C12.8819 12.6797 12.4099 12.4214 12.0015 12.0821C11.8368 11.8843 11.4389 11.641 11.4202 11.1968C11.3754 10.7944 11.4925 10.3907 11.7466 10.0713C11.9829 9.85531 12.2875 9.36554 12.5207 9.20431C12.9478 8.84281 13.4331 8.55294 13.9569 8.34645M14.5631 14.6648C14.455 14.4289 14.308 14.212 14.1279 14.0229C13.8701 13.8148 13.5819 13.6457 13.273 13.521C13.0212 13.3901 12.2534 13.0829 11.7 12.7513C11.3638 12.5708 11.0835 12.305 10.8886 11.9817C10.7501 11.795 10.658 11.5793 10.6196 11.3517C10.5813 11.1241 10.5979 10.8908 10.6679 10.6706C10.8206 10.2843 11.0535 9.93311 11.3518 9.63931C11.6277 9.35522 11.9306 9.09751 12.2565 8.86968C12.6116 8.65258 12.985 8.46533 13.3725 8.30994M12.9218 8.21588C12.0518 8.4748 11.2498 8.91597 10.5716 9.50875C10.2732 9.87193 10.0427 10.2839 9.89084 10.7256C9.87371 11.0826 9.93102 11.4394 10.0593 11.7741C10.1876 12.1088 10.3841 12.4145 10.6369 12.6725C11.0685 13.0869 11.5729 13.4218 12.126 13.6611C12.5177 13.8041 12.9746 14.0322 13.3508 14.1631C13.6093 14.2534 13.8446 14.398 14.04 14.5866C14.2355 14.7753 14.3864 15.0034 14.4823 15.2552M14.0007 15.1849C13.691 14.9418 13.3516 14.7375 12.9903 14.5765C12.6018 14.4488 12.2505 14.2267 11.722 14.0442C11.3186 13.8941 10.9388 13.6893 10.5936 13.4358C10.147 13.1879 9.76423 12.8435 9.47443 12.4288C9.08896 11.8204 9.00814 11.3946 9.07031 11.0964C9.10708 10.6375 9.27275 10.1974 9.54904 9.82487C9.83405 9.46889 10.1653 9.15084 10.5345 8.87879C10.9297 8.63989 11.3375 8.42158 11.7562 8.22475M10.3479 8.44691C10.3479 8.44691 9.80383 8.78762 9.58623 8.9458C9.23326 9.20582 8.91933 9.51302 8.65363 9.85841C8.39357 10.2165 8.20383 10.6188 8.09407 11.0448C8.05987 11.419 8.12204 12.2129 8.59456 12.654C9.07239 13.1762 9.68578 13.562 10.3696 13.7705M1.38548 11.3552C1.47423 11.2829 1.54538 11.1921 1.59378 11.0895C1.64217 10.9869 1.6666 10.875 1.66526 10.762C1.62796 10.4274 1.31398 10.2844 1 10.187M1.3731 11.8113C1.57298 11.5534 1.79671 11.3141 2.04147 11.0964C2.4172 10.7967 2.80948 10.5175 3.21655 10.2599C3.73745 9.901 4.36432 9.71932 5.00092 9.74274C5.4848 9.7605 5.96892 9.71446 6.44024 9.60585C7.29025 9.32576 8.07598 8.8855 8.7531 8.30994C9.81627 7.68328 10.2732 7.35474 11.4141 7.33953C12.555 7.32432 13.3757 7.19655 13.7519 7.21176C14.3486 7.19049 14.9443 7.27818 15.5083 7.47034C16.0356 7.6552 16.5346 7.91007 16.9911 8.2278M1.13997 9.82806C1.38863 9.95126 1.66328 10.0159 1.942 10.0167C2.35172 10.033 2.75987 9.95807 3.13573 9.79765C3.54012 9.57259 3.98593 9.42785 4.44759 9.37175C4.92322 9.3535 5.16259 9.37176 5.64755 9.35047C6.1325 9.32917 6.31591 9.35047 6.55839 9.19837M1.06514 9.38399C1.06514 9.38399 1.20813 9.61518 1.93556 9.62126C2.66299 9.62735 2.73138 9.57868 2.97075 9.40528C3.2213 9.21824 3.3928 8.94755 3.4526 8.64477C3.47411 8.47673 3.454 8.30608 3.39394 8.14724C3.33388 7.9884 3.23564 7.84604 3.10753 7.73216C2.81041 7.4584 2.4663 7.23803 2.09099 7.08117M5.29625 8.99456C5.14987 8.98436 5.00712 8.94512 4.87672 8.87922C4.74632 8.81333 4.63099 8.72216 4.53774 8.61127C4.3475 8.28394 4.1213 7.97792 3.86316 7.69866C3.40325 7.32786 2.88728 7.02922 2.33369 6.81342M2.34612 6.47262C2.62214 6.64726 2.95329 6.71855 3.27873 6.67339C3.67086 6.62056 4.03901 6.45787 4.33879 6.20492M4.70856 6.44522C4.56427 6.65917 4.46494 6.89909 4.41636 7.15098C4.40943 7.56815 4.54876 7.97505 4.81116 8.30391M4.92613 6.80434C4.82622 7.00651 4.78637 7.23208 4.81111 7.45534C4.84129 7.71658 4.95158 7.96277 5.12748 8.1615C5.30338 8.36023 5.53663 8.5022 5.79655 8.56872C6.61414 8.78775 7.61203 8.76645 8.24309 8.14892C8.45708 7.97587 8.60445 7.73667 8.66096 7.47071C8.71747 7.20474 8.67973 6.92787 8.55396 6.6857C8.42326 6.47287 8.24595 6.29106 8.0348 6.15335M17.2244 7.91173C17.2244 7.91173 16.9819 7.42805 17.1031 7.21815C17.243 6.97495 17.4618 6.78439 17.7249 6.67666M16.4313 7.4277C16.4313 7.4277 16.8137 7.21475 16.8696 7.1022C16.9225 6.87467 16.894 6.63628 16.7888 6.42687M15.9218 7.28481C15.9218 7.28481 16.2545 7.28481 16.3757 7.09316C16.4503 6.98712 16.4902 6.86142 16.4902 6.73268C16.4902 6.60395 16.4503 6.47825 16.3757 6.3722M15.8658 6.22327C15.9408 6.33291 15.9897 6.45768 16.0088 6.58832C16.0088 6.73738 15.9497 7.06896 15.4492 7.1511M14.8181 7.02006C14.8181 7.02006 15.6699 6.83145 15.1072 6.0892M14.4822 6.04052C14.4822 6.04052 15.104 6.54245 14.3424 7.00179M13.8171 6.99887C13.8171 6.99887 14.2678 6.71901 13.9538 6.11972M13.584 6.17769C13.629 6.42903 13.6087 6.68742 13.5249 6.92907M13.1955 6.22327C13.1955 6.22327 12.8225 6.64916 13.1489 6.96553M12.639 7.04754C12.5821 7.01658 12.5334 6.97321 12.4965 6.9208C12.4596 6.86839 12.4355 6.80836 12.4262 6.74537C12.4169 6.68239 12.4225 6.61814 12.4427 6.55764C12.4629 6.49714 12.4971 6.44201 12.5426 6.39654M12.0605 6.46028C12.0605 6.46028 11.616 6.88009 12.1103 7.17516M11.4451 6.61561C11.4451 6.61561 11.0192 6.97457 11.5197 7.14796M10.892 6.79486C10.892 6.79486 10.5811 7.05039 11.0256 7.20858M10.4099 6.85592C10.4099 6.85592 10.155 7.08407 10.5436 7.3396M3.89116 8.37389C3.87444 8.5151 3.91148 8.65738 3.99521 8.77355C4.07894 8.88972 4.20348 8.97161 4.34502 9.00359M8.93937 7.64701C8.93937 7.64701 9.20361 6.98081 8.92383 6.53363C8.81889 6.31226 8.64834 6.12688 8.43436 6.00157C8.22038 5.87626 7.97283 5.8168 7.72387 5.83092M9.44007 7.42449C9.48487 7.30558 9.49553 7.17692 9.47086 7.0525C9.4462 6.92807 9.38717 6.81265 9.30018 6.71874M9.80377 7.09647C9.79819 6.94865 9.75192 6.80504 9.66985 6.68081C9.58777 6.55659 9.47293 6.45636 9.33746 6.39072C9.06596 6.24948 8.83832 6.03932 8.67843 5.78231C8.50538 5.50984 8.42992 5.18877 8.46393 4.8697M7.29807 5.58727C7.29807 5.58727 7.88872 5.3074 7.96644 5.06708C8.01358 4.92697 8.03258 4.77925 8.02239 4.63208M8.80271 4.8697C8.80647 5.17891 8.92127 5.47696 9.12701 5.71167C9.33276 5.94637 9.61633 6.10276 9.92805 6.15344C11.072 6.38159 11.1715 6.00742 11.2772 5.71843C11.3504 5.52195 11.3504 5.3065 11.2772 5.11002M11.4357 6.04073C11.5396 5.91284 11.6082 5.76093 11.6347 5.59963C11.6669 5.45474 11.6545 5.30378 11.5992 5.16575C11.5439 5.02771 11.4481 4.90878 11.3238 4.82392C11.2033 4.72413 11.0767 4.63168 10.9446 4.54709M11.6533 4.79966C11.6533 4.79966 11.3425 4.41636 11.0658 4.3829M10.0059 6.46062C10.4172 6.53183 10.8381 6.53183 11.2494 6.46062C11.8276 6.3359 12.3374 6.05908 12.9032 5.98302C13.7332 5.85032 14.5747 5.79936 15.415 5.83092C16.1829 5.90697 16.4564 6.09862 16.8295 6.08949C17.2025 6.08037 17.159 6.10775 17.3548 6.08949M17.3299 6.57583C17.5437 6.34537 17.8397 6.20384 18.1568 6.18037M18.0418 5.80948C17.6815 5.90499 17.3017 5.90499 16.9413 5.80948C16.8124 5.76643 16.6936 5.69877 16.5916 5.61043C16.4897 5.52209 16.4066 5.41482 16.3473 5.29484C16.2881 5.17486 16.2537 5.04456 16.2463 4.91149C16.2389 4.77842 16.2585 4.64524 16.3041 4.51966M16.7515 5.32268C16.9511 5.37577 17.1448 5.44812 17.3297 5.53866M15.2222 5.5053C15.2222 5.5053 15.7134 5.15547 15.7631 4.99728C15.8105 4.77285 15.8781 4.55296 15.9652 4.3402C16.1152 4.09609 16.3301 3.89634 16.5869 3.76222M14.7715 5.43237C14.7715 5.43237 15.4523 4.95477 15.3933 4.51976C15.3997 4.38594 15.3609 4.25377 15.2828 4.14377C15.2046 4.03376 15.0916 3.95206 14.9612 3.91135M14.2492 5.50511C14.3807 5.40327 14.4902 5.27687 14.5713 5.13326C14.6524 4.98964 14.7035 4.83168 14.7217 4.66855C14.7437 4.51407 14.7196 4.35665 14.6523 4.21525C14.5851 4.07385 14.4774 3.95449 14.3424 3.87154M13.898 5.47806C14.0826 5.22327 14.1903 4.92286 14.2089 4.61108C14.2246 4.49301 14.212 4.37299 14.172 4.26052C14.1321 4.14805 14.066 4.04623 13.9788 3.96313M13.7114 4.14238C13.731 4.5727 13.7175 5.00386 13.671 5.4322M13.4316 4.11515C13.2739 4.31323 13.1625 4.5427 13.1052 4.78744C13.1052 5.03993 13.0213 5.2985 13.5249 5.70005M12.9622 5.72734C12.9622 5.72734 12.4368 5.44443 12.4492 5.01246C12.4532 4.84758 12.4976 4.68606 12.5788 4.54152C12.6599 4.39698 12.7754 4.27367 12.9155 4.18199M12.1696 4.51966C12.1696 4.51966 11.7344 5.24062 12.3001 5.61175M12.3931 4.14226C12.3931 4.14226 12.8315 3.95062 12.9807 3.87152C13.2062 3.7287 13.4556 3.62573 13.7174 3.56732C13.999 3.54905 14.2815 3.54905 14.563 3.56732C15.0049 3.6265 15.4522 3.63772 15.8966 3.60078C16.0997 3.59398 16.2985 3.54196 16.478 3.44868M16.4876 3.19016C16.325 3.28395 16.1385 3.33039 15.9498 3.32401C15.639 3.32401 15.3281 3.26013 15.182 2.91638C15.1301 2.80811 15.1074 2.68862 15.1161 2.56933C15.1248 2.45004 15.1646 2.33492 15.2317 2.23496M15.1725 3.34849C15.1725 3.34849 14.4886 2.74009 14.9673 2.17122M14.3582 2.18339C14.3582 2.18339 14.9488 2.51194 14.4359 3.21769M14.1902 3.10498C14.2877 2.97864 14.3487 2.82893 14.3668 2.67157C14.3848 2.51421 14.3593 2.35499 14.2928 2.21062M13.9383 3.14464C14.0442 3.00481 14.092 2.83086 14.0719 2.65791C14.0409 2.35371 14.016 2.35371 13.9383 2.25332M13.8076 2.43587C13.7726 2.66244 13.7674 2.89247 13.7921 3.12033M13.6898 3.29077C13.6898 3.29077 13.1707 2.76754 13.665 2.29602M13.2948 2.55737C13.2076 2.68321 13.1676 2.83478 13.1818 2.98622C13.196 3.13766 13.2634 3.27961 13.3725 3.38785M12.3187 3.84126C12.4428 3.71582 12.5225 3.55473 12.546 3.38168C12.5695 3.20864 12.5356 3.03278 12.4493 2.87998M12.6575 3.79263C12.779 3.58296 12.8433 3.34618 12.844 3.10513C12.8098 2.80093 12.5332 2.62753 12.4492 2.49673M12.981 2.55737C12.9031 2.71216 12.8774 2.88715 12.9075 3.05716C12.9377 3.22717 13.0222 3.38342 13.1489 3.50344M12.7011 2.23502C12.7011 2.23502 13.3042 1.93082 13.4254 1.64791M13.273 2.1833C13.393 2.02738 13.5543 1.90643 13.7393 1.83347C13.9569 1.79392 14.1528 1.87301 14.3952 1.85172C14.6377 1.83043 14.9828 1.77567 15.0947 1.62357M14.0504 1C14.1468 1.05476 14.2027 1.07909 14.2152 1.10951M13.9383 1.27988C13.9383 1.27988 14.1497 1.26162 14.2149 1.34072M14.0504 1.49588C14.0965 1.49888 14.1414 1.5119 14.1817 1.534C14.2221 1.5561 14.2568 1.58673 14.2836 1.62365M14.4233 1.21906C14.4429 1.29221 14.482 1.35894 14.5366 1.4124C14.5912 1.46586 14.6594 1.50413 14.7342 1.52327C14.9797 1.58107 15.0792 1.55369 15.1165 1.52327" stroke="#333333" stroke-width="0.25" stroke-miterlimit="10"/>
</svg>
