<?xml version="1.0" encoding="utf-8"?>
<!-- Generator: Adobe Illustrator 24.1.2, SVG Export Plug-In . SVG Version: 6.00 Build 0)  -->
<svg version="1.1" xmlns="http://www.w3.org/2000/svg" xmlns:xlink="http://www.w3.org/1999/xlink" x="0px" y="0px"
	 viewBox="0 0 841.9 595.3" style="enable-background:new 0 0 841.9 595.3;" xml:space="preserve">
<style type="text/css">
	.st0{fill:#FFFFFF;stroke:#000000;stroke-width:0.25;stroke-miterlimit:10;}
	.st1{fill:none;stroke:#000000;stroke-width:0.25;stroke-miterlimit:10;}
	.st2{fill:#FFFFFF;stroke:#000000;stroke-miterlimit:10;}
	.st3{fill:none;stroke:#000000;stroke-miterlimit:10;}
</style>
<g id="Слой_2">
	<g>
		<path class="st0" d="M412.2,336.2c0,0,0.4-3,3.7-1.9"/>
		<path class="st1" d="M412.7,333.9c0,0,0.8-1.3,2.4-0.5"/>
		<path class="st1" d="M413.1,331.6c0,0,0.5,0.6,0.7,0.7"/>
		<path class="st1" d="M416.8,332.9c0,0-0.3,0.6,0.1,1.1"/>
		<path class="st1" d="M416.2,332.3c-1.6-0.6-2.2-0.7-2.4-2.1c-0.1-1.7,0.1-2.4,0.8-2.7c0.7-0.3,1.3-0.9,2.1-0.8
			c1,0.3,1.4,0.3,2.6,1.2"/>
		<path class="st1" d="M415.4,328.4c0,0,0.5-0.4,1.6-0.1"/>
		<path class="st1" d="M420.5,326.9c0,0-0.3-0.8,0.4-0.9"/>
		<path class="st1" d="M419.9,327.3c0,0-1.3-1.5,0.1-1.9"/>
		<path class="st1" d="M414.2,326.6c0,0,1.6-1.8,4-0.7"/>
		<path class="st1" d="M412,337.6c0,0-1.3-2.3-0.3-4c0.7-1.8,0.4-1.8,0.3-2.9c0.2-1.3,0.4-2.3,0.4-3.4c0-1.1,0-2.8,0.7-3.7
			c0.2-1.8,0.4-1.7-0.3-4.4c-0.1-2.8,0.1-4.9,0.5-5.8c0.4-0.9,1.7-3.5,1.9-3.8"/>
		<path class="st1" d="M413.2,325.9c0,0,1.2-2.8,1.4-4.5c-0.3-1.9-0.2-1.3-0.7-3.1c0.3-2.6,0.5-4.5,0.9-5.4c0.4-0.8,1.1-2,1.9-0.8
			c0.9,1.2,1.3,1.8,2.4,2"/>
		<path class="st1" d="M415.1,323.4c0,0,0,1.2,1.5,1.6"/>
		<path class="st1" d="M418.8,324.7c0,0-1.7,0.2-2.6-1.2c-0.2-1.6-0.1-2.3-0.3-3.2c-0.2-0.9-0.8-2.1-0.3-3c0.5-0.9,1.6-2.6,0.8-3.3
			c-0.9,0.2-1.5,1.7-1.5,2.6"/>
		<path class="st1" d="M416.6,321.8c0,0,0.6-0.5,0.6-1.6c0-1.1-0.4-0.5-0.5-1.9c0.1-1.4,0.8-3.1,2.1-3.2c1.1,0.7,1.9,1,2.2,3.2"/>
		<path class="st1" d="M422.8,317.8c0,0-0.3-1.3,1.1-1.2"/>
		<path class="st1" d="M421.8,317.2c0,0-0.6-1.2-0.4-1.6c0.5-0.3,0.9-0.1,1.5,0.3"/>
		<path class="st1" d="M416.3,309.9c0,0-0.9-1.5,0.4-2.2c0.8,0.6,0.6,1.8,0.6,2c0,0.4,0.7,2,1.1,2.4"/>
		<path class="st1" d="M420.6,313.5c0,0-1.5-1.5-1.9-3s-0.2-2.6-0.4-3.4c-0.2-0.8-0.1-1.7,0.6-1.6s0.6,1.1,0.7,1.7
			c0,0.5,0,1.1,0.1,1.2"/>
		<path class="st1" d="M421.6,313.5c0,0-1.6-1.7-0.8-3.3c1.2-0.9,1.7-0.7,3.1,0.2c1.4,0.9,1.3,2.4,1.6,3"/>
		<path class="st1" d="M421.4,307.7c0,0-1.2-1.8-0.3-2.3c1.1,0.2,0.7,0.7,1.8,2.6c2,2.2,2.6,2.8,2.9,4.4"/>
		<path class="st1" d="M426.7,313.8c0,0-0.1-1.2,0.4-1.6s1.3,0,1.5,0.1"/>
		<path class="st1" d="M428,314.5c0,0,0-1,1.2-0.9"/>
		<path class="st1" d="M427.4,310.7c0,0-2-1.3-2.6-3.9c-0.7-2.6-0.5-3.1-1.7-3.3c-0.7,0.4-0.4,1.2,0.2,2.2"/>
		<path class="st1" d="M425.8,307.2c0,0,0.4-1.8-0.3-3.1c-0.7-0.7-1-1.2-0.8-1.7c0.6-0.4,0.9-0.3,1.3-0.2c0.4,0.1,1.1,0.9,1.2,1"/>
		<path class="st1" d="M429.6,311.8c0,0-2.5-1.5-2.7-3.5c0.2-2.1,0.8-3.2,2.7-3.6c1.9-0.4,3.4,0.2,4.3,0.8c0.9,0.6,1.6,1.3,1.6,1.3"
			/>
		<path class="st1" d="M438.2,304.7c0,0-1.4,0-1.3,2.1"/>
		<path class="st1" d="M433.5,304.2c0,0-0.5-0.9-2.4-1.3c-1.9-0.8-1.6-0.8-2.6-1.8s-1.6-1.3-2.2-1.3c-0.6,0.1-1.4,1.1,0.4,1.9"/>
		<path class="st1" d="M430.2,300.8c0,0-0.6-1.5-1.6-2.3c-1-0.8-2-1.6-2.1-0.9s0,0.8,0.4,1.2"/>
		<path class="st1" d="M434.7,303.4c0,0-2.7-1.8-3.3-2.6c-0.5-0.8-1.6-3.7-3.8-4.5c-1.8-0.7-0.9-1.5-0.6-1.6
			c0.7,0.1,1.4,0.8,1.9,1.1c0.5,0.3,1,0.6,1.8,0.6"/>
		<path class="st1" d="M431.1,295.2c0,0-1.2-1.1-2.1-1.2c-0.9-0.1-1.7-0.2-1.9-0.6c-0.1-0.4,0.1-1,0.6-1.1s1.4,0.3,2.3,1.1
			c0.9,0.7,0.8,0.6,0.8,0.6"/>
		<path class="st1" d="M436.1,302.7c0,0-1.6-0.3-3.3-2.1c-0.7-1.9-0.7-2.3-0.4-3.2c0.3-0.9,0.7-1,0.5-2.2c-0.1-1.3,0.1-1.9,1.4-2.9
			c0.3-1.2,0.6-2.5,1.9-2.9c1.3-0.4,3.8-0.8,6.4,0.6"/>
		<path class="st1" d="M431.9,292c-0.4-0.4-1-0.8-2-0.9s-2.2-0.1-2.1-1.1c0.5-0.9,1.2-0.9,2.3-0.8c1.1,0,3.2,0.2,4.4-0.4
			c1.2-0.6,4.6-2.4,9.4,0.4"/>
		<path class="st1" d="M446,290.8c0,0,1.5-2.3,4.4-1"/>
		<path class="st1" d="M410.5,335.5c0,0-0.2-1.2,0.3-2.2s-0.1-2.4,0-3.1c0.1-0.7,0.3-1.9,0.1-3.2c0.2-1.6,0.8-2.7,1-3.3
			c0.2-0.6,0.5-2.3-0.2-3.8c-0.1-1.7-0.1-5.5,0.1-6.1c0.2-0.5,0.8-3.1,1.2-4.2s1.4-3.6,0.3-3.8c-1.2,0.1-2.4,1.3-2.8,2.1
			c-0.4,0.8-1.2,3.4-1.8,4.8c-0.7,1.3-1.7,3.7-4,4.4"/>
		<path class="st1" d="M409.6,336.9c0,0-0.5-0.7-0.6-1.3c0-0.6,0-1.6-0.2-2c-0.3-0.4-0.4-1.2-0.4-2s-0.4-1.2-0.6-1.6
			c-0.2-0.5-0.2-1.7-0.3-2.4c-0.1-0.8-0.4-1-0.5-1.7c-0.1-0.7,0.1-2.8-0.1-3.9c-0.2-1-0.4-2.1-1.3-2.6c-0.9-0.5-1.6-1.1-2.5-1.1
			c-0.9,0-1.6,0.3-2,0.5"/>
		<path class="st1" d="M409.3,335.2c0,0,0.3-0.2,0.7-0.7"/>
		<path class="st1" d="M409.2,333.1c0,0,0.5-0.8,1-1"/>
		<path class="st1" d="M409.2,331.4c0,0,0.4-0.9,0.9-1.2"/>
		<path class="st1" d="M408.8,329.7c0,0,0.7-1.6,1.3-2.1"/>
		<path class="st1" d="M408.5,328.1c0,0,1-3.7,1.3-4.1s0.8-1.7,1.5-2"/>
		<path class="st1" d="M408.3,324.8c0,0,1.1-3.8,2.5-4.7"/>
		<path class="st1" d="M408,321.3c0,0,0.9-1.4,1.4-1.8c0.5-0.4,1.1-1.2,1.1-1.4"/>
		<path class="st1" d="M407.4,319c0,0,1.1-1,2.1-1.4c1-0.4,1.4-2,1.4-2.1"/>
		<path class="st1" d="M407.1,317.3c0,0,2.1-1.6,2.6-2.4c0.5-0.8,0.9-2.4,1.2-3.3c0.3-0.9,1.1-3,1.5-3.7"/>
		<path class="st1" d="M398.8,316.9c0,0,1.5,0.7,0.9,1.8"/>
		<path class="st1" d="M399.6,316.2c0,0,2.4,1.3,4.5,0c2.2-1.3,2.5-3,2.6-3.8c0.1-0.8,0.4-3.2-1.5-5.1c-2.1-1.5-2.9-1.4-3.8-1.4
			c-0.9,0-2.4,0.2-3.7,1.8"/>
		<path class="st1" d="M407.6,312.1c0,0,1-2.7,1.4-3.5c0.4-0.8,1.1-2.1,2-2.7c0.9-0.6,1.2-1,1-1.4c-0.4-0.3-0.7-0.1-1.3,0.1
			s-1.6,1.5-1.9,2.2c-0.3,0.7-0.7,1.4-0.9,1.8"/>
		<path class="st1" d="M405.3,306.1c0,0,1.3,0,1.1,1.4"/>
		<path class="st1" d="M407.1,308c0,0,0.3-0.9,0.9-1.7c0.6-0.9,0.9-1.5,1.7-1.9c0.8-0.5,1.7-1.4,1.5-1.7c-0.8-0.3-0.9-0.2-1.5,0.1
			c-0.6,0.3-1.5,1.2-2.4,1.5c-0.9,0.3-1.5,0.5-3.5,0.5s-2.6-0.1-3.4,0.2s-1.3,0.5-1.6,0.7"/>
		<path class="st1" d="M396.7,306.5c0,0,0.9-0.5,0.7-0.9c-0.3-0.5-1.2-0.8-1.4-0.9"/>
		<path class="st1" d="M403.7,303.7c0,0,0.3,0.2,1.3,0c1.1-0.2,2.8-1,3.3-1.5s1.4-0.8,1.1-1.4c-0.8-0.4-1.3-0.1-2.4,0.5
			s-2.1,1.3-3,1.5s-0.9,0.1-0.9,0.1"/>
		<path class="st1" d="M403.2,302.5c0,0,0-0.3,0.9-0.9c0.9-0.5,2-1.3,3.1-1.6s1.3-0.6,1.4-1c0.1-0.4,0.1-0.6-0.3-0.9
			c-0.4-0.2-2,0.6-2.4,0.9c-0.4,0.3-0.9,0.6-1.3,1"/>
		<path class="st1" d="M395.4,303.8c0,0,1.2,0.5,3.2,0.1c2.1-0.4,3.5-1.5,4.1-2.2c0.5-0.7,0.9-2,0-2.8c-0.9-0.8-1.6-0.9-2.2-0.9
			c-0.6-0.1-2.3,0.4-2.8,0.6"/>
		<path class="st1" d="M403.6,298.2c0,0,1.2-0.1,0.9,0.9"/>
		<path class="st1" d="M395,296.2c0,0,1.5,0.5,1.2,1.3c-0.3,0.9-0.5,1.1-1.2,1.3"/>
		<path class="st1" d="M401.5,297.1c0,0,1.5-0.1,2.1,0.1c0.6,0.2,2.3,0.5,3.1,0.3c0.8-0.2,1.6-0.7,1.4-1.2c-0.5-0.6-0.9-0.9-2.1-1
			c-1.2-0.1-1.8,0.2-2.8,0.4c-1,0.2-2.1,0.3-3.2,0.3c-1.1,0-2.9,0-4-0.4"/>
		<path class="st1" d="M399.9,295.1c0,0,1.7-0.4,3-0.5c1.3-0.1,3.4-0.1,4.1-0.5c0.7-0.4,1-0.9,0.4-1.3c-0.6-0.3-1.5-0.1-2.3,0.2
			c-0.7,0.3-1.9,0.9-2.3,0.9"/>
		<path class="st1" d="M402.8,292.9c0,0,0.4-0.7,1.7-0.8c1.3-0.2,2.5-0.2,2.9-0.5c0.4-0.3,0.5-0.7,0.4-1.1c-0.2-0.4-1-0.7-1.8-0.4
			c-0.8,0.3-1.6,1-2.5,1.2"/>
		<path class="st1" d="M442.3,281.9c0,0,0.1,0.5-0.3,0.9s-1.1,0.7-1.5,1.1s-0.6,0.9,0.1,1.2c0.7,0.3,1.2-0.2,2.3,0.9
			s1.1,1.1,1.7,1.5c0.9,0.4,1.1,0.9,2.3,0.9"/>
		<path class="st1" d="M442.2,281.3c0,0-1.5,1.4-2.5,2s-2.2,1.6-4.7,2.1s-2.9,0.8-3.9,0.9s-2,0.1-2.6,0.6c-0.6,0.4-0.7,1,0.1,1.1
			c0.8,0.1,2.2,0.1,2.9-0.1c0.7-0.1,2.1-0.6,3.4-0.9s3.3-0.7,5.2-0.3c1.8,0.3,2.2,0.3,4.4,2"/>
		<path class="st1" d="M451.6,276.7c-0.1,0-4.2-0.2-6.2,2.2s-1.9,4-1.7,5.7s3.6,3.4,5.4,3.1"/>
		<path class="st1" d="M394.2,294.4c0,0,3.8,0.9,5.9-0.5c2.1-1.3,2.3-1.9,2-3.7s-2.5-2.9-3.8-3.4c-1.2-0.5-3-1-4.5-0.2
			s-3.6,2.2-4.1,2.4"/>
		<path class="st1" d="M415.4,304.4c0,0-0.4-1.7,0.2-2.4s2.4-0.2,1.1,2.1"/>
		<path class="st1" d="M414.2,302.6c0,0,0.3-2.2,0.9-2.6s3.6-1.7,3.1,3.3"/>
		<path class="st1" d="M419.4,301.9c0,0,1-2.2,0.7-3.6s-1.3-2.3-2.6-2.3c-1.3,0-2.4,0.6-2.8,1.4c-0.4,0.7-0.9,2.2-1,3.8"/>
		<path class="st1" d="M421.5,298.4c0,0,0.6-2.5,0-3.7c-0.6-1.2-1.4-1.6-2.4-1.8c-0.9-0.2-2.2-0.2-3.3,0.4c-1.1,0.7-2.2,0.8-2.5,3.5
			s-0.2,2.9-0.2,2.9"/>
		<path class="st1" d="M423.2,297c0,0,0.9-1.7,0.5-3.5s-1.3-2.8-2.3-3.4s-2.5-1.5-4.4-1.1c-1.9,0.4-2.7,1.2-4,3.1
			c-1.2,1.9-0.7,7-0.7,7"/>
		<path class="st1" d="M424.4,291.5c0,0,0-2.4-1.5-3.7c-1.4-1.3-1.9-1-2.9-2c-1-0.9-1.2-1.1-1.7-1.2c-0.5,0-0.9,0.2-1.6,0.5
			c-0.7,0.3-1.1,0.9-1.8,1.2c-0.7,0.4-1.8,1.4-2.3,2.3c-0.4,0.9-1.3,2.5-1.4,3.7c-0.1,1.3-0.2,4.5,0.3,5.7"/>
		<path class="st1" d="M424.8,294c0,0,1.3-1.9,0.7-4.3s-2-3.5-2.6-4s-2-1.4-2.3-2c-0.4-0.6-1.8-1.5-2.5-1.4c-0.7,0.1-1.4,0.4-2.2,1
			c-0.8,0.6-1.7,1.5-2.6,2s-1.7,1.5-2,2.1s-1.2,1.7-1.3,4.2c-0.1,2.5,0.1,3.6,0.4,4.5"/>
		<path class="st1" d="M403.4,290.2c0,0,0.6-0.3-0.1-1.1c-0.7-0.8-0.9-0.7-0.9-0.7"/>
		<path class="st1" d="M397.6,285.2c0,0,2.2,0.2,3.2,0.9s2.7,2.1,3.7,2.4c1,0.4,2.9,0.5,3.6,0c0.7-0.5,0.6-1,0.1-1.4
			c-0.5-0.3-3.5-1.7-4-2s-2.1-0.8-3.1-0.9c-1-0.1-3.5-0.1-4,0c-0.6,0.1-3.1,1-3.6,1.3"/>
		<path class="st1" d="M401.8,285.4c0,0,0.3,0.1,1,0.5c0.7,0.3,1.3,0.8,1.9,1c0.6,0.2,1.4,0.7,1.6,0.6"/>
		<path class="st1" d="M450.3,271.7c0,0-1,2.1,1,2"/>
		<path class="st1" d="M449.4,271.3c0,0-1.7,2.1-3.5,3.1c-2,1.4-4.4,3.1-5.1,3.6c-0.7,0.5-4.5,3.4-4.5,4.1c-0.1,0.6,0.1,1,0.7,0.9
			c0.9-0.4,3.8-2.2,4.6-2.9c0.8-0.7,3.8-3.3,4.7-3.7c0.9-0.4,4.3-1.6,4.7-1.8"/>
		<path class="st1" d="M445.6,266.5c0,0-1.2,1.7-1.4,2.3c-0.2,0.6-0.8,1.7-0.6,2.5c0.3,0.9,0.6,1.2,1.2,1.4c0.5,0.2,1.5-0.1,2.2-0.5
			c0.7-0.3,1-0.5,1.3-0.8"/>
		<path class="st1" d="M439.9,265c0,0,0.5,1.9,1.8,2c1.2,0.1,2.3-1.3,2.7-2"/>
		<path class="st1" d="M445,265.9c0,0-1.8,1.2-2.8,3.6s-1.3,3.4-1.3,4s-0.9,2.3-1.5,2.9"/>
		<path class="st1" d="M442.9,273.4c0,0-0.1,1.5-1.5,2.7c-1.4,1.2-2.2,1.8-2.8,2.2c-0.6,0.4-3.5,2.7-4.5,3.5c-1,0.8-3.1,2.5-3.9,2.9
			c-0.8,0.4-2,1.2-2.5,0.8s-0.1-1.4,0.5-1.7c0.7-0.3,3.2-1.8,3.8-2.1c0.6-0.4,3.2-2.3,3.9-2.9c0.7-0.6,2.5-2.3,3-3.5
			c0.5-1.2,1-2.6,1.2-3.2c0.1-0.6,0.3-1.7,0.3-2.2"/>
		<path class="st1" d="M439.4,269.8c-0.5,2-1.2,5.2-3.4,7c-2.2,1.8-3.3,2.4-4.9,2.3c-1.5,0-3.1-0.8-3.7-1.8c-0.6-1-0.3-2.2,0-2.7
			c0.3-0.5,0.7-1.2,0.7-1.7c0-0.5-0.5-1.6,0.4-2.3s2.2-2,2.4-2.4s0.9-1.3,1.5-1.6c0.6-0.3,1.7-0.8,2.2-0.8"/>
		<path class="st1" d="M430.4,280.3c-0.3,0.5-0.7,1.1-0.3,1.2c0.4,0.1,0.5,0,1.3-0.5c0.8-0.5,1.1-0.7,1.3-0.8"/>
		<path class="st1" d="M429.7,280.2c0,0-0.6,1.3-1.1,1.9c-0.5,0.5-1.5,2.3-2.4,2.5s-1.6-0.4-1.2-1.1c0.5-0.6,1.4-1.1,1.9-1.5
			c0.5-0.4,1.4-1.4,1.5-2.4"/>
		<path class="st1" d="M427.6,279.2c0,0,0,1-0.3,1.4c-0.3,0.4-0.7,1.1-1,1.3s-1.1,0.7-1.2,0.4c-0.1-0.4,0.4-1,0.6-1.2
			c0.2-0.3,0.8-1.3,0.8-1.9c0-0.6-0.1-0.9-0.1-0.9"/>
		<path class="st1" d="M425.3,279.4c0,0-0.6,0.5-1.1,1c-0.5,0.5-1.1,0.9-1.2,1.5c-0.1,0.5-0.2,1.5,0.7,1.4c0.9-0.1,1.4-0.9,1.6-1.3"
			/>
		<path class="st1" d="M424.8,278.9c0,0-0.7,0.3-1.1,0.8s-1.3,1.4-1.4,1.6c-0.2,0.2-1.2,1-1.2,0c0.4-0.9,0.7-1.1,1.6-1.6"/>
		<path class="st1" d="M421.5,279.5c-0.4,0.4-0.9,0.6-1,0.2s0.2-1.1,1-1.2c0.8-0.1,1.4,0.2,2.1,0s1.9-1.5,2.3-2.3"/>
		<path class="st1" d="M434.7,264.7c-1.2,0.2-2.8,0.5-3.3,0.8c-0.5,0.3-0.9,0.6-1.4,1.4c-0.4,0.8-0.8,1.4-1.2,1.6
			c-0.4,0.2-1.3,0.8-1.6,1.3s-0.6,1.5-0.6,2.1s-1.6,3-2.5,3.7c-0.9,0.7-1.5,0.6-2.7,1.2c-1.2,0.5-2,1.3-2.3,1.8
			c-0.2,0.5-0.7,0-0.8-0.6c0-0.6,0.3-1.3,0.6-2.1c0.2-0.8,0.2-2.1,0-3.4c-0.2-1.3,0-3.6,0-4.3c0-0.7,0-2.9,1.2-3.6
			c1.1-0.7,2.6-1.4,3.5-1.6c0.9-0.4,2.8-1.2,3.8-2.6s1.2-1.9,1.1-2.6c-0.1-0.8,0-1.6-0.3-2.1"/>
		<path class="st1" d="M432,264.2c0,0-1.3,0.3-2.1,0.8c-0.8,0.4-1.7,1.1-2.3,2.7c-1,1.1-1.3,1.5-1.8,2.1c-0.2,0.9-0.8,2.1-1,2.6
			c-0.1,0.4-0.5,1.7-1.3,2.1s-2.5,1.6-2.9,1.4c-0.1-0.7,0.2-1.2,1.3-2c1.1-0.8,1.4-1.8,1.6-2.7c0.2-0.8,0.8-2.2,1.1-3.1
			c0.3-0.9,1.4-2.9,3.3-4c1.8-1.5,2.5-2.3,3.7-4.1c1.2-1.7,3.7-4,4.2-4.8c0.4-0.8,1.1-2.4,1.4-3.4c0.3-0.9,0.8-1.7,1.2-2.2"/>
		<path class="st1" d="M440,249.1c0,0-0.7,0.8-1,1.5c-0.3,0.7-0.5,1.7,0,2.3s1.6,0.5,2.1,0.3c0.6-0.2,1.9-1.2,2.4-1.7"/>
		<path class="st1" d="M444.5,252.6c0,0-1.8,1.3-0.9,2.1"/>
		<path class="st1" d="M437.5,253.2c0,0,0,1.2,1.7,1.2"/>
		<path class="st1" d="M441.8,255.6c0,0-2.3,0.7-3.7,1.4c-1.3,0.7-2.7,1.4-3.3,2.5c-0.6,1.2-1.8,1.9,0.9,4.1"/>
		<path class="st1" d="M433.3,263.4c0,0-1-1.1-0.9-1.6c0.1-0.6,0.4-2.2,1.7-3.2s1.9-1.8,2.9-2.2c1-0.4,2.1-0.9,3.3-1.3"/>
		<path class="st1" d="M436.4,249.8c-0.6,1.3-1.1,2.4-1.5,2.9s-1.3,1.6-2,1.9s-2,1.3-3.5,0.5c-1.5-0.7-1.4-0.7-1.7-1"/>
		<path class="st1" d="M432.9,256.5c0,0-2.1,2-2.3,3"/>
		<path class="st1" d="M431.4,256.4c0,0-0.9,0.3-0.9,1.1"/>
		<path class="st1" d="M429.6,257.7c0,0.8,0.1,1.7-0.2,2.3c-0.4,0.6-1.5,2.1-2.2,2.6c-0.7,0.5-1.8,1.5-3.2,2.1
			c-1.5,0.6-2.3,1.2-2.6,1.5s-0.9,1-0.9,1.7"/>
		<path class="st1" d="M422.7,266.9c0,0-1.2,1.1-1.4,1.6s-0.4,1.5-0.3,1.8"/>
		<path class="st1" d="M420.7,273.4c0,0,0.6-1.3,0.9-2s0.6-1.8,1-2.4c0.3-0.6,0.7-1.3,1.1-1.8c0.4-0.5,0.7-0.8,1.3-1.3"/>
		<path class="st1" d="M389.2,288c0,0,1.6-2,2.5-2.6c0.8-0.6,1.1-1.4,4-2c2.9-0.6,3.1-0.5,5.5-0.3c2.4,0.3,4.4,1.5,5.5,1.9
			s2.4,0.8,2.8,0.1s0.1-1.2-0.8-1.9c-1-0.6-1.8-1.4-4.1-1.9c-2.4-0.6-4.9-0.9-6.5-1c-1.6-0.1-4.5-0.6-6.6-0.5
			c-2.1,0.1-4.1,1.1-5.2,1.8s-1.8,0.8-2.4,1.6"/>
		<path class="st1" d="M384.9,283.4c0,0,0.9-0.7,1.5-1c0.6-0.3,1.5-0.8,2.3-0.7s1.3,0.1,1.7,0.8c0.5,0.8,0.4,1.2,0.3,1.7"/>
		<path class="st1" d="M391.9,283.9c0,0,0.5-0.3,0.5-1c0.1-0.6-0.2-1.3-1.5-1.7"/>
		<path class="st1" d="M380.5,285.3c0,0,1.2-1,0.9-2c-0.3-1-1.8-1.2-2.4-1.2"/>
		<path class="st1" d="M389,279c0.7-0.2,2-0.4,2.7-0.6s2-0.6,3.2-0.7c1.2-0.1,3.3,0.6,4.4,1c1.1,0.5,2.6,0.6,3.9,0.9
			c1.3,0.3,4.3,1.7,5,2.1s2.4,1.7,3,1s0.2-1.3-0.2-1.6c-0.4-0.2-1.9-1.2-3.8-1.9s-3.7-1.6-5.7-2.4s-3.4-1-4.8-1s-3.9,0.5-5.2,1.1"/>
		<path class="st1" d="M392.1,275.7c0,0,0.8-0.4,0.9-0.9c0.1-0.5,0.1-0.6-0.5-1.1"/>
		<path class="st1" d="M389.7,277c0,0,0.7-0.7,0.9-1.3c0.2-0.6,0.5-1.3,0.1-2.1c-0.3-0.8-1.3-1.2-1.9-1.2c-0.6-0.1-1.7,0.1-2.2,0.3"
			/>
		<path class="st1" d="M381.2,281.2c0,0,1.3-0.5,2.6-1s2.2-0.9,2.9-1.5c0.7-0.6,1.8-1.2,2.2-2c0.4-0.8,0.5-1.4,0.1-2
			c-0.3-0.6-0.9-1.1-1.8-1.2c-0.8-0.1-1.8,0-2.7,0.2s-0.6,0.2-1,0.3"/>
		<path class="st1" d="M378.2,275.7c0,0,0.4,0,0.4-0.7c0-0.7-0.4-1.7-2.5-2.3"/>
		<path class="st1" d="M379.9,275c0.2-0.6-0.3-1.5-0.7-2c1.5,0,2.6,0,3.2-0.2c0.6-0.2,1.8-0.4,2.2-0.7s2.1-1.1,2.7-1.6
			c0.6-0.6,1.2-1.2,1.6-1.7"/>
		<path class="st1" d="M380,271.9c0,0,3.3-0.3,5.2-1.5c1.9-1.2,2.6-1.9,3-3c0.4-1.1,0.7-2.4-0.8-3.6c-1.5-1.2-3.1-1.6-4.6-1.5
			s-5.4,1.2-6.7,2"/>
		<path class="st1" d="M379.1,261.9c0,0,1.8-0.9,3.2-1c1.4-0.1,2.8,0,3.8,0.2c0.9,0.2,1.8,0.5,2.9,0.2c1-0.2,0.7-0.9,0.5-1
			c-0.3-0.2-1.2-0.4-1.8-0.4"/>
		<path class="st1" d="M389.3,264c0,0,0-0.3-0.3-0.9c-0.4-0.6-1.2-1.5-1.7-1.8"/>
		<path class="st1" d="M390.9,271.5c0,0,1.9,1.7,2.8,2s1,0.9,2.9,0.9c2.1,0.2,3.4,0.5,4.5,0.9s5.2,1.7,7.1,2.7
			c1.9,1,3.8,2.6,4.5,2.8c0.7,0.2,1.6,0.4,1.7,0.1c-0.5-1.1-1-1.6-1.6-2.2c-0.6-0.5-2.2-1.4-3-1.8c-0.8-0.3-4.8-2.2-7.1-2.8
			s-5.6-1.3-6.6-1.8c-1.1-0.6-3.6-2.6-4.1-4.1s-1.7-4.4,0-7c1.7-2.5,2.3-4,4.2-5.1s3.8-2.5,7-3.2c3.5-0.3,12.3-0.5,15,0.2
			c2.7,0.8,5.2,2.1,6.2,3.3c1,1.2,1.2,2.2,0.5,2.5c-0.7,0.3-2.6,1.1-3.7,1.4s-2.5,0.9-2.9,1.4"/>
		<path class="st1" d="M426.5,254.8c0,0,1.1,1.6,0.9,2.5c-0.2,0.9-0.1,1.5-1,2.2s-1.7,1.5-2.5,1.9c-0.8,0.4-3.2,1.3-4.8,1.4
			c-1.7,0.7-2,0.9-2.1,1.3s-0.6,0.8,0.2,2.5c0.1,0.8-0.4,1.3-0.5,1.7s0.3,1.3,0.5,1.7c0,0.6-0.7,1.8-0.8,2.2c0.3,0.8,1,1.7,0.8,2.4
			c-0.4,0.8-1.3,1.9-1.4,2.4c0,1,0.4,2.6,1.2,2.1c0.3-1.6,0.4-2.3,1-3.3"/>
		<path class="st1" d="M419.9,258.5c0,0-0.6,0-2,0.7c-1.3,0.7-2.2,1.4-2.1,3.9"/>
		<path class="st1" d="M415.5,266.4c-0.4-1.6-1.2-2.5-1.4-2.9c-0.2-0.5-1-2.6-0.4-3.5s1.2-2.1,2.8-2.5s2.3-0.7,4.3,0"/>
		<path class="st1" d="M415.3,268.7c0,0-0.6-1.3-1.5-2.1c-0.9-0.7-1.9-1.7-2.4-2.5c-0.6-0.8-1.2-2.7-0.8-3.8
			c0.4-1.1,1.2-2.6,2.5-3.4c1.3-0.8,1.9-1.3,3.4-1.4c1.5-0.1,2.3-0.1,3.5,0.6"/>
		<path class="st1" d="M415.5,254.5c0,0-2,0.5-2.7,0.9s-3,2.1-3.5,2.7c-0.5,0.6-1.3,1.8-1.5,2.5c-0.2,0.7-1,2.3,0.1,3.7
			c1.1,1.4,2,2,2.7,2.4c0.8,0.4,2.7,1.2,3.3,2c0.6,0.8,0.8,0.9,1,1.6"/>
		<path class="st1" d="M415.2,273.6c0,0-0.4-1.6-1-2.3c-0.6-0.7-1.4-1.5-3.1-2.1c-1.7-0.6-4-1.9-4.5-2.5c-0.5-0.7-1.8-1.4-1.9-2.9
			s0.3-3,1-3.7c0.8-0.7,1.7-2.3,2.5-2.9c0.8-0.5,2.6-2.2,4.6-2.8"/>
		<path class="st1" d="M414.8,275.2c0,0-0.6-1.3-1.4-2.1s-1.9-1.2-2.7-1.6s-3.3-1.4-5.1-2.5c-1.8-1.1-2-1.7-2.6-2.5
			c-0.7-0.9-1.4-2.9-0.7-4.3c0.7-1.5,1.2-2.4,2.2-3.4c1-1,1.9-1.9,2.9-2.5s2.5-1.4,3.6-1.8"/>
		<path class="st1" d="M409.5,254c0,0-2.1,0.6-3.5,1.4c-1.4,0.8-3.5,2.1-4.1,2.8c-0.6,0.7-2,2.9-2.2,4c-0.2,1.1,0.4,4.6,2.4,6.4
			c2,1.8,3.5,2.8,4.8,3.3s2.7,1.2,3.9,1.6s3.1,1.8,3.6,3.6"/>
		<path class="st1" d="M413,276.9c0,0-2-1.6-3.2-2s-2.4-1.2-4.1-1.8s-3-1.6-3.6-2c-0.6-0.4-2.4-1.3-3.6-3.3c-1.2-2-1.5-3.4-1.3-4.4
			c0.2-1,0.4-2.8,1.5-4.2s2-2.3,3.2-3.1c1.2-0.8,3.1-1.7,3.9-2.1"/>
		<path class="st1" d="M401.2,254.8c0,0-1.8,1.1-2.4,1.6c-0.7,0.5-2.5,2-3,3c-0.6,0.9-1.7,2.7-1.8,3.9c-0.1,1.2,0.1,3.8,1.6,5.3
			c1.5,1.5,2.6,2.6,5.7,3.7"/>
		<path class="st1" d="M372.4,264.3c0,0,1-0.9,0.9-2c-0.1-1.1-1.1-1.6-2.1-1.9"/>
		<path class="st1" d="M372.4,265.8c0,0,1.3-1.8,2.1-2.4c0.8-0.6,3-2.3,3.8-2.7c0.8-0.4,2.5-1.8,5.7-1.7c2.9-0.1,3.8-0.2,4.6-0.4
			c0.8-0.2,4.9-1.8,7.4-4.3c3.4-2.1,4.9-3.1,8.6-3.2c3.7,0,6.3-0.5,7.5-0.4s3-0.1,5.7,0.9c2.6,0.9,4.5,2.3,4.8,2.5"/>
		<path class="st1" d="M371.6,259.3c0,0,1.1,0.6,2.6,0.6c1.5,0,2.7-0.2,3.8-0.7c1.2-0.6,2.7-1.3,4.2-1.4c1.5-0.1,2.3,0,3.9-0.1
			s2.2,0,2.9-0.5"/>
		<path class="st1" d="M371.4,257.8c0,0,0.5,0.8,2.8,0.8c2.3,0,2.6-0.1,3.3-0.7c0.8-0.6,1.5-1.7,1.5-2.5c0.1-0.8-0.1-2.1-1.1-3
			c-1.1-0.9-1.8-1.5-3.3-2.1"/>
		<path class="st1" d="M385,256.6c0,0-1.6-0.1-2.4-1.3c-0.8-1.2-1.5-2.5-2.2-3c-0.7-0.5-3-2.3-4.9-2.9"/>
		<path class="st1" d="M375.5,248.3c0,0,1.2,0.9,3,0.7c1.8-0.2,2.7-1,3.4-1.5"/>
		<path class="st1" d="M383.1,248.2c0,0-1,1.7-0.9,2.3c0.1,0.7,0,2.3,1.3,3.8"/>
		<path class="st1" d="M383.8,249.4c0,0-0.6,1.3-0.4,2.1c0.2,0.9,0.5,2.9,3.2,3.7c2.6,0.7,5.8,0.7,7.9-1.4c2-2,1.4-4.2,1-4.8
			s-1.1-1.5-1.7-1.7"/>
		<path class="st1" d="M423.4,253c0,0-0.8-1.6-0.4-2.3c0.4-0.7,1.2-1.5,2-1.8"/>
		<path class="st1" d="M420.8,251.4c0,0,1.2-0.7,1.4-1.1c0.2-0.4,0.1-1.6-0.3-2.2"/>
		<path class="st1" d="M419.2,250.9c0,0,1.1,0,1.5-0.6c0.4-0.7,0.6-1.6,0-2.4"/>
		<path class="st1" d="M419,247.4c0,0,0.5,0.7,0.5,1.2c0,0.5-0.2,1.6-1.8,1.9"/>
		<path class="st1" d="M415.6,250.1c0,0,2.7-0.6,0.9-3.1"/>
		<path class="st1" d="M414.6,246.8c0,0,2,1.6-0.4,3.2"/>
		<path class="st1" d="M412.4,250c0,0,1.5-0.9,0.4-2.9"/>
		<path class="st1" d="M411.7,247.3c0,0,0.3,1.3-0.2,2.5"/>
		<path class="st1" d="M410.4,247.4c0,0-1.2,1.4-0.1,2.4"/>
		<path class="st1" d="M408.6,250.2c0,0-1.3-0.8-0.3-2.1"/>
		<path class="st1" d="M406.8,248.2c0,0-1.4,1.4,0.2,2.4"/>
		<path class="st1" d="M404.8,248.7c0,0-1.4,1.2,0.2,1.8"/>
		<path class="st1" d="M403,249.3c0,0-1,0.8,0.4,1.4"/>
		<path class="st1" d="M401.4,249.5c0,0-0.8,0.8,0.4,1.6"/>
		<path class="st1" d="M380.5,254.5c0,0-0.2,1.6,1.5,2.1"/>
		<path class="st1" d="M396.7,252.1c0,0,0.8-2.2-0.1-3.7c-0.9-1.5-1.7-2.2-3.9-2.3"/>
		<path class="st1" d="M398.3,251.4c0,0,0.5-1.1-0.4-2.3"/>
		<path class="st1" d="M399.5,250.3c0,0,0.1-1.3-1.5-2.3c-1.6-1-1.5-1.3-2.1-2c-0.6-0.7-0.7-2-0.7-3"/>
		<path class="st1" d="M391.4,245.4c0,0,1.9-0.9,2.2-1.7c0.3-0.8,0.1-0.8,0.2-1.4"/>
		<path class="st1" d="M396.3,243c0,0-0.1,3.5,3.6,4.2c3.7,0.7,4-0.5,4.3-1.4s0.1-1.6,0-2"/>
		<path class="st1" d="M404.7,246.8c0,0,0.4-0.4,0.6-1.5s-0.2-2-1-2.5c-0.8-0.6-0.8-0.7-1.2-0.9"/>
		<path class="st1" d="M405.4,242.8c0,0-1-1.3-1.9-1.4"/>
		<path class="st1" d="M400.1,248.2c0,0,2.1,0.4,4,0c1.9-0.4,3.5-1.3,5.3-1.6c1.8-0.3,5.6-0.7,8.1-0.5s3.4,0.9,4.5,0.9
			c1.2,0,1.1,0.1,1.7,0"/>
		<path class="st1" d="M423.7,248.6c0,0,1.2-1.4,2.7-1.3"/>
		<path class="st1" d="M426,246.1c0,0-2.2,0.6-3.5,0c-1.3-0.6-2.9-2.1-2.1-4.2"/>
		<path class="st1" d="M421.9,244.5c0,0,1.4,0.4,1.9,0.7"/>
		<path class="st1" d="M416.9,245.1c0,0,1.6-1.2,1.7-1.7c0.2-0.5,0.4-1.7,0.7-2.2s1-1.5,2-1.9"/>
		<path class="st1" d="M415.5,244.8c0,0,2.2-1.6,2-3c-0.2-1.4-0.6-1.5-1.4-2"/>
		<path class="st1" d="M413.8,245.1c0,0,1.4-1,1.5-2.8c0.1-1.7-0.7-2-1.2-2.6"/>
		<path class="st1" d="M412.7,245c0,0,1-1.4,1-2.9c0-1.4-0.4-1.8-0.7-2.1"/>
		<path class="st1" d="M412.1,240.6c0,0,0.1,3-0.1,4.2"/>
		<path class="st1" d="M411.2,240.5c0,0-1,1.4-1.1,2.2s-0.3,1.7,1.4,3"/>
		<path class="st1" d="M409.7,245.8c0,0-1.7-0.9-1.6-2.3s0.8-2.2,1.5-2.7"/>
		<path class="st1" d="M407.1,241.9c0,0-1.4,2.4,0.4,3.6"/>
		<path class="st1" d="M407.8,240.6c0,0,1.4-0.6,1.9-0.9c0.5-0.3,1.6-1,2.4-1s1.8-0.1,2.7,0s2.9,0.3,4.3,0.1
			c1.4-0.2,1.3-0.2,1.9-0.5"/>
		<path class="st1" d="M421,237.5c0,0-0.7,0.5-1.7,0.4c-1,0-2-0.2-2.5-1.3c-0.4-1.1-0.1-1.7,0.2-2.2"/>
		<path class="st1" d="M416.8,238c0,0-2.2-2-0.7-3.9"/>
		<path class="st1" d="M414.1,234.2c0,0,1.9,1.1,0.3,3.4"/>
		<path class="st1" d="M413.6,237.2c0,0,1.1-1.3,0.3-2.9"/>
		<path class="st1" d="M412.8,237.3c0,0,0.5-0.6,0.4-1.6s-0.2-1-0.4-1.3"/>
		<path class="st1" d="M412.4,234.9c0,0-0.2,1.6-0.1,2.2"/>
		<path class="st1" d="M412,237.8c0,0-1.7-1.7-0.1-3.3"/>
		<path class="st1" d="M410.7,235.4c0,0.1-1,1.4,0.2,2.7"/>
		<path class="st1" d="M407.6,239.6c0,0,1.4-1.4,0.4-3.2"/>
		<path class="st1" d="M408.7,239.5c0,0,0.7-1.3,0.6-2.3s-1-1.6-1.3-2"/>
		<path class="st1" d="M409.7,235.4c0,0-0.9,1.8,0.5,3.1"/>
		<path class="st1" d="M408.8,234.3c0,0,1.9-1,2.3-1.9"/>
		<path class="st1" d="M410.7,234.2c0,0,0.8-1,1.5-1.2c0.7-0.1,1.3,0.1,2.1,0.1c0.8-0.1,1.9-0.3,2.3-0.8"/>
		<path class="st1" d="M413.2,230.3c0.3,0.2,0.5,0.3,0.5,0.4"/>
		<path class="st1" d="M412.8,231.2c0,0,0.7-0.1,0.9,0.2"/>
		<path class="st1" d="M413.2,231.9c0,0,0.4,0,0.7,0.4"/>
		<path class="st1" d="M414.4,231c0,0,0.2,0.8,1,1c0.8,0.2,1.1,0.1,1.2,0"/>
	</g>
	<g>
		<path class="st0" d="M233.4,335.4c0,0,0.4-3,3.7-1.9"/>
		<path class="st1" d="M233.8,333c0,0,0.8-1.3,2.4-0.5"/>
		<path class="st1" d="M234.2,330.7c0,0,0.5,0.6,0.7,0.7"/>
		<path class="st1" d="M237.9,332.1c0,0-0.3,0.6,0.1,1.1"/>
		<path class="st1" d="M237.3,331.4c-1.6-0.6-2.2-0.7-2.4-2.1c-0.1-1.7,0.1-2.4,0.8-2.7c0.7-0.3,1.3-0.9,2.1-0.8
			c1,0.3,1.4,0.3,2.6,1.2"/>
		<path class="st1" d="M236.5,327.5c0,0,0.5-0.4,1.6-0.1"/>
		<path class="st1" d="M241.7,326.1c0,0-0.3-0.8,0.4-0.9"/>
		<path class="st1" d="M241.1,326.5c0,0-1.3-1.5,0.1-1.9"/>
		<path class="st1" d="M235.3,325.7c0,0,1.6-1.8,4-0.7"/>
		<path class="st1" d="M233.1,336.8c0,0-1.3-2.3-0.3-4c0.7-1.8,0.4-1.8,0.3-2.9c0.2-1.3,0.4-2.3,0.4-3.4c0-1.1,0-2.8,0.7-3.7
			c0.2-1.8,0.4-1.7-0.3-4.4c-0.1-2.8,0.1-4.9,0.5-5.8s1.7-3.5,1.9-3.8"/>
		<path class="st1" d="M234.4,325c0,0,1.2-2.8,1.4-4.5c-0.3-1.9-0.2-1.3-0.7-3.1c0.3-2.6,0.5-4.5,0.9-5.4c0.4-0.8,1.1-2,1.9-0.8
			c0.9,1.2,1.3,1.8,2.4,2"/>
		<path class="st1" d="M236.3,322.5c0,0,0,1.2,1.5,1.6"/>
		<path class="st1" d="M240,323.9c0,0-1.7,0.2-2.6-1.2c-0.2-1.6-0.1-2.3-0.3-3.2c-0.2-0.9-0.8-2.1-0.3-3c0.5-0.9,1.6-2.6,0.8-3.3
			c-0.9,0.2-1.5,1.7-1.5,2.6"/>
		<path class="st1" d="M237.8,320.9c0,0,0.6-0.5,0.6-1.6s-0.4-0.5-0.5-1.9c0.1-1.4,0.8-3.1,2.1-3.2c1.1,0.7,1.9,1,2.2,3.2"/>
		<path class="st1" d="M243.9,317c0,0-0.3-1.3,1.1-1.2"/>
		<path class="st1" d="M242.9,316.4c0,0-0.6-1.2-0.4-1.6c0.5-0.3,0.9-0.1,1.5,0.3"/>
		<path class="st1" d="M237.5,309.1c0,0-0.9-1.5,0.4-2.2c0.8,0.6,0.6,1.8,0.6,2c0,0.4,0.7,2,1.1,2.4"/>
		<path class="st1" d="M241.7,312.7c0,0-1.5-1.5-1.9-3s-0.2-2.6-0.4-3.4c-0.2-0.8-0.1-1.7,0.6-1.6s0.6,1.1,0.7,1.7
			c0,0.5,0,1.1,0.1,1.2"/>
		<path class="st1" d="M242.7,312.7c0,0-1.6-1.7-0.8-3.3c1.2-0.9,1.7-0.7,3.1,0.2s1.3,2.4,1.6,3"/>
		<path class="st1" d="M242.6,306.9c0,0-1.2-1.8-0.3-2.3c1.1,0.2,0.7,0.7,1.8,2.6c2,2.2,2.6,2.8,2.9,4.4"/>
		<path class="st1" d="M247.9,313c0,0-0.1-1.2,0.4-1.6c0.6-0.3,1.3,0,1.5,0.1"/>
		<path class="st1" d="M249.1,313.7c0,0,0-1,1.2-0.9"/>
		<path class="st1" d="M248.5,309.9c0,0-2-1.3-2.6-3.9c-0.7-2.6-0.5-3.1-1.7-3.3c-0.7,0.4-0.4,1.2,0.2,2.2"/>
		<path class="st1" d="M246.9,306.4c0,0,0.4-1.8-0.3-3.1c-0.7-0.7-1-1.2-0.8-1.7c0.6-0.4,0.9-0.3,1.3-0.2c0.4,0.1,1.1,0.9,1.2,1"/>
		<path class="st1" d="M250.7,310.9c0,0-2.5-1.5-2.7-3.5c0.2-2.1,0.8-3.2,2.7-3.6s3.4,0.2,4.3,0.8c0.9,0.6,1.6,1.3,1.6,1.3"/>
		<path class="st1" d="M259.3,303.9c0,0-1.4,0-1.3,2.1"/>
		<path class="st1" d="M254.7,303.3c0,0-0.5-0.9-2.4-1.3c-1.9-0.8-1.6-0.8-2.6-1.8c-1-0.9-1.6-1.3-2.2-1.3c-0.6,0.1-1.4,1.1,0.4,1.9
			"/>
		<path class="st1" d="M251.3,300c0,0-0.6-1.5-1.6-2.3c-1-0.8-2-1.6-2.1-0.9s0,0.8,0.4,1.2"/>
		<path class="st1" d="M255.8,302.6c0,0-2.7-1.8-3.3-2.6c-0.5-0.8-1.6-3.7-3.8-4.5c-1.8-0.7-0.9-1.5-0.6-1.6
			c0.7,0.1,1.4,0.8,1.9,1.1c0.5,0.3,1,0.6,1.8,0.6"/>
		<path class="st1" d="M252.3,294.4c0,0-1.2-1.1-2.1-1.2c-0.9-0.1-1.7-0.2-1.9-0.6c-0.1-0.4,0.1-1,0.6-1.1s1.4,0.3,2.3,1.1
			c0.9,0.7,0.8,0.6,0.8,0.6"/>
		<path class="st1" d="M257.2,301.8c0,0-1.6-0.3-3.3-2.1c-0.7-1.9-0.7-2.3-0.4-3.2c0.3-0.9,0.7-1,0.5-2.2c-0.1-1.3,0.1-1.9,1.4-2.9
			c0.3-1.2,0.6-2.5,1.9-2.9c1.3-0.4,3.8-0.8,6.4,0.6"/>
		<path class="st1" d="M253,291.2c-0.4-0.4-1-0.8-2-0.9s-2.2-0.1-2.1-1.1c0.5-0.9,1.2-0.9,2.3-0.8s3.2,0.2,4.4-0.4
			c1.2-0.6,4.6-2.4,9.4,0.4"/>
		<path class="st1" d="M267.1,289.9c0,0,1.5-2.3,4.4-1"/>
		<path class="st1" d="M231.6,334.7c0,0-0.2-1.2,0.3-2.2c0.5-1-0.1-2.4,0-3.1c0.1-0.7,0.3-1.9,0.1-3.2c0.2-1.6,0.8-2.7,1-3.3
			c0.2-0.6,0.5-2.3-0.2-3.8c-0.1-1.7-0.1-5.5,0.1-6.1c0.2-0.5,0.8-3.1,1.2-4.2c0.4-1.1,1.4-3.6,0.3-3.8c-1.2,0.1-2.4,1.3-2.8,2.1
			c-0.4,0.8-1.2,3.4-1.8,4.8c-0.7,1.3-1.7,3.7-4,4.4"/>
		<path class="st1" d="M230.7,336c0,0-0.5-0.7-0.6-1.3s0-1.6-0.2-2c-0.3-0.4-0.4-1.2-0.4-2c0-0.8-0.4-1.2-0.6-1.6
			c-0.2-0.5-0.2-1.7-0.3-2.4c-0.1-0.8-0.4-1-0.5-1.7s0.1-2.8-0.1-3.9c-0.2-1-0.4-2.1-1.3-2.6s-1.6-1.1-2.5-1.1c-0.9,0-1.6,0.3-2,0.5
			"/>
		<path class="st1" d="M230.4,334.4c0,0,0.3-0.2,0.7-0.7"/>
		<path class="st1" d="M230.3,332.3c0,0,0.5-0.8,1-1"/>
		<path class="st1" d="M230.3,330.6c0,0,0.4-0.9,0.9-1.2"/>
		<path class="st1" d="M230,328.8c0,0,0.7-1.6,1.3-2.1"/>
		<path class="st1" d="M229.6,327.2c0,0,1-3.7,1.3-4.1c0.3-0.4,0.8-1.7,1.5-2"/>
		<path class="st1" d="M229.4,323.9c0,0,1.1-3.8,2.5-4.7"/>
		<path class="st1" d="M229.2,320.5c0,0,0.9-1.4,1.4-1.8c0.5-0.4,1.1-1.2,1.1-1.4"/>
		<path class="st1" d="M228.5,318.1c0,0,1.1-1,2.1-1.4c1-0.4,1.4-2,1.4-2.1"/>
		<path class="st1" d="M228.2,316.5c0,0,2.1-1.6,2.6-2.4c0.5-0.8,0.9-2.4,1.2-3.3c0.3-0.9,1.1-3,1.5-3.7"/>
		<path class="st1" d="M219.9,316c0,0,1.5,0.7,0.9,1.8"/>
		<path class="st1" d="M220.7,315.3c0,0,2.4,1.3,4.5,0s2.5-3,2.6-3.8c0.1-0.8,0.4-3.2-1.5-5.1c-2.1-1.5-2.9-1.4-3.8-1.4
			c-0.9,0-2.4,0.2-3.7,1.8"/>
		<path class="st1" d="M228.7,311.2c0,0,1-2.7,1.4-3.5c0.4-0.8,1.1-2.1,2-2.7s1.2-1,1-1.4c-0.4-0.3-0.7-0.1-1.3,0.1
			s-1.6,1.5-1.9,2.2s-0.7,1.4-0.9,1.8"/>
		<path class="st1" d="M226.4,305.2c0,0,1.3,0,1.1,1.4"/>
		<path class="st1" d="M228.2,307.1c0,0,0.3-0.9,0.9-1.7s0.9-1.5,1.7-1.9s1.7-1.4,1.5-1.7c-0.8-0.3-0.9-0.2-1.5,0.1
			s-1.5,1.2-2.4,1.5c-0.9,0.3-1.5,0.5-3.5,0.5s-2.6-0.1-3.4,0.2c-0.8,0.3-1.3,0.5-1.6,0.7"/>
		<path class="st1" d="M217.8,305.7c0,0,0.9-0.5,0.7-0.9c-0.3-0.5-1.2-0.8-1.4-0.9"/>
		<path class="st1" d="M224.8,302.9c0,0,0.3,0.2,1.3,0c1.1-0.2,2.8-1,3.3-1.5c0.5-0.5,1.4-0.8,1.1-1.4c-0.8-0.4-1.3-0.1-2.4,0.5
			c-1.1,0.6-2.1,1.3-3,1.5c-1,0.2-0.9,0.1-0.9,0.1"/>
		<path class="st1" d="M224.4,301.6c0,0,0-0.3,0.9-0.9s2-1.3,3.1-1.6s1.3-0.6,1.4-1s0.1-0.6-0.3-0.9c-0.4-0.2-2,0.6-2.4,0.9
			c-0.4,0.3-0.9,0.6-1.3,1"/>
		<path class="st1" d="M216.6,302.9c0,0,1.2,0.5,3.2,0.1c2.1-0.4,3.5-1.5,4.1-2.2c0.5-0.7,0.9-2,0-2.8s-1.6-0.9-2.2-0.9
			c-0.6-0.1-2.3,0.4-2.8,0.6"/>
		<path class="st1" d="M224.7,297.4c0,0,1.2-0.1,0.9,0.9"/>
		<path class="st1" d="M216.1,295.3c0,0,1.5,0.5,1.2,1.3s-0.5,1.1-1.2,1.3"/>
		<path class="st1" d="M222.6,296.2c0,0,1.5-0.1,2.1,0.1c0.6,0.2,2.3,0.5,3.1,0.3c0.8-0.2,1.6-0.7,1.4-1.2c-0.5-0.6-0.9-0.9-2.1-1
			c-1.2-0.1-1.8,0.2-2.8,0.4c-1,0.2-2.1,0.3-3.2,0.3c-1.1,0-2.9,0-4-0.4"/>
		<path class="st1" d="M221.1,294.3c0,0,1.7-0.4,3-0.5c1.3-0.1,3.4-0.1,4.1-0.5s1-0.9,0.4-1.3c-0.6-0.3-1.5-0.1-2.3,0.2
			c-0.7,0.3-1.9,0.9-2.3,0.9"/>
		<path class="st1" d="M223.9,292.1c0,0,0.4-0.7,1.7-0.8c1.3-0.2,2.5-0.2,2.9-0.5c0.4-0.3,0.5-0.7,0.4-1.1s-1-0.7-1.8-0.4
			c-0.8,0.3-1.6,1-2.5,1.2"/>
		<path class="st1" d="M263.4,281c0,0,0.1,0.5-0.3,0.9c-0.4,0.4-1.1,0.7-1.5,1.1c-0.3,0.4-0.6,0.9,0.1,1.2c0.7,0.3,1.2-0.2,2.3,0.9
			c1.1,1,1.1,1.1,1.7,1.5c0.9,0.4,1.1,0.9,2.3,0.9"/>
		<path class="st1" d="M263.3,280.4c0,0-1.5,1.4-2.5,2c-0.9,0.6-2.2,1.6-4.7,2.1s-2.9,0.8-3.9,0.9c-1,0.1-2,0.1-2.6,0.6
			s-0.7,1,0.1,1.1s2.2,0.1,2.9-0.1s2.1-0.6,3.4-0.9s3.3-0.7,5.2-0.3c1.8,0.3,2.2,0.3,4.4,2"/>
		<path class="st1" d="M272.7,275.8c-0.1,0-4.2-0.2-6.2,2.2c-2,2.5-1.9,4-1.7,5.7c0.2,1.7,3.6,3.4,5.4,3.1"/>
		<path class="st1" d="M215.3,293.5c0,0,3.8,0.9,5.9-0.5s2.3-1.9,2-3.7c-0.3-1.9-2.5-2.9-3.8-3.4c-1.2-0.5-3-1-4.5-0.2
			s-3.6,2.2-4.1,2.4"/>
		<path class="st1" d="M236.5,303.6c0,0-0.4-1.7,0.2-2.4c0.7-0.6,2.4-0.2,1.1,2.1"/>
		<path class="st1" d="M235.3,301.7c0,0,0.3-2.2,0.9-2.6c0.6-0.4,3.6-1.7,3.1,3.3"/>
		<path class="st1" d="M240.6,301c0,0,1-2.2,0.7-3.6s-1.3-2.3-2.6-2.3c-1.3,0-2.4,0.6-2.8,1.4c-0.4,0.7-0.9,2.2-1,3.8"/>
		<path class="st1" d="M242.6,297.6c0,0,0.6-2.5,0-3.7s-1.4-1.6-2.4-1.8s-2.2-0.2-3.3,0.4c-1.1,0.7-2.2,0.8-2.5,3.5
			c-0.3,2.7-0.2,2.9-0.2,2.9"/>
		<path class="st1" d="M244.3,296.2c0,0,0.9-1.7,0.5-3.5c-0.4-1.8-1.3-2.8-2.3-3.4c-0.9-0.7-2.5-1.5-4.4-1.1c-1.9,0.4-2.7,1.2-4,3.1
			s-0.7,7-0.7,7"/>
		<path class="st1" d="M245.5,290.7c0,0,0-2.4-1.5-3.7c-1.4-1.3-1.9-1-2.9-2c-1-0.9-1.2-1.1-1.7-1.2c-0.5,0-0.9,0.2-1.6,0.5
			c-0.7,0.3-1.1,0.9-1.8,1.2s-1.8,1.4-2.3,2.3c-0.4,0.9-1.3,2.5-1.4,3.7c-0.1,1.3-0.2,4.5,0.3,5.7"/>
		<path class="st1" d="M246,293.2c0,0,1.3-1.9,0.7-4.3s-2-3.5-2.6-4s-2-1.4-2.3-2c-0.4-0.6-1.8-1.5-2.5-1.4c-0.7,0.1-1.4,0.4-2.2,1
			s-1.7,1.5-2.6,2c-0.9,0.5-1.7,1.5-2,2.1c-0.4,0.5-1.2,1.7-1.3,4.2c-0.1,2.5,0.1,3.6,0.4,4.5"/>
		<path class="st1" d="M224.5,289.3c0,0,0.6-0.3-0.1-1.1c-0.7-0.8-0.9-0.7-0.9-0.7"/>
		<path class="st1" d="M218.7,284.4c0,0,2.2,0.2,3.2,0.9c1,0.7,2.7,2.1,3.7,2.4c1,0.4,2.9,0.5,3.6,0c0.7-0.5,0.6-1,0.1-1.4
			c-0.5-0.3-3.5-1.7-4-2c-0.5-0.3-2.1-0.8-3.1-0.9c-1-0.1-3.5-0.1-4,0c-0.6,0.1-3.1,1-3.6,1.3"/>
		<path class="st1" d="M222.9,284.6c0,0,0.3,0.1,1,0.5s1.3,0.8,1.9,1c0.6,0.2,1.4,0.7,1.6,0.6"/>
		<path class="st1" d="M271.5,270.8c0,0-1,2.1,1,2"/>
		<path class="st1" d="M270.5,270.5c0,0-1.7,2.1-3.5,3.1c-2,1.4-4.4,3.1-5.1,3.6c-0.7,0.5-4.5,3.4-4.5,4.1c-0.1,0.6,0.1,1,0.7,0.9
			c0.9-0.4,3.8-2.2,4.6-2.9c0.8-0.7,3.8-3.3,4.7-3.7c0.9-0.4,4.3-1.6,4.7-1.8"/>
		<path class="st1" d="M266.8,265.7c0,0-1.2,1.7-1.4,2.3c-0.2,0.6-0.8,1.7-0.6,2.5c0.3,0.9,0.6,1.2,1.2,1.4c0.5,0.2,1.5-0.1,2.2-0.5
			s1-0.5,1.3-0.8"/>
		<path class="st1" d="M261.1,264.1c0,0,0.5,1.9,1.8,2c1.2,0.1,2.3-1.3,2.7-2"/>
		<path class="st1" d="M266.2,265c0,0-1.8,1.2-2.8,3.6c-1,2.4-1.3,3.4-1.3,4c-0.1,0.5-0.9,2.3-1.5,2.9"/>
		<path class="st1" d="M264,272.6c0,0-0.1,1.5-1.5,2.7c-1.4,1.2-2.2,1.8-2.8,2.2s-3.5,2.7-4.5,3.5c-1,0.8-3.1,2.5-3.9,2.9
			s-2,1.2-2.5,0.8c-0.5-0.4-0.1-1.4,0.5-1.7c0.7-0.3,3.2-1.8,3.8-2.1c0.6-0.4,3.2-2.3,3.9-2.9c0.7-0.6,2.5-2.3,3-3.5
			c0.5-1.2,1-2.6,1.2-3.2c0.1-0.6,0.3-1.7,0.3-2.2"/>
		<path class="st1" d="M260.5,269c-0.5,2-1.2,5.2-3.4,7c-2.2,1.8-3.3,2.4-4.9,2.3s-3.1-0.8-3.7-1.8c-0.6-1-0.3-2.2,0-2.7
			c0.3-0.5,0.7-1.2,0.7-1.7s-0.5-1.6,0.4-2.3s2.2-2,2.4-2.4c0.3-0.4,0.9-1.3,1.5-1.6c0.6-0.3,1.7-0.8,2.2-0.8"/>
		<path class="st1" d="M251.5,279.5c-0.3,0.5-0.7,1.1-0.3,1.2s0.5,0,1.3-0.5s1.1-0.7,1.3-0.8"/>
		<path class="st1" d="M250.8,279.4c0,0-0.6,1.3-1.1,1.9c-0.5,0.5-1.5,2.3-2.4,2.5c-0.9,0.1-1.6-0.4-1.2-1.1
			c0.5-0.6,1.4-1.1,1.9-1.5c0.5-0.4,1.4-1.4,1.5-2.4"/>
		<path class="st1" d="M248.7,278.4c0,0,0,1-0.3,1.4c-0.3,0.4-0.7,1.1-1,1.3c-0.3,0.2-1.1,0.7-1.2,0.4c-0.1-0.4,0.4-1,0.6-1.2
			c0.2-0.3,0.8-1.3,0.8-1.9c0-0.6-0.1-0.9-0.1-0.9"/>
		<path class="st1" d="M246.4,278.6c0,0-0.6,0.5-1.1,1s-1.1,0.9-1.2,1.5c-0.1,0.5-0.2,1.5,0.7,1.4s1.4-0.9,1.6-1.3"/>
		<path class="st1" d="M245.9,278c0,0-0.7,0.3-1.1,0.8c-0.4,0.5-1.3,1.4-1.4,1.6c-0.2,0.2-1.2,1-1.2,0c0.4-0.9,0.7-1.1,1.6-1.6"/>
		<path class="st1" d="M242.6,278.7c-0.4,0.4-0.9,0.6-1,0.2c-0.1-0.4,0.2-1.1,1-1.2c0.8-0.1,1.4,0.2,2.1,0c0.6-0.2,1.9-1.5,2.3-2.3"
			/>
		<path class="st1" d="M255.8,263.9c-1.2,0.2-2.8,0.5-3.3,0.8c-0.5,0.3-0.9,0.6-1.4,1.4c-0.4,0.8-0.8,1.4-1.2,1.6
			c-0.4,0.2-1.3,0.8-1.6,1.3c-0.3,0.5-0.6,1.5-0.6,2.1c0,0.6-1.6,3-2.5,3.7c-0.9,0.7-1.5,0.6-2.7,1.2c-1.2,0.5-2,1.3-2.3,1.8
			c-0.2,0.5-0.7,0-0.8-0.6c0-0.6,0.3-1.3,0.6-2.1c0.2-0.8,0.2-2.1,0-3.4c-0.2-1.3,0-3.6,0-4.3s0-2.9,1.2-3.6s2.6-1.4,3.5-1.6
			c0.9-0.4,2.8-1.2,3.8-2.6c1-1.4,1.2-1.9,1.1-2.6c-0.1-0.8,0-1.6-0.3-2.1"/>
		<path class="st1" d="M253.1,263.3c0,0-1.3,0.3-2.1,0.8c-0.8,0.4-1.7,1.1-2.3,2.7c-1,1.1-1.3,1.5-1.8,2.1c-0.2,0.9-0.8,2.1-1,2.6
			s-0.5,1.7-1.3,2.1c-0.9,0.4-2.5,1.6-2.9,1.4c-0.1-0.7,0.2-1.2,1.3-2s1.4-1.8,1.6-2.7s0.8-2.2,1.1-3.1c0.3-0.9,1.4-2.9,3.3-4
			c1.8-1.5,2.5-2.3,3.7-4.1c1.2-1.7,3.7-4,4.2-4.8c0.4-0.8,1.1-2.4,1.4-3.4c0.3-0.9,0.8-1.7,1.2-2.2"/>
		<path class="st1" d="M261.2,248.3c0,0-0.7,0.8-1,1.5c-0.3,0.7-0.5,1.7,0,2.3c0.5,0.6,1.6,0.5,2.1,0.3c0.6-0.2,1.9-1.2,2.4-1.7"/>
		<path class="st1" d="M265.6,251.8c0,0-1.8,1.3-0.9,2.1"/>
		<path class="st1" d="M258.6,252.4c0,0,0,1.2,1.7,1.2"/>
		<path class="st1" d="M263,254.8c0,0-2.3,0.7-3.7,1.4c-1.3,0.7-2.7,1.4-3.3,2.5c-0.6,1.2-1.8,1.9,0.9,4.1"/>
		<path class="st1" d="M254.4,262.5c0,0-1-1.1-0.9-1.6s0.4-2.2,1.7-3.2c1.3-1,1.9-1.8,2.9-2.2c1-0.4,2.1-0.9,3.3-1.3"/>
		<path class="st1" d="M257.5,249c-0.6,1.3-1.1,2.4-1.5,2.9s-1.3,1.6-2,1.9c-0.7,0.4-2,1.3-3.5,0.5c-1.5-0.7-1.4-0.7-1.7-1"/>
		<path class="st1" d="M254,255.7c0,0-2.1,2-2.3,3"/>
		<path class="st1" d="M252.5,255.5c0,0-0.9,0.3-0.9,1.1"/>
		<path class="st1" d="M250.8,256.9c0,0.8,0.1,1.7-0.2,2.3c-0.4,0.6-1.5,2.1-2.2,2.6c-0.7,0.5-1.8,1.5-3.2,2.1
			c-1.5,0.6-2.3,1.2-2.6,1.5c-0.3,0.3-0.9,1-0.9,1.7"/>
		<path class="st1" d="M243.9,266c0,0-1.2,1.1-1.4,1.6s-0.4,1.5-0.3,1.8"/>
		<path class="st1" d="M241.8,272.5c0,0,0.6-1.3,0.9-2c0.3-0.7,0.6-1.8,1-2.4c0.3-0.6,0.7-1.3,1.1-1.8c0.4-0.5,0.7-0.8,1.3-1.3"/>
		<path class="st1" d="M210.3,287.2c0,0,1.6-2,2.5-2.6s1.1-1.4,4-2c2.9-0.6,3.1-0.5,5.5-0.3c2.4,0.3,4.4,1.5,5.5,1.9
			c1.1,0.4,2.4,0.8,2.8,0.1s0.1-1.2-0.8-1.9c-1-0.6-1.8-1.4-4.1-1.9s-4.9-0.9-6.5-1c-1.6-0.1-4.5-0.6-6.6-0.5
			c-2.1,0.1-4.1,1.1-5.2,1.8c-1.1,0.6-1.8,0.8-2.4,1.6"/>
		<path class="st1" d="M206,282.5c0,0,0.9-0.7,1.5-1c0.6-0.3,1.5-0.8,2.3-0.7c0.8,0.1,1.3,0.1,1.7,0.8s0.4,1.2,0.3,1.7"/>
		<path class="st1" d="M213,283c0,0,0.5-0.3,0.5-1c0.1-0.6-0.2-1.3-1.5-1.7"/>
		<path class="st1" d="M201.6,284.4c0,0,1.2-1,0.9-2s-1.8-1.2-2.4-1.2"/>
		<path class="st1" d="M210.1,278.2c0.7-0.2,2-0.4,2.7-0.6c0.6-0.3,2-0.6,3.2-0.7c1.2-0.1,3.3,0.6,4.4,1c1.1,0.5,2.6,0.6,3.9,0.9
			c1.3,0.3,4.3,1.7,5,2.1s2.4,1.7,3,1c0.6-0.7,0.2-1.3-0.2-1.6c-0.4-0.2-1.9-1.2-3.8-1.9c-1.8-0.7-3.7-1.6-5.7-2.4
			c-2-0.7-3.4-1-4.8-1s-3.9,0.5-5.2,1.1"/>
		<path class="st1" d="M213.2,274.9c0,0,0.8-0.4,0.9-0.9s0.1-0.6-0.5-1.1"/>
		<path class="st1" d="M210.8,276.1c0,0,0.7-0.7,0.9-1.3c0.2-0.6,0.5-1.3,0.1-2.1s-1.3-1.2-1.9-1.2c-0.6-0.1-1.7,0.1-2.2,0.3"/>
		<path class="st1" d="M202.3,280.4c0,0,1.3-0.5,2.6-1c1.3-0.5,2.2-0.9,2.9-1.5c0.7-0.6,1.8-1.2,2.2-2c0.4-0.8,0.5-1.4,0.1-2
			s-0.9-1.1-1.8-1.2c-0.8-0.1-1.8,0-2.7,0.2c-0.8,0.2-0.6,0.2-1,0.3"/>
		<path class="st1" d="M199.3,274.9c0,0,0.4,0,0.4-0.7s-0.4-1.7-2.5-2.3"/>
		<path class="st1" d="M201.1,274.1c0.2-0.6-0.3-1.5-0.7-2c1.5,0,2.6,0,3.2-0.2c0.6-0.2,1.8-0.4,2.2-0.7c0.4-0.3,2.1-1.1,2.7-1.6
			c0.6-0.6,1.2-1.2,1.6-1.7"/>
		<path class="st1" d="M201.1,271.1c0,0,3.3-0.3,5.2-1.5c1.9-1.2,2.6-1.9,3-3c0.4-1.1,0.7-2.4-0.8-3.6c-1.5-1.2-3.1-1.6-4.6-1.5
			s-5.4,1.2-6.7,2"/>
		<path class="st1" d="M200.2,261c0,0,1.8-0.9,3.2-1c1.4-0.1,2.8,0,3.8,0.2c0.9,0.2,1.8,0.5,2.9,0.2c1-0.2,0.7-0.9,0.5-1
			c-0.3-0.2-1.2-0.4-1.8-0.4"/>
		<path class="st1" d="M210.4,263.2c0,0,0-0.3-0.3-0.9c-0.4-0.6-1.2-1.5-1.7-1.8"/>
		<path class="st1" d="M212,270.6c0,0,1.9,1.7,2.8,2c0.9,0.3,1,0.9,2.9,0.9c2.1,0.2,3.4,0.5,4.5,0.9c1.1,0.4,5.2,1.7,7.1,2.7
			c1.9,1,3.8,2.6,4.5,2.8c0.7,0.2,1.6,0.4,1.7,0.1c-0.5-1.1-1-1.6-1.6-2.2c-0.6-0.5-2.2-1.4-3-1.8c-0.8-0.3-4.8-2.2-7.1-2.8
			c-2.4-0.6-5.6-1.3-6.6-1.8c-1.1-0.6-3.6-2.6-4.1-4.1c-0.5-1.5-1.7-4.4,0-7c1.7-2.5,2.3-4,4.2-5.1c1.8-1,3.8-2.5,7-3.2
			c3.5-0.3,12.3-0.5,15,0.2c2.7,0.8,5.2,2.1,6.2,3.3c1,1.2,1.2,2.2,0.5,2.5c-0.7,0.3-2.6,1.1-3.7,1.4s-2.5,0.9-2.9,1.4"/>
		<path class="st1" d="M247.7,254c0,0,1.1,1.6,0.9,2.5c-0.2,0.9-0.1,1.5-1,2.2c-0.9,0.7-1.7,1.5-2.5,1.9c-0.8,0.4-3.2,1.3-4.8,1.4
			c-1.7,0.7-2,0.9-2.1,1.3s-0.6,0.8,0.2,2.5c0.1,0.8-0.4,1.3-0.5,1.7s0.3,1.3,0.5,1.7c0,0.6-0.7,1.8-0.8,2.2c0.3,0.8,1,1.7,0.8,2.4
			c-0.4,0.8-1.3,1.9-1.4,2.4c0,1,0.4,2.6,1.2,2.1c0.3-1.6,0.4-2.3,1-3.3"/>
		<path class="st1" d="M241,257.7c0,0-0.6,0-2,0.7c-1.3,0.7-2.2,1.4-2.1,3.9"/>
		<path class="st1" d="M236.6,265.5c-0.4-1.6-1.2-2.5-1.4-2.9c-0.2-0.5-1-2.6-0.4-3.5s1.2-2.1,2.8-2.5c1.6-0.5,2.3-0.7,4.3,0"/>
		<path class="st1" d="M236.5,267.8c0,0-0.6-1.3-1.5-2.1s-1.9-1.7-2.4-2.5c-0.6-0.8-1.2-2.7-0.8-3.8c0.4-1.1,1.2-2.6,2.5-3.4
			c1.3-0.8,1.9-1.3,3.4-1.4c1.5-0.1,2.3-0.1,3.5,0.6"/>
		<path class="st1" d="M236.7,253.7c0,0-2,0.5-2.7,0.9s-3,2.1-3.5,2.7s-1.3,1.8-1.5,2.5c-0.2,0.7-1,2.3,0.1,3.7s2,2,2.7,2.4
			c0.8,0.4,2.7,1.2,3.3,2c0.6,0.8,0.8,0.9,1,1.6"/>
		<path class="st1" d="M236.3,272.7c0,0-0.4-1.6-1-2.3c-0.6-0.7-1.4-1.5-3.1-2.1s-4-1.9-4.5-2.5c-0.5-0.7-1.8-1.4-1.9-2.9
			c-0.1-1.5,0.3-3,1-3.7c0.8-0.7,1.7-2.3,2.5-2.9c0.8-0.5,2.6-2.2,4.6-2.8"/>
		<path class="st1" d="M235.9,274.3c0,0-0.6-1.3-1.4-2.1s-1.9-1.2-2.7-1.6c-0.8-0.4-3.3-1.4-5.1-2.5c-1.8-1.1-2-1.7-2.6-2.5
			c-0.7-0.9-1.4-2.9-0.7-4.3c0.7-1.5,1.2-2.4,2.2-3.4c1-1,1.9-1.9,2.9-2.5c1-0.6,2.5-1.4,3.6-1.8"/>
		<path class="st1" d="M230.7,253.2c0,0-2.1,0.6-3.5,1.4c-1.4,0.8-3.5,2.1-4.1,2.8c-0.6,0.7-2,2.9-2.2,4c-0.2,1.1,0.4,4.6,2.4,6.4
			c2,1.8,3.5,2.8,4.8,3.3c1.3,0.5,2.7,1.2,3.9,1.6c1.2,0.4,3.1,1.8,3.6,3.6"/>
		<path class="st1" d="M234.1,276.1c0,0-2-1.6-3.2-2s-2.4-1.2-4.1-1.8c-1.7-0.6-3-1.6-3.6-2c-0.6-0.4-2.4-1.3-3.6-3.3
			c-1.2-2-1.5-3.4-1.3-4.4c0.2-1,0.4-2.8,1.5-4.2c1.2-1.3,2-2.3,3.2-3.1c1.2-0.8,3.1-1.7,3.9-2.1"/>
		<path class="st1" d="M222.4,253.9c0,0-1.8,1.1-2.4,1.6c-0.7,0.5-2.5,2-3,3c-0.6,0.9-1.7,2.7-1.8,3.9c-0.1,1.2,0.1,3.8,1.6,5.3
			c1.5,1.5,2.6,2.6,5.7,3.7"/>
		<path class="st1" d="M193.5,263.5c0,0,1-0.9,0.9-2s-1.1-1.6-2.1-1.9"/>
		<path class="st1" d="M193.5,265c0,0,1.3-1.8,2.1-2.4c0.8-0.6,3-2.3,3.8-2.7s2.5-1.8,5.7-1.7c2.9-0.1,3.8-0.2,4.6-0.4
			s4.9-1.8,7.4-4.3c3.4-2.1,4.9-3.1,8.6-3.2s6.3-0.5,7.5-0.4s3-0.1,5.7,0.9c2.6,0.9,4.5,2.3,4.8,2.5"/>
		<path class="st1" d="M192.8,258.5c0,0,1.1,0.6,2.6,0.6c1.5,0,2.7-0.2,3.8-0.7s2.7-1.3,4.2-1.4c1.5-0.1,2.3,0,3.9-0.1
			c1.6-0.1,2.2,0,2.9-0.5"/>
		<path class="st1" d="M192.5,257c0,0,0.5,0.8,2.8,0.8c2.3,0,2.6-0.1,3.3-0.7s1.5-1.7,1.5-2.5c0.1-0.8-0.1-2.1-1.1-3
			c-1.1-0.9-1.8-1.5-3.3-2.1"/>
		<path class="st1" d="M206.2,255.7c0,0-1.6-0.1-2.4-1.3c-0.8-1.2-1.5-2.5-2.2-3c-0.7-0.5-3-2.3-4.9-2.9"/>
		<path class="st1" d="M196.6,247.4c0,0,1.2,0.9,3,0.7c1.8-0.2,2.7-1,3.4-1.5"/>
		<path class="st1" d="M204.2,247.3c0,0-1,1.7-0.9,2.3c0.1,0.7,0,2.3,1.3,3.8"/>
		<path class="st1" d="M204.9,248.5c0,0-0.6,1.3-0.4,2.1c0.2,0.9,0.5,2.9,3.2,3.7c2.6,0.7,5.8,0.7,7.9-1.4c2-2,1.4-4.2,1-4.8
			s-1.1-1.5-1.7-1.7"/>
		<path class="st1" d="M244.5,252.1c0,0-0.8-1.6-0.4-2.3c0.4-0.7,1.2-1.5,2-1.8"/>
		<path class="st1" d="M241.9,250.6c0,0,1.2-0.7,1.4-1.1c0.2-0.4,0.1-1.6-0.3-2.2"/>
		<path class="st1" d="M240.3,250.1c0,0,1.1,0,1.5-0.6c0.4-0.7,0.6-1.6,0-2.4"/>
		<path class="st1" d="M240.1,246.6c0,0,0.5,0.7,0.5,1.2c0,0.5-0.2,1.6-1.8,1.9"/>
		<path class="st1" d="M236.8,249.2c0,0,2.7-0.6,0.9-3.1"/>
		<path class="st1" d="M235.7,246c0,0,2,1.6-0.4,3.2"/>
		<path class="st1" d="M233.5,249.2c0,0,1.5-0.9,0.4-2.9"/>
		<path class="st1" d="M232.8,246.5c0,0,0.3,1.3-0.2,2.5"/>
		<path class="st1" d="M231.5,246.6c0,0-1.2,1.4-0.1,2.4"/>
		<path class="st1" d="M229.7,249.3c0,0-1.3-0.8-0.3-2.1"/>
		<path class="st1" d="M227.9,247.4c0,0-1.4,1.4,0.2,2.4"/>
		<path class="st1" d="M225.9,247.9c0,0-1.4,1.2,0.2,1.8"/>
		<path class="st1" d="M224.1,248.5c0,0-1,0.8,0.4,1.4"/>
		<path class="st1" d="M222.6,248.7c0,0-0.8,0.8,0.4,1.6"/>
		<path class="st1" d="M201.6,253.7c0,0-0.2,1.6,1.5,2.1"/>
		<path class="st1" d="M217.8,251.3c0,0,0.8-2.2-0.1-3.7c-0.9-1.5-1.7-2.2-3.9-2.3"/>
		<path class="st1" d="M219.5,250.6c0,0,0.5-1.1-0.4-2.3"/>
		<path class="st1" d="M220.6,249.5c0,0,0.1-1.3-1.5-2.3s-1.5-1.3-2.1-2c-0.6-0.7-0.7-2-0.7-3"/>
		<path class="st1" d="M212.6,244.5c0,0,1.9-0.9,2.2-1.7c0.3-0.8,0.1-0.8,0.2-1.4"/>
		<path class="st1" d="M217.4,242.1c0,0-0.1,3.5,3.6,4.2s4-0.5,4.3-1.4s0.1-1.6,0-2"/>
		<path class="st1" d="M225.9,246c0,0,0.4-0.4,0.6-1.5c0.2-1-0.2-2-1-2.5s-0.8-0.7-1.2-0.9"/>
		<path class="st1" d="M226.6,241.9c0,0-1-1.3-1.9-1.4"/>
		<path class="st1" d="M221.3,247.4c0,0,2.1,0.4,4,0c1.9-0.4,3.5-1.3,5.3-1.6c1.8-0.3,5.6-0.7,8.1-0.5c2.5,0.2,3.4,0.9,4.5,0.9
			c1.2,0,1.1,0.1,1.7,0"/>
		<path class="st1" d="M244.8,247.8c0,0,1.2-1.4,2.7-1.3"/>
		<path class="st1" d="M247.2,245.2c0,0-2.2,0.6-3.5,0c-1.3-0.6-2.9-2.1-2.1-4.2"/>
		<path class="st1" d="M243,243.6c0,0,1.4,0.4,1.9,0.7"/>
		<path class="st1" d="M238,244.2c0,0,1.6-1.2,1.7-1.7c0.2-0.5,0.4-1.7,0.7-2.2c0.3-0.5,1-1.5,2-1.9"/>
		<path class="st1" d="M236.6,244c0,0,2.2-1.6,2-3s-0.6-1.5-1.4-2"/>
		<path class="st1" d="M234.9,244.2c0,0,1.4-1,1.5-2.8c0.1-1.7-0.7-2-1.2-2.6"/>
		<path class="st1" d="M233.8,244.2c0,0,1-1.4,1-2.9s-0.4-1.8-0.7-2.1"/>
		<path class="st1" d="M233.2,239.8c0,0,0.1,3-0.1,4.2"/>
		<path class="st1" d="M232.3,239.7c0,0-1,1.4-1.1,2.2s-0.3,1.7,1.4,3"/>
		<path class="st1" d="M230.8,245c0,0-1.7-0.9-1.6-2.3s0.8-2.2,1.5-2.7"/>
		<path class="st1" d="M228.2,241c0,0-1.4,2.4,0.4,3.6"/>
		<path class="st1" d="M229,239.8c0,0,1.4-0.6,1.9-0.9c0.5-0.3,1.6-1,2.4-1s1.8-0.1,2.7,0c0.9,0.1,2.9,0.3,4.3,0.1
			c1.4-0.2,1.3-0.2,1.9-0.5"/>
		<path class="st1" d="M242.1,236.6c0,0-0.7,0.5-1.7,0.4c-1,0-2-0.2-2.5-1.3c-0.4-1.1-0.1-1.7,0.2-2.2"/>
		<path class="st1" d="M237.9,237.2c0,0-2.2-2-0.7-3.9"/>
		<path class="st1" d="M235.3,233.3c0,0,1.9,1.1,0.3,3.4"/>
		<path class="st1" d="M234.7,236.3c0,0,1.1-1.3,0.3-2.9"/>
		<path class="st1" d="M233.9,236.5c0,0,0.5-0.6,0.4-1.6c-0.1-1-0.2-1-0.4-1.3"/>
		<path class="st1" d="M233.5,234.1c0,0-0.2,1.6-0.1,2.2"/>
		<path class="st1" d="M233.1,237c0,0-1.7-1.7-0.1-3.3"/>
		<path class="st1" d="M231.9,234.6c0,0.1-1,1.4,0.2,2.7"/>
		<path class="st1" d="M228.7,238.8c0,0,1.4-1.4,0.4-3.2"/>
		<path class="st1" d="M229.8,238.6c0,0,0.7-1.3,0.6-2.3c-0.1-1-1-1.6-1.3-2"/>
		<path class="st1" d="M230.8,234.6c0,0-0.9,1.8,0.5,3.1"/>
		<path class="st1" d="M229.9,233.5c0,0,1.9-1,2.3-1.9"/>
		<path class="st1" d="M231.8,233.3c0,0,0.8-1,1.5-1.2c0.7-0.1,1.3,0.1,2.1,0.1c0.8-0.1,1.9-0.3,2.3-0.8"/>
		<path class="st1" d="M234.3,229.4c0.3,0.2,0.5,0.3,0.5,0.4"/>
		<path class="st1" d="M233.9,230.4c0,0,0.7-0.1,0.9,0.2"/>
		<path class="st1" d="M234.3,231.1c0,0,0.4,0,0.7,0.4"/>
		<path class="st1" d="M235.5,230.1c0,0,0.2,0.8,1,1c0.8,0.2,1.1,0.1,1.2,0"/>
	</g>
</g>
<g id="Слой_3">
	<path class="st2" d="M1243.3,463c0,0,1-8.5,10.4-5.3"/>
	<path class="st3" d="M1244.5,456.2c0,0,2.3-3.8,6.9-1.5"/>
	<path class="st3" d="M1245.6,449.7c0,0,1.3,1.8,2,2"/>
	<path class="st3" d="M1256.2,453.6c0,0-1,1.8,0.3,3.1"/>
	<path class="st3" d="M1254.5,451.8c-4.5-1.7-6.1-1.9-6.9-5.9c-0.3-4.7,0.3-6.8,2.2-7.7c1.9-0.9,3.6-2.4,6.1-2.4c3,0.8,4,1,7.3,3.3"
		/>
	<path class="st3" d="M1252.3,440.7c0,0,1.4-1.2,4.5-0.3"/>
	<path class="st3" d="M1266.9,436.5c0,0-0.9-2.1,1.1-2.7"/>
	<path class="st3" d="M1265.2,437.7c0,0-3.8-4.2,0.2-5.3"/>
	<path class="st3" d="M1248.8,435.5c0,0,4.6-5.1,11.5-1.9"/>
	<path class="st3" d="M1242.6,466.9c-0.1-0.1-3.6-6.4-0.8-11.3c1.9-5.1,1.1-5.1,0.8-8.3c0.5-3.8,1.1-6.6,1-9.7s-0.1-7.8,1.9-10.5
		c0.6-5,1-4.7-0.9-12.4c-0.2-8.1,0.3-14,1.4-16.6c1-2.6,4.9-9.8,5.4-10.9"/>
	<path class="st3" d="M1246.1,433.5c0,0,3.4-7.9,3.9-12.8c-0.8-5.4-0.5-3.8-2-8.9c0.7-7.3,1.4-12.9,2.6-15.3s3.1-5.6,5.5-2.4
		c2.5,3.5,3.8,5.1,6.7,5.6"/>
	<path class="st3" d="M1251.5,426.4c0,0-0.1,3.5,4.3,4.6"/>
	<path class="st3" d="M1262,430.2c0,0-4.9,0.7-7.3-3.4c-0.7-4.7-0.3-6.6-0.9-9.1c-0.6-2.5-2.1-5.9-0.7-8.5s4.5-7.4,2.3-9.4
		c-2.7,0.5-4.3,4.8-4.3,7.3"/>
	<path class="st3" d="M1255.8,421.8c0,0,1.6-1.4,1.7-4.5s-1.2-1.4-1.5-5.4c0.2-4.1,2.2-8.9,5.8-9c3.2,1.9,5.3,2.8,6.1,9"/>
	<path class="st3" d="M1273.2,410.7c0,0-0.8-3.8,3.1-3.5"/>
	<path class="st3" d="M1270.4,408.9c0,0-1.8-3.3-1.1-4.7c1.5-1,2.6-0.2,4.2,0.8"/>
	<path class="st3" d="M1254.9,388.2c0,0-2.6-4.4,1.2-6.3c2.3,1.6,1.8,5,1.7,5.8c0.1,1.2,2,5.6,3.3,7"/>
	<path class="st3" d="M1267.1,398.4c0,0-4.3-4.2-5.5-8.5c-1.2-4.3-0.6-7.5-1-9.7c-0.5-2.3-0.2-4.9,1.7-4.6c2,0.3,1.8,3.2,1.9,4.7
		c0.1,1.5,0.1,3.1,0.3,3.4"/>
	<path class="st3" d="M1269.8,398.4c0,0-4.5-4.8-2.3-9.4c3.3-2.5,4.7-2.1,8.8,0.6c4.1,2.7,3.7,6.9,4.7,8.6"/>
	<path class="st3" d="M1269.4,381.9c0,0-3.5-5.1-0.7-6.7c3.1,0.5,1.9,1.9,5.2,7.4c5.8,6.2,7.3,8,8.1,12.6"/>
	<path class="st3" d="M1284.5,399.3c0,0-0.4-3.5,1.2-4.4c1.7-1,3.6,0.1,4.2,0.4"/>
	<path class="st3" d="M1288.1,401.2c0,0,0-2.9,3.3-2.6"/>
	<path class="st3" d="M1286.3,390.5c0,0-5.6-3.7-7.5-11c-1.9-7.3-1.4-8.7-4.9-9.3c-1.9,1.2-1,3.4,0.6,6.1"/>
	<path class="st3" d="M1281.7,380.6c0,0,1.3-5.1-1-8.7c-2.1-2.1-2.9-3.4-2.2-4.8c1.6-1.2,2.5-0.9,3.7-0.6c1.2,0.3,3,2.6,3.5,2.9"/>
	<path class="st3" d="M1292.6,393.4c0,0-7.2-4.3-7.8-9.8c0.6-5.9,2.4-9.2,7.8-10.2c5.4-1,9.6,0.5,12.3,2.2c2.7,1.7,4.6,3.8,4.6,3.8"
		/>
	<path class="st3" d="M1317,373.4c0,0-4,0-3.6,5.9"/>
	<path class="st3" d="M1303.8,371.8c0,0-1.5-2.6-6.7-3.7c-5.4-2.2-4.6-2.4-7.3-5c-2.7-2.6-4.4-3.7-6.1-3.7c-1.7,0.3-4.1,3.1,1.1,5.3
		"/>
	<path class="st3" d="M1294.4,362.3c0,0-1.8-4.2-4.6-6.5c-2.8-2.3-5.8-4.5-6.1-2.7c-0.3,1.8,0,2.3,1.1,3.3"/>
	<path class="st3" d="M1307.1,369.7c0,0-7.8-5.1-9.3-7.4c-1.5-2.3-4.7-10.5-10.8-12.8c-5.2-2.1-2.6-4.1-1.6-4.5
		c1.9,0.3,4,2.4,5.4,3.1s2.9,1.7,5.2,1.7"/>
	<path class="st3" d="M1297,346.4c0,0-3.5-3.1-6.1-3.3c-2.5-0.2-4.9-0.6-5.3-1.8c-0.4-1.2,0.2-2.9,1.8-3.2s3.9,0.9,6.5,3.1
		c2.6,1.9,2.3,1.7,2.3,1.7"/>
	<path class="st3" d="M1311,367.5c0,0-4.6-0.9-9.4-6c-2-5.4-2.1-6.6-1.3-9.1s1.9-2.7,1.3-6.2c-0.2-3.7,0.3-5.3,3.9-8.2
		c0.9-3.5,1.7-7.1,5.5-8.2c3.8-1.1,10.8-2.2,18.1,1.7"/>
	<path class="st3" d="M1299.2,337.2c-1.1-1.2-2.8-2.2-5.8-2.6c-3-0.5-6.4-0.2-6.1-3.1c1.5-2.7,3.3-2.5,6.5-2.4
		c3.1,0.1,9,0.5,12.5-1.1c3.5-1.6,13-6.8,26.9,1.1"/>
	<path class="st3" d="M1339.2,333.7c0,0,4.2-6.5,12.4-3"/>
	<path class="st3" d="M1238.2,460.9c0,0-0.5-3.5,1-6.2c1.5-2.7-0.2-6.9,0-8.8s0.8-5.4,0.3-9.2c0.5-4.6,2.1-7.8,2.7-9.4
		c0.6-1.6,1.5-6.6-0.7-10.7c-0.3-4.8-0.2-15.7,0.4-17.3c0.6-1.6,2.2-8.9,3.3-12s4.1-10.3,0.9-10.7c-3.4,0.3-6.8,3.7-8,6
		c-1.3,2.3-3.3,9.7-5.2,13.6c-1.9,3.8-4.9,10.5-11.4,12.5"/>
	<path class="st3" d="M1235.8,464.8c0-0.1-1.4-2-1.6-3.6c-0.1-1.6,0.1-4.6-0.6-5.6s-1.2-3.4-1.1-5.7c0.1-2.3-1.1-3.3-1.7-4.6
		c-0.6-1.3-0.5-4.7-0.7-6.9s-1.2-2.8-1.5-4.8c-0.3-2,0.2-8.1-0.4-11s-1.1-5.8-3.6-7.3s-4.5-3.1-7.1-3.1c-2.6,0-4.7,0.8-5.7,1.5"/>
	<path class="st3" d="M1235,460.1c0,0,0.7-0.5,2-1.9"/>
	<path class="st3" d="M1234.6,454.1c0,0,1.5-2.2,2.9-2.9"/>
	<path class="st3" d="M1234.6,449.3c0,0,1.1-2.5,2.4-3.3"/>
	<path class="st3" d="M1233.6,444.3c0,0,2-4.4,3.8-6.1"/>
	<path class="st3" d="M1232.5,439.7c0,0,2.9-10.6,3.7-11.7c0.8-1.1,2.4-4.8,4.2-5.6"/>
	<path class="st3" d="M1232.1,430.4c0,0,3.3-10.8,7.2-13.2"/>
	<path class="st3" d="M1231.3,420.6c0,0,2.6-3.9,4.1-5c1.5-1.1,3-3.4,3.3-3.9"/>
	<path class="st3" d="M1229.4,413.9c0,0,3.1-2.9,5.9-4c2.7-1,4-5.6,4.1-6"/>
	<path class="st3" d="M1228.7,409.3c0,0,6-4.7,7.4-6.8c1.3-2.2,2.6-6.8,3.5-9.4c0.9-2.6,3.1-8.6,4.3-10.4"/>
	<path class="st3" d="M1205.1,407.9c0,0,4.3,1.9,2.6,5.2"/>
	<path class="st3" d="M1207.4,406c0,0,6.7,3.8,12.9,0c6.2-3.8,7.2-8.6,7.4-10.8c0.2-2.2,1.1-9.2-4.4-14.4c-5.9-4.3-8.2-4-10.8-3.9
		c-2.6,0.1-6.8,0.4-10.4,5"/>
	<path class="st3" d="M1230.1,394.3c0,0,2.8-7.7,4.1-9.9s3-5.9,5.7-7.6c2.7-1.7,3.3-2.8,3-3.8c-1.2-0.8-2.1-0.4-3.7,0.3
		c-1.5,0.7-4.5,4.3-5.4,6.1c-0.9,1.9-2,3.9-2.5,5"/>
	<path class="st3" d="M1223.6,377.2c0,0,3.6-0.1,3.2,3.9"/>
	<path class="st3" d="M1228.7,382.6c0,0,0.8-2.4,2.5-4.9c1.7-2.5,2.6-4.2,4.9-5.5c2.3-1.3,4.8-3.9,4.2-4.8c-2.3-0.7-2.5-0.5-4.3,0.2
		c-1.8,0.7-4.3,3.3-6.9,4.1c-2.6,0.9-4.1,1.4-10,1.5c-5.9,0.1-7.3-0.2-9.6,0.6c-2.3,0.8-3.7,1.3-4.5,2.1"/>
	<path class="st3" d="M1199,378.5c0,0.1,2.5-1.3,2.1-2.6c-0.8-1.4-3.4-2.4-4-2.5"/>
	<path class="st3" d="M1219,370.5c0.1,0,0.7,0.5,3.8,0c3.1-0.5,8-2.9,9.4-4.2c1.4-1.3,3.9-2.3,3-3.9c-2.2-1.1-3.8-0.3-6.9,1.4
		c-3.1,1.7-5.9,3.6-8.6,4.2s-2.6,0.3-2.6,0.3"/>
	<path class="st3" d="M1217.7,367c0,0-0.1-1,2.6-2.5c2.7-1.5,5.7-3.6,8.9-4.4c3.2-0.9,3.6-1.7,3.9-2.9s0.3-1.8-1-2.5
		s-5.6,1.7-6.9,2.5c-1.2,0.8-2.6,1.8-3.8,2.8"/>
	<path class="st3" d="M1195.5,370.7c0,0,3.3,1.4,9.2,0.3c5.9-1,10.1-4.2,11.6-6.1c1.5-2,2.4-5.7,0-8c-2.4-2.2-4.6-2.4-6.3-2.6
		c-1.7-0.1-6.5,1.3-7.9,1.7"/>
	<path class="st3" d="M1218.7,354.9c0,0,3.4-0.3,2.4,2.6"/>
	<path class="st3" d="M1194.3,349.1c0,0,4.3,1.3,3.4,3.8c-0.9,2.4-1.5,3.1-3.4,3.8"/>
	<path class="st3" d="M1212.6,351.6c0,0,4.4-0.3,6,0.3c1.7,0.6,6.6,1.5,8.9,0.9c2.3-0.6,4.4-1.9,4.1-3.3c-1.5-1.7-2.6-2.5-6-2.8
		c-3.4-0.3-5.2,0.6-8,1.2c-2.7,0.6-5.9,0.9-9,0.9c-3.1,0-8.1,0-11.4-1.1"/>
	<path class="st3" d="M1208.3,346.1c0,0,4.8-1.2,8.6-1.4s9.7-0.4,11.7-1.4c2-1.1,2.9-2.6,1.1-3.6c-1.8-0.9-4.3-0.3-6.4,0.5
		s-5.3,2.5-6.6,2.7"/>
	<path class="st3" d="M1216.4,339.9c0,0,1.1-1.9,4.9-2.4c3.8-0.5,7.2-0.5,8.2-1.5c1-1,1.6-1.9,1-3.1s-2.9-2-5.1-1.2
		c-2.2,0.8-4.4,2.9-7.1,3.4"/>
	<path class="st3" d="M1328.8,308.4c0,0,0.3,1.5-0.9,2.6s-3.2,2.1-4.2,3.2s-1.8,2.6,0.3,3.4c2,0.9,3.3-0.5,6.5,2.5c3.2,3,3,3,5,4.2
		c2.4,1.2,3.1,2.7,6.5,2.6"/>
	<path class="st3" d="M1328.4,306.7c0,0-4.3,3.9-7,5.6c-2.7,1.7-6.4,4.6-13.3,6c-6.9,1.3-8.3,2.2-11.1,2.6c-2.7,0.3-5.7,0.4-7.4,1.6
		c-1.6,1.2-2,2.9,0.4,3.1c2.4,0.3,6.2,0.2,8.3-0.2c2-0.3,5.8-1.7,9.6-2.5c3.8-0.7,9.4-1.9,14.7-1s6.1,0.8,12.4,5.8"/>
	<path class="st3" d="M1355.2,293.6c-0.2,0.1-11.9-0.6-17.5,6.4s-5.4,11.4-4.9,16.1c0.6,4.7,10.3,9.6,15.4,8.7"/>
	<path class="st3" d="M1191.9,344c0,0,10.8,2.5,16.7-1.3c5.9-3.8,6.6-5.3,5.8-10.6c-0.8-5.3-7.2-8.3-10.7-9.8s-8.4-3-12.9-0.6
		c-4.5,2.4-10.1,6.1-11.7,6.7"/>
	<path class="st3" d="M1252.2,372.6c0,0-1.3-4.9,0.7-6.7c2-1.8,6.9-0.7,3.2,6"/>
	<path class="st3" d="M1248.9,367.3c0,0,0.8-6.1,2.6-7.3c1.8-1.2,10.2-4.9,8.9,9.4"/>
	<path class="st3" d="M1263.7,365.3c0,0,2.9-6.1,2-10.1s-3.6-6.5-7.4-6.6c-3.8-0.1-6.8,1.7-7.9,3.9c-1.1,2.1-2.7,6.3-2.8,10.9"/>
	<path class="st3" d="M1269.5,355.4c0,0,1.7-7.1,0-10.5s-4.1-4.6-6.8-5.1s-6.2-0.7-9.4,1.1c-3.3,1.9-6.2,2.3-7.1,10
		c-1,7.7-0.6,8.3-0.6,8.3"/>
	<path class="st3" d="M1274.3,351.6c0,0,2.6-4.7,1.5-9.8s-3.8-7.9-6.4-9.8c-2.7-1.9-7.2-4.3-12.6-3.2s-7.8,3.4-11.3,8.7
		c-3.5,5.4-2,19.8-2,19.8"/>
	<path class="st3" d="M1277.9,335.8c0,0-0.1-6.8-4.1-10.5c-4.1-3.6-5.4-2.9-8.3-5.6c-2.9-2.7-3.4-3.3-4.9-3.3
		c-1.5-0.1-2.7,0.6-4.6,1.5c-2,0.9-3.3,2.5-5.1,3.5s-5.2,4.1-6.4,6.6c-1.2,2.5-3.6,7-3.9,10.7c-0.3,3.6-0.5,12.8,0.8,16.2"/>
	<path class="st3" d="M1279.1,342.9c0,0,3.6-5.3,1.9-12.2c-1.7-6.9-5.6-10-7.4-11.3c-1.9-1.3-5.6-4.1-6.6-5.7s-5-4.1-7-4
		c-2,0.2-4.1,1.2-6.4,2.9s-4.9,4.3-7.3,5.7c-2.5,1.5-4.7,4.4-5.8,5.9c-1.1,1.5-3.3,4.7-3.6,11.9c-0.3,7.2,0.2,10.3,1.2,12.9"/>
	<path class="st3" d="M1218.1,332c0,0,1.7-0.8-0.3-3s-2.6-2.1-2.6-2.1"/>
	<path class="st3" d="M1201.6,318c0,0,6.1,0.6,9.1,2.5c3,1.9,7.8,5.9,10.6,7c2.8,1,8.2,1.5,10.2,0.1c2.1-1.4,1.6-2.9,0.3-3.9
		c-1.3-0.9-9.9-4.9-11.3-5.7c-1.4-0.8-5.9-2.4-8.7-2.7c-2.8-0.3-9.9-0.2-11.4,0s-8.7,2.9-10.1,3.7"/>
	<path class="st3" d="M1213.5,318.5c0,0,0.9,0.4,2.9,1.3c2,0.9,3.8,2.3,5.5,2.9c1.8,0.6,4.1,2,4.5,1.8"/>
	<path class="st3" d="M1351.6,279.4c0,0-2.8,6,2.8,5.6"/>
	<path class="st3" d="M1348.9,278.5c0,0-4.9,5.9-10.1,8.9c-5.7,3.9-12.6,8.7-14.6,10.3c-1.9,1.6-12.7,9.8-12.9,11.6
		c-0.2,1.8,0.3,2.8,2,2.4c2.4-1.1,10.9-6.3,13-8.1s10.8-9.4,13.4-10.5c2.6-1,12.1-4.7,13.5-5"/>
	<path class="st3" d="M1338.2,264.8c0,0.1-3.5,4.8-4.1,6.6s-2.3,4.7-1.6,7.2c0.7,2.5,1.8,3.4,3.3,3.9c1.5,0.5,4.3-0.4,6.4-1.3
		c2-1,2.8-1.5,3.6-2.3"/>
	<path class="st3" d="M1322.1,260.3c0,0,1.5,5.3,5,5.6c3.5,0.4,6.4-3.8,7.6-5.6"/>
	<path class="st3" d="M1336.5,262.9c0,0-5.2,3.4-7.9,10.3s-3.6,9.7-3.7,11.3c-0.2,1.5-2.5,6.6-4.3,8.3"/>
	<path class="st3" d="M1330.4,284.3c0,0-0.4,4.1-4.4,7.7c-4,3.5-6.3,5.2-8,6.4c-1.7,1.2-9.9,7.6-12.7,10s-8.7,7.2-11,8.3
		c-2.3,1.1-5.7,3.4-7.1,2.3c-1.4-1.1-0.4-4.1,1.5-4.9c1.9-0.9,9.2-5,10.9-6.1c1.7-1,9.1-6.5,11-8.1c1.9-1.6,7-6.5,8.5-10
		c1.5-3.5,3-7.4,3.4-9c0.4-1.6,0.9-4.8,0.8-6.4"/>
	<path class="st3" d="M1320.5,274.1c-1.4,5.7-3.4,14.8-9.6,19.9c-6.1,5-9.4,6.7-13.9,6.6c-4.4-0.1-8.8-2.3-10.5-5.1
		c-1.7-2.8-1-6.3,0-7.8c1-1.5,2-3.3,2-4.7c-0.1-1.4-1.5-4.7,1.2-6.7s6.2-5.7,6.9-6.9s2.6-3.7,4.3-4.6s4.8-2.2,6.2-2.2"/>
	<path class="st3" d="M1294.9,304.1c-0.8,1.3-2,3.1-0.8,3.4c1.2,0.3,1.5-0.1,3.6-1.5s3.1-1.9,3.7-2.3"/>
	<path class="st3" d="M1292.9,303.7c0,0-1.7,3.8-3.1,5.3c-1.4,1.5-4.3,6.7-6.9,7.1c-2.5,0.4-4.6-1.3-3.3-3c1.3-1.7,4.1-3,5.5-4.3
		c1.4-1.2,4-3.9,4.2-6.7"/>
	<path class="st3" d="M1286.8,300.8c0,0,0,2.8-0.7,4s-2,3.2-2.7,3.8c-0.7,0.6-3.1,2-3.3,1c-0.3-1,1.1-2.7,1.6-3.5
		c0.5-0.8,2.3-3.7,2.3-5.5c0-1.8-0.2-2.6-0.2-2.6"/>
	<path class="st3" d="M1280.4,301.5c0,0-1.8,1.4-3.2,2.8s-3.2,2.6-3.5,4.2c-0.3,1.6-0.6,4.1,1.9,3.9c2.4-0.2,3.9-2.4,4.6-3.8"/>
	<path class="st3" d="M1278.9,299.8c0,0-2,0.8-3.2,2.2s-3.6,3.9-4.1,4.6s-3.4,2.8-3.5,0c1.2-2.7,2.1-3,4.6-4.6"/>
	<path class="st3" d="M1269.5,301.7c-1.2,1.1-2.5,1.8-2.9,0.6s0.6-3.1,2.9-3.5c2.3-0.4,4.1,0.7,5.9,0s5.4-4.2,6.6-6.6"/>
	<path class="st3" d="M1307.1,259.6c-3.4,0.4-7.9,1.4-9.3,2.3c-1.4,0.9-2.6,1.7-3.9,4.1s-2.2,4-3.4,4.7s-3.6,2.3-4.5,3.8
		c-0.8,1.6-1.6,4.2-1.7,5.9c-0.1,1.7-4.6,8.6-7.1,10.7c-2.5,2-4.2,1.8-7.7,3.4c-3.5,1.6-5.8,3.7-6.4,5c-0.6,1.3-2.1,0-2.2-1.7
		c-0.1-1.6,0.9-3.7,1.6-5.9c0.7-2.1,0.6-5.9,0.1-9.5c-0.5-3.6,0.1-10.4,0-12.2c-0.1-1.9,0.1-8.2,3.3-10.1c3.3-1.9,7.5-3.9,10-4.5
		c2.6-1.1,7.9-3.4,10.8-7.4c2.9-4,3.3-5.3,3.1-7.5c-0.2-2.2-0.1-4.5-1-6"/>
	<path class="st3" d="M1299.4,258c0,0-3.7,1-6,2.3c-2.3,1.3-4.7,3.1-6.5,7.6c-2.7,3.1-3.7,4.3-5.1,6c-0.7,2.6-2.3,6.1-2.7,7.3
		s-1.4,4.7-3.8,6c-2.4,1.3-7.1,4.5-8.3,4c-0.3-2,0.5-3.4,3.6-5.7c3.1-2.3,4-5.2,4.6-7.6c0.6-2.4,2.3-6.2,3.1-8.7
		c0.8-2.5,3.9-8.4,9.4-11.5c5-4.2,7.2-6.7,10.6-11.5s10.6-11.4,11.8-13.6c1.2-2.2,3.1-6.9,3.9-9.6c0.7-2.6,2.2-4.9,3.5-6.4"/>
	<path class="st3" d="M1322.3,215.3c0,0-2.1,2.2-2.9,4.2c-0.8,2-1.5,4.8,0,6.6c1.5,1.8,4.5,1.5,6.1,0.9s5.5-3.4,6.9-4.9"/>
	<path class="st3" d="M1334.9,225.2c0,0-5.1,3.8-2.5,5.8"/>
	<path class="st3" d="M1315.1,227c0,0-0.1,3.4,4.9,3.5"/>
	<path class="st3" d="M1327.4,233.8c0,0-6.6,2.1-10.4,4.1c-3.7,2-7.7,3.9-9.5,7.2s-5.2,5.5,2.5,11.7"/>
	<path class="st3" d="M1303,255.8c0,0-2.8-3-2.5-4.6c0.3-1.6,1.1-6.2,4.7-9.1s5.4-5,8.2-6.2c2.8-1.2,5.9-2.6,9.5-3.7"/>
	<path class="st3" d="M1311.9,217.2c-1.8,3.8-3.1,6.8-4.2,8.3s-3.6,4.5-5.6,5.5c-2,1-5.7,3.6-10.1,1.4c-4.4-2.1-3.9-2-4.8-2.9"/>
	<path class="st3" d="M1301.9,236.3c0,0-6,5.6-6.4,8.6"/>
	<path class="st3" d="M1297.6,235.9c0,0-2.5,1-2.5,3.3"/>
	<path class="st3" d="M1292.7,239.7c0.1,2.3,0.4,4.9-0.6,6.6c-1,1.7-4.3,6-6.2,7.5c-2,1.5-5,4.4-9.2,5.9c-4.2,1.8-6.5,3.6-7.4,4.4
		c-0.9,0.8-2.5,2.8-2.6,4.9"/>
	<path class="st3" d="M1273.1,265.7c0,0-3.5,3-3.9,4.7s-1,4.2-1,5.2"/>
	<path class="st3" d="M1267.3,284.2c0,0,1.7-3.8,2.4-5.7c0.7-1.9,1.7-5.1,2.7-6.8s2-3.8,3.2-5.2c1.3-1.4,2-2.4,3.6-3.8"/>
	<path class="st3" d="M1177.8,326c0,0,4.6-5.7,7-7.5c2.4-1.8,3.1-4,11.2-5.6c8.2-1.6,8.8-1.5,15.6-0.8s12.4,4.3,15.6,5.5
		c3.2,1.2,6.9,2.3,8.1,0.2s0.3-3.5-2.4-5.3c-2.7-1.8-5-3.9-11.7-5.5c-6.7-1.6-14-2.6-18.6-3c-4.6-0.4-12.8-1.6-18.6-1.3
		c-5.9,0.3-11.7,3.2-14.8,5s-5,2.4-6.7,4.7"/>
	<path class="st3" d="M1165.4,312.7c0,0,2.5-1.9,4.3-2.8s4.1-2.3,6.5-2c2.4,0.3,3.6,0.2,4.9,2.4c1.3,2.2,1.2,3.5,0.9,4.8"/>
	<path class="st3" d="M1185.3,314.1c0,0,1.3-0.9,1.5-2.7s-0.4-3.8-4.2-4.9"/>
	<path class="st3" d="M1153.1,318.1c0,0,3.4-2.8,2.6-5.7c-0.8-2.9-5-3.5-6.9-3.5"/>
	<path class="st3" d="M1177.2,300.3c2-0.5,5.8-1.1,7.6-1.8c1.8-0.7,5.8-1.8,9.1-2c3.3-0.2,9.5,1.6,12.5,3c3,1.4,7.4,1.8,11.1,2.6
		s12.1,4.8,14.3,5.8c2.1,1.1,6.8,4.8,8.5,2.8c1.7-2,0.6-3.8-0.5-4.5c-1.1-0.7-5.4-3.4-10.7-5.4c-5.2-2-10.6-4.7-16.2-6.8
		c-5.6-2.1-9.5-2.8-13.5-2.7c-4,0.1-11,1.3-14.9,3.1"/>
	<path class="st3" d="M1185.9,291c0,0,2.3-1,2.6-2.5c0.3-1.5,0.2-1.7-1.5-3.3"/>
	<path class="st3" d="M1179.2,294.5c0,0,2.1-2.1,2.7-3.8c0.6-1.7,1.3-3.8,0.4-6c-0.9-2.2-3.8-3.3-5.4-3.5c-1.6-0.3-4.9,0.2-6.4,0.7"
		/>
	<path class="st3" d="M1154.9,306.6c0,0,3.6-1.4,7.3-2.8c3.7-1.4,6.2-2.5,8.3-4.2s5-3.4,6.3-5.7c1.3-2.3,1.3-4.1,0.4-5.8
		c-0.9-1.7-2.7-3-5-3.4c-2.3-0.4-5.2,0-7.6,0.5c-2.4,0.5-1.7,0.5-2.7,0.8"/>
	<path class="st3" d="M1146.5,290.8c0,0,1.1-0.1,1.1-2s-1-4.9-7.1-6.7"/>
	<path class="st3" d="M1151.4,288.8c0.5-1.8-0.7-4.2-1.9-5.6c4.3,0.1,7.3,0,9-0.5c1.6-0.5,5-1.1,6.2-1.9c1.2-0.8,6.1-3.1,7.8-4.7
		c1.8-1.6,3.4-3.3,4.6-4.8"/>
	<path class="st3" d="M1151.6,280.1c0,0,9.5-0.9,14.8-4.4c5.3-3.5,7.3-5.3,8.5-8.4c1.2-3.1,1.9-6.8-2.3-10.1
		c-4.1-3.4-8.7-4.5-13.1-4.4c-4.4,0.1-15.4,3.4-19,5.6"/>
	<path class="st3" d="M1148.9,251.5c0,0,5.2-2.6,9.1-2.9c3.9-0.3,8.1,0,10.7,0.7c2.7,0.7,5.2,1.3,8.1,0.7c2.9-0.7,2.1-2.5,1.4-3
		c-0.7-0.5-3.3-1.2-5-1"/>
	<path class="st3" d="M1178.1,257.6c0,0,0.1-0.9-0.9-2.4c-1-1.6-3.3-4.4-4.9-5.1"/>
	<path class="st3" d="M1182.6,278.8c0,0,5.5,4.7,8,5.7c2.5,1,2.9,2.5,8.1,2.5c6.1,0.7,9.7,1.5,12.9,2.6s14.8,4.9,20.2,7.7
		s10.7,7.5,12.8,8s4.6,1.2,4.9,0.2c-1.5-3.2-3-4.6-4.7-6.2c-1.7-1.5-6.3-4.1-8.4-5c-2.2-0.9-13.6-6.3-20.3-8.1
		c-6.7-1.8-15.8-3.6-18.8-5.2c-3.1-1.8-10.2-7.3-11.7-11.5c-1.5-4.2-4.9-12.6,0-19.8c4.9-7.1,6.6-11.4,11.9-14.4s10.8-7,19.9-9.2
		c10-0.8,34.9-1.5,42.6,0.7s14.7,6,17.6,9.4c2.9,3.3,3.3,6.2,1.4,7.2c-1.9,1-7.3,3.1-10.5,3.9c-3.3,0.8-7,2.4-8.3,4.1"/>
	<path class="st3" d="M1283.9,231.5c0,0,3.1,4.7,2.6,7.1c-0.4,2.5-0.3,4.2-2.9,6.2c-2.6,2-4.9,4.4-7.2,5.4c-2.3,1-9.1,3.7-13.5,4.1
		c-4.8,1.9-5.6,2.6-5.9,3.6c-0.4,1-1.7,2.2,0.4,7c0.3,2.3-1.2,3.8-1.3,4.8c-0.1,1,1,3.7,1.4,4.8c0.1,1.8-1.9,5.2-2.2,6.3
		c0.7,2.3,2.7,4.8,2.2,6.7c-1.1,2.2-3.8,5.5-4.1,6.7c0,3,1.2,7.4,3.4,6c0.9-4.6,1.2-6.6,2.9-9.4"/>
	<path class="st3" d="M1265,242c0,0-1.8-0.1-5.6,2s-6.2,4.1-6,11.1"/>
	<path class="st3" d="M1252.6,264.3c-1.1-4.6-3.4-7.1-4-8.4c-0.6-1.3-2.9-7.3-1.1-9.8c1.8-2.5,3.5-5.8,7.9-7.1s6.6-2,12.3,0"/>
	<path class="st3" d="M1252.1,270.9c0,0-1.8-3.8-4.2-5.8c-2.5-2-5.3-4.9-6.9-7.2c-1.6-2.3-3.4-7.7-2.2-10.7s3.5-7.3,7.1-9.7
		c3.6-2.3,5.5-3.7,9.8-4s6.6-0.2,10.1,1.6"/>
	<path class="st3" d="M1252.7,230.7c0,0-5.7,1.5-7.6,2.6s-8.6,5.9-9.9,7.7c-1.3,1.8-3.8,5.2-4.3,7.1c-0.5,2-2.9,6.6,0.3,10.6
		c3.2,4,5.6,5.7,7.7,6.9c2.2,1.1,7.7,3.6,9.5,5.8c1.8,2.2,2.3,2.6,2.9,4.6"/>
	<path class="st3" d="M1251.6,284.8c0,0-1.2-4.5-2.9-6.4s-4.1-4.3-8.9-6c-4.9-1.6-11.2-5.3-12.7-7.1c-1.5-1.9-5.1-4.1-5.3-8.3
		c-0.2-4.1,0.8-8.5,3-10.5c2.2-2,4.9-6.6,7.1-8.1s7.5-6.3,13.1-8"/>
	<path class="st3" d="M1250.6,289.4c0,0-1.7-3.8-4-6c-2.3-2.2-5.5-3.5-7.8-4.7c-2.3-1.2-9.4-4.1-14.4-7.2c-5-3.1-5.6-4.7-7.4-7.2
		s-3.9-8.1-2-12.3c1.9-4.1,3.4-6.8,6.3-9.7s5.5-5.4,8.3-7.2c2.8-1.8,7.2-4,10.2-5.2"/>
	<path class="st3" d="M1235.6,229.3c0,0-5.9,1.8-9.9,4c-4,2.3-10,5.9-11.6,8c-1.6,2.1-5.7,8.1-6.2,11.3s1.1,13.1,6.8,18.2
		c5.7,5.1,10.1,7.9,13.6,9.3s7.8,3.5,11.2,4.7s8.9,5,10.4,10.2"/>
	<path class="st3" d="M1245.4,294.3c0,0-5.7-4.4-9.2-5.6s-6.8-3.3-11.6-5c-4.9-1.7-8.5-4.5-10.3-5.7s-6.7-3.8-10.2-9.4
		c-3.5-5.6-4.3-9.7-3.7-12.5c0.6-2.8,1-8.1,4.4-11.9s5.6-6.6,9-8.9c3.4-2.3,8.8-4.9,11.2-6.1"/>
	<path class="st3" d="M1212,231.3c0,0-5,3.2-7,4.7c-2,1.5-7,5.8-8.6,8.5c-1.6,2.7-4.7,7.6-5,11.1c-0.3,3.5,0.3,10.9,4.6,15.1
		s7.4,7.5,16.3,10.4"/>
	<path class="st3" d="M1130,258.5c0,0,2.9-2.4,2.6-5.6c-0.4-3.1-3.2-4.5-6.1-5.4"/>
	<path class="st3" d="M1129.9,262.8c0,0,3.8-5,6.1-6.7c2.3-1.7,8.4-6.6,10.8-7.8c2.3-1.2,7-5.1,16.3-4.8c8.3-0.2,10.9-0.6,13.1-1.3
		c2.2-0.7,13.8-5,21.1-12.1c9.7-5.9,13.9-8.9,24.3-9.1c10.4-0.1,18-1.3,21.4-1.2c3.4,0.1,8.6-0.3,16.1,2.4
		c7.4,2.7,12.8,6.5,13.5,7.1"/>
	<path class="st3" d="M1127.8,244.2c0,0,3.1,1.8,7.3,1.8c4.2,0,7.6-0.5,10.9-2c3.3-1.6,7.7-3.8,12-4c4.3-0.2,6.5,0,11-0.2
		s6.1-0.1,8.3-1.4"/>
	<path class="st3" d="M1127.1,240.1c0,0,1.3,2.1,7.9,2.2s7.3-0.4,9.5-2s4.2-4.8,4.4-7.1c0.2-2.3-0.2-5.9-3.2-8.5s-5-4.2-9.3-6.1"/>
	<path class="st3" d="M1165.9,236.4c0,0-4.6-0.3-6.9-3.6c-2.3-3.3-4.3-7.2-6.2-8.6s-8.6-6.7-14-8.3"/>
	<path class="st3" d="M1138.8,212.8c0,0,3.4,2.6,8.6,1.9c5.1-0.7,7.7-2.9,9.7-4.4"/>
	<path class="st3" d="M1160.4,212.6c0,0-2.9,4.7-2.7,6.6c0.2,1.9,0,6.6,3.6,10.8"/>
	<path class="st3" d="M1162.4,216c0,0-1.7,3.6-1,6.1c0.7,2.5,1.6,8.4,9,10.4c7.5,2,16.6,1.9,22.4-3.9c5.8-5.8,4-11.9,2.8-13.7
		c-1.2-1.8-3.1-4.2-4.8-5"/>
	<path class="st3" d="M1274.9,226.2c0,0-2.2-4.5-1.1-6.5c1.1-1.9,3.3-4.2,5.7-5.1"/>
	<path class="st3" d="M1267.7,221.8c0,0,3.5-2,4-3.1s0.3-4.5-0.7-6.3"/>
	<path class="st3" d="M1263,220.4c0,0,3.1,0.1,4.2-1.8c1.1-1.9,1.7-4.6,0-6.7"/>
	<path class="st3" d="M1262.6,210.5c0,0,1.3,2,1.3,3.4c0,1.4-0.6,4.5-5.1,5.3"/>
	<path class="st3" d="M1252.9,218c0,0,7.8-1.7,2.6-8.7"/>
	<path class="st3" d="M1249.8,208.8c0,0,5.7,4.7-1.3,9"/>
	<path class="st3" d="M1243.8,217.8c0,0,4.1-2.6,1.2-8.2"/>
	<path class="st3" d="M1241.6,210.1c0,0,0.7,3.6-0.6,7"/>
	<path class="st3" d="M1238.1,210.5c0,0-3.4,4-0.4,6.9"/>
	<path class="st3" d="M1233,218.2c0,0-3.8-2.2-0.9-6.1"/>
	<path class="st3" d="M1227.7,212.7c0,0-4.1,3.9,0.4,6.7"/>
	<path class="st3" d="M1222.1,214.2c0,0-3.9,3.4,0.7,5"/>
	<path class="st3" d="M1216.9,215.8c0,0-2.9,2.4,1.2,3.9"/>
	<path class="st3" d="M1212.6,216.4c0,0-2.3,2.1,1.2,4.5"/>
	<path class="st3" d="M1153,230.6c0,0-0.6,4.5,4.1,5.9"/>
	<path class="st3" d="M1199.1,223.8c0,0,2.4-6.2-0.2-10.4s-4.8-6.3-11-6.6"/>
	<path class="st3" d="M1203.7,221.7c0,0,1.5-3.2-1.3-6.6"/>
	<path class="st3" d="M1207,218.7c0,0,0.3-3.8-4.2-6.5c-4.5-2.7-4.4-3.8-6-5.8c-1.7-2-2.1-5.7-2-8.5"/>
	<path class="st3" d="M1184.1,204.6c0,0,5.4-2.6,6.1-4.9c0.7-2.3,0.4-2.4,0.5-4.1"/>
	<path class="st3" d="M1197.9,197.8c0,0-0.2,9.9,10.3,12c10.5,2.1,11.5-1.4,12.3-4.1s0.4-4.5,0-5.7"/>
	<path class="st3" d="M1222,208.8c0,0,1.2-1.3,1.8-4.1c0.6-2.9-0.5-5.6-2.8-7.2c-2.3-1.6-2.1-1.9-3.5-2.6"/>
	<path class="st3" d="M1224,197.2c0,0-3-3.6-5.4-3.9"/>
	<path class="st3" d="M1208.9,212.7c0,0,5.9,1.1,11.2,0s10-3.7,15.1-4.5c5.2-0.7,16-2.1,23-1.4c7,0.7,9.5,2.5,12.9,2.4
		c3.4-0.1,3,0.2,4.8,0"/>
	<path class="st3" d="M1275.9,213.8c0,0,3.5-3.9,7.6-3.7"/>
	<path class="st3" d="M1282.5,206.7c0,0-6.3,1.6-10.1,0c-3.7-1.6-8.1-5.8-5.8-12.1"/>
	<path class="st3" d="M1270.6,202.1c0,0,4.1,1.2,5.3,2"/>
	<path class="st3" d="M1256.6,203.8c0,0,4.5-3.3,4.9-4.8c0.4-1.5,1.1-4.8,1.9-6.2c0.8-1.4,3-4.1,5.6-5.4"/>
	<path class="st3" d="M1252.5,203.1c0,0,6.2-4.5,5.8-8.5s-1.6-4.4-4-5.7"/>
	<path class="st3" d="M1247.7,203.8c0,0,4-3,4.3-7.8c0.3-4.9-1.9-5.8-3.5-7.5"/>
	<path class="st3" d="M1244.5,203.6c0,0,3-4,2.9-8.1c-0.1-4.1-1.1-5-2.1-6"/>
	<path class="st3" d="M1242.8,191.1c0,0,0.3,8.7-0.4,12.1"/>
	<path class="st3" d="M1240.2,190.8c0,0-2.9,3.9-3,6.3c-0.1,2.4-0.7,4.8,3.8,8.5"/>
	<path class="st3" d="M1235.9,205.9c0,0-4.8-2.6-4.7-6.7c0.1-4,2.3-6.3,4.3-7.7"/>
	<path class="st3" d="M1228.7,194.6c0,0-4,6.7,1.2,10.2"/>
	<path class="st3" d="M1230.7,191.1c0,0,4-1.8,5.4-2.5c1.4-0.7,4.5-2.7,6.8-2.9s5.1-0.2,7.7,0c2.6,0.2,8.1,1,12.2,0.3
		c4.1-0.7,3.8-0.7,5.3-1.4"/>
	<path class="st3" d="M1268.1,182.2c0,0-2.1,1.4-4.9,1.2c-2.9-0.1-5.8-0.6-7-3.8c-1.2-3.2-0.3-4.9,0.5-6.4"/>
	<path class="st3" d="M1256.1,183.7c0,0-6.3-5.7-1.9-11"/>
	<path class="st3" d="M1248.7,172.8c0,0,5.4,3.1,0.7,9.7"/>
	<path class="st3" d="M1247.2,181.4c0,0,3.1-3.7,0.9-8.4"/>
	<path class="st3" d="M1244.9,181.7c0,0,1.5-1.8,1.2-4.6s-0.5-2.8-1.2-3.8"/>
	<path class="st3" d="M1243.7,175c0,0-0.6,4.6-0.2,6.4"/>
	<path class="st3" d="M1242.6,183.1c0,0-4.7-4.9-0.2-9.3"/>
	<path class="st3" d="M1239,176.2c0,0.3-2.9,4,0.7,7.8"/>
	<path class="st3" d="M1230,188.2c0,0,4.1-4.1,1.2-9"/>
	<path class="st3" d="M1233.1,187.8c0,0,2-3.6,1.7-6.4c-0.3-2.8-2.8-4.4-3.6-5.6"/>
	<path class="st3" d="M1236.1,176.2c0,0-2.6,5.2,1.5,8.8"/>
	<path class="st3" d="M1233.6,173.2c0.1,0,5.5-2.9,6.6-5.5"/>
	<path class="st3" d="M1238.8,172.8c0,0,2.3-2.9,4.3-3.3s3.8,0.4,6,0.2s5.4-0.7,6.4-2.1"/>
	<path class="st3" d="M1245.9,161.7c0.9,0.5,1.4,0.7,1.5,1"/>
	<path class="st3" d="M1244.9,164.3c0,0,1.9-0.2,2.6,0.6"/>
	<path class="st3" d="M1245.9,166.3c0,0,1.1,0,2.1,1.2"/>
	<path class="st3" d="M1249.3,163.7c0,0,0.5,2.3,2.7,2.9c2.2,0.5,3.1,0.3,3.5,0"/>
</g>
</svg>
